<svg width="72" height="107" viewBox="0 0 72 107" fill="none" xmlns="http://www.w3.org/2000/svg">
  <path d="M15.8183 37.6364C8.18178 37.6364 4.90906 49.0909 4.90906 57.2727M55.6363 37.6364C62.7272 37.6364 67.0909 49.0909 67.0909 57.2727" stroke="#178ACE" stroke-width="2"/>
  <rect y="53.4546" width="9.81818" height="14.1818" fill="#C4C4C4"/>
  <rect x="3.27271" y="53.4546" width="6.54545" height="14.1818" fill="#7B7B7B"/>
  <rect x="62.1818" y="53.4546" width="9.81818" height="14.1818" fill="#C4C4C4"/>
  <rect x="65.4546" y="53.4546" width="6.54545" height="14.1818" fill="#7B7B7B"/>
  <path d="M2.18176 67.6364H4.36358V69.9091C4.36358 70.4614 3.91587 70.9091 3.36358 70.9091H3.18176C2.62948 70.9091 2.18176 70.4614 2.18176 69.9091V67.6364Z" fill="#178ACE"/>
  <path d="M64.3636 67.6364H66.5455V69.9091C66.5455 70.4614 66.0978 70.9091 65.5455 70.9091H65.3636C64.8114 70.9091 64.3636 70.4614 64.3636 69.9091V67.6364Z" fill="#178ACE"/>
  <path d="M5.45459 67.6364H7.63641V69.9091C7.63641 70.4614 7.18869 70.9091 6.63641 70.9091H6.45459C5.9023 70.9091 5.45459 70.4614 5.45459 69.9091V67.6364Z" fill="#178ACE"/>
  <path d="M67.6364 67.6364H69.8182V69.9091C69.8182 70.4614 69.3705 70.9091 68.8182 70.9091H68.6364C68.0841 70.9091 67.6364 70.4614 67.6364 69.9091V67.6364Z" fill="#178ACE"/>
  <rect x="14.1818" y="32.7273" width="43.6364" height="39.2727" rx="2" fill="#24253F"/>
  <path d="M20.9999 33H55.9999C57.1044 33 57.9999 33.8954 57.9999 35V70C57.9999 71.1046 57.1044 72 55.9999 72H20.9999V33Z" fill="#444458"/>
  <rect x="18.5453" y="37.0909" width="34.9091" height="21.8182" rx="2" fill="white"/>
  <rect x="22.9091" y="72" width="6.54545" height="19.6364" fill="#24253F"/>
  <rect x="20.7273" y="92.7273" width="10.9091" height="8.72727" fill="#C4C4C4"/>
  <rect x="24" y="92.7273" width="7.63636" height="8.72727" fill="#7B7B7B"/>
  <path d="M17.4546 105.545C17.4546 103.889 18.7977 102.545 20.4546 102.545H31.9091C33.566 102.545 34.9091 103.889 34.9091 105.545V106.909H17.4546V105.545Z" fill="#444458"/>
  <rect x="40.3638" y="92.7273" width="10.9091" height="8.72727" fill="#C4C4C4"/>
  <rect x="43.6365" y="92.7273" width="7.63636" height="8.72727" fill="#7B7B7B"/>
  <rect x="42.5455" y="72" width="6.54545" height="19.6364" fill="#24253F"/>
  <path d="M37.0911 105.545C37.0911 103.889 38.4342 102.545 40.0911 102.545H51.5456C53.2025 102.545 54.5456 103.889 54.5456 105.545V106.909H37.0911V105.545Z" fill="#444458"/>
  <path fill-rule="evenodd" clip-rule="evenodd" d="M16.1818 0C15.0772 0 14.1818 0.895431 14.1818 2V24.1818C14.1818 25.2864 15.0772 26.1818 16.1818 26.1818H22.909V28.5455C22.909 29.65 23.8044 30.5455 24.909 30.5455H47.0908C48.1954 30.5455 49.0908 29.65 49.0908 28.5455V26.1818H55.8181C56.9227 26.1818 57.8181 25.2864 57.8181 24.1818V2C57.8181 0.895431 56.9227 0 55.8181 0H16.1818Z" fill="#444458"/>
  <rect x="18.5453" y="4.36363" width="34.9091" height="17.4545" rx="2" fill="white"/>
  <path d="M27.8181 16.3636C27.8181 16.3636 31.6363 19.0909 35.9999 19.0909C40.3636 19.0909 44.1818 16.3636 44.1818 16.3636" stroke="#24253F" stroke-width="2" stroke-linejoin="round"/>
  <circle cx="27.8181" cy="10.3636" r="2.72727" fill="#0FB900"/>
  <circle cx="44.1817" cy="10.3636" r="2.72727" fill="#0FB900"/>
</svg>
