<svg width="276" height="28" viewBox="0 0 276 28" fill="none" xmlns="http://www.w3.org/2000/svg">
<path fill-rule="evenodd" clip-rule="evenodd" d="M1 26H15.1389C15.4907 26 15.7407 25.9259 15.8889 25.7778C16.0556 25.6111 16.1389 25.3519 16.1389 25V16.25C16.1389 15.8981 16.0556 15.6481 15.8889 15.5C15.7407 15.3333 15.4907 15.25 15.1389 15.25H11.1111C10.7593 15.25 10.5 15.3333 10.3333 15.5C10.1852 15.6481 10.1111 15.8981 10.1111 16.25V20.75H6.30556V7C6.30556 6.64815 6.22222 6.39815 6.05555 6.25C5.90741 6.08333 5.65741 6 5.30556 6H1C0.648148 6 0.388889 6.08333 0.222222 6.25C0.0740741 6.39815 0 6.64815 0 7V25C0 25.3519 0.0740741 25.6111 0.222222 25.7778C0.388889 25.9259 0.648148 26 1 26ZM13.25 23.5H3.02778V8.5H3.30556V23.2222H12.9722V17.75H13.25V23.5ZM20.3142 26H33.2031C33.555 26 33.805 25.9259 33.9531 25.7778C34.1198 25.6111 34.2031 25.3519 34.2031 25V21.75C34.2031 21.3981 34.1198 21.1481 33.9531 21C33.805 20.8333 33.555 20.75 33.2031 20.75H25.5365V18.3611H30.9531C31.305 18.3611 31.555 18.287 31.7031 18.1389C31.8698 17.9722 31.9531 17.713 31.9531 17.3611V14.3889C31.9531 14.037 31.8698 13.787 31.7031 13.6389C31.555 13.4722 31.305 13.3889 30.9531 13.3889H25.5365V11.25H33.2031C33.555 11.25 33.805 11.1759 33.9531 11.0278C34.1198 10.8611 34.2031 10.6019 34.2031 10.25V7C34.2031 6.64815 34.1198 6.39815 33.9531 6.25C33.805 6.08333 33.555 6 33.2031 6H20.3142C19.9624 6 19.7031 6.08333 19.5365 6.25C19.3883 6.39815 19.3142 6.64815 19.3142 7V25C19.3142 25.3519 19.3883 25.6111 19.5365 25.7778C19.7031 25.9259 19.9624 26 20.3142 26ZM22.6198 23.2222H31.7031V23.5H22.342V8.5H31.7031V8.77778H22.6198V15.75H29.4531V16.0278H22.6198V23.2222ZM40.2947 17.5833C40.2947 17.0833 40.3317 16.6204 40.4058 16.1944C40.4984 15.7685 40.6095 15.3704 40.7391 15L42.5169 10.4444C42.7021 9.98148 42.9058 9.59259 43.128 9.27778C43.3503 8.94444 43.7391 8.77778 44.2947 8.77778H47.0169C47.5354 8.77778 47.9058 8.94444 48.128 9.27778C48.3503 9.59259 48.5632 9.99074 48.7669 10.4722L50.6836 15C50.8132 15.3704 50.9151 15.7685 50.9891 16.1944C51.0817 16.6204 51.128 17.0833 51.128 17.5833V18.4444H40.2947V17.5833ZM44.7391 11.8333L43.4336 16.0556H47.7947L46.4891 11.8333C46.4151 11.6667 46.3317 11.5463 46.2391 11.4722C46.1651 11.3981 46.0725 11.3611 45.9614 11.3611H45.2669C45.1558 11.3611 45.054 11.3981 44.9614 11.4722C44.8873 11.5463 44.8132 11.6667 44.7391 11.8333ZM51.128 23.5H51.4058V17.5833C51.4058 17.0648 51.3595 16.5926 51.2669 16.1667C51.1928 15.7222 51.0817 15.2963 50.9336 14.8889L49.0169 10.3611C48.7947 9.82407 48.554 9.37963 48.2947 9.02778C48.054 8.67593 47.628 8.5 47.0169 8.5H44.2947C43.6651 8.5 43.2206 8.67593 42.9614 9.02778C42.7021 9.37963 42.4706 9.81482 42.2669 10.3333L40.4891 14.8889C40.341 15.2963 40.2206 15.7222 40.128 16.1667C40.054 16.5926 40.0169 17.0648 40.0169 17.5833V23.5H40.2947V18.7222H51.128V23.5ZM43.1558 25C43.1558 25.3519 43.0725 25.6111 42.9058 25.7778C42.7577 25.9259 42.5077 26 42.1558 26H38.0725C37.7206 26 37.4614 25.9259 37.2947 25.7778C37.1466 25.6111 37.0725 25.3519 37.0725 25V17.6667C37.0725 17.1111 37.1558 16.4722 37.3225 15.75C37.5077 15.0278 37.7854 14.1852 38.1558 13.2222L40.5725 6.91667C40.6836 6.60185 40.8503 6.37037 41.0725 6.22222C41.3132 6.07407 41.6188 6 41.9891 6H49.4614C49.8132 6 50.1003 6.07407 50.3225 6.22222C50.5632 6.37037 50.7391 6.60185 50.8503 6.91667L53.2669 13.2222C53.6373 14.1852 53.9058 15.0278 54.0725 15.75C54.2577 16.4722 54.3503 17.1111 54.3503 17.6667V25C54.3503 25.3519 54.2669 25.6111 54.1003 25.7778C53.9521 25.9259 53.7021 26 53.3503 26H49.1558C48.7854 26 48.5077 25.9259 48.3225 25.7778C48.1558 25.6111 48.0725 25.3519 48.0725 25V21.1111H43.1558V25ZM58.7799 26H63.0855C63.4373 26 63.6874 25.9259 63.8355 25.7778C64.0022 25.6111 64.0855 25.3519 64.0855 25V20.3889H67.2799C69.7985 20.3889 71.5207 19.8889 72.4466 18.8889C73.3725 17.8889 73.8355 16.5833 73.8355 14.9722V11.4167C73.8355 9.80555 73.3725 8.5 72.4466 7.5C71.5207 6.5 69.7985 6 67.2799 6H58.7799C58.4281 6 58.1688 6.08333 58.0022 6.25C57.854 6.39815 57.7799 6.64815 57.7799 7V25C57.7799 25.3519 57.854 25.6111 58.0022 25.7778C58.1688 25.9259 58.4281 26 58.7799 26ZM69.0022 17.75C68.4651 17.9352 67.7614 18.0278 66.8911 18.0278H61.1688V23.5H60.8911V8.5H66.8911C67.7614 8.5 68.4651 8.60185 69.0022 8.80556C69.5577 8.99074 69.9836 9.25 70.2799 9.58333C70.5762 9.91667 70.7799 10.3148 70.8911 10.7778C71.0022 11.2407 71.0577 11.7407 71.0577 12.2778V14.3333C71.0577 14.8704 71.0022 15.3704 70.8911 15.8333C70.7799 16.2778 70.5762 16.6667 70.2799 17C69.9836 17.3148 69.5577 17.5648 69.0022 17.75ZM61.1688 8.77778V17.75H66.8911C67.7059 17.75 68.3633 17.6667 68.8633 17.5C69.3818 17.3333 69.7799 17.1019 70.0577 16.8056C70.3355 16.4907 70.5207 16.1296 70.6133 15.7222C70.7244 15.2963 70.7799 14.8333 70.7799 14.3333V12.2778C70.7799 11.7778 70.7244 11.3148 70.6133 10.8889C70.5207 10.463 70.3355 10.0926 70.0577 9.77778C69.7799 9.46296 69.3818 9.22222 68.8633 9.05556C68.3633 8.87037 67.7059 8.77778 66.8911 8.77778H61.1688ZM64.0299 15.3889V11.1944H66.5299C67.067 11.1944 67.4188 11.3333 67.5855 11.6111C67.7522 11.8889 67.8355 12.2037 67.8355 12.5556V14.0278C67.8355 14.3796 67.7522 14.6944 67.5855 14.9722C67.4188 15.25 67.067 15.3889 66.5299 15.3889H64.0299ZM79.7144 23.5H79.9922V16.1389H90.6589V23.5H90.9366V8.5H90.6589V15.8611H79.9922V8.5H79.7144V23.5ZM82.02 26H77.7144C77.3625 26 77.1033 25.9259 76.9366 25.7778C76.7885 25.6111 76.7144 25.3519 76.7144 25V7C76.7144 6.64815 76.7885 6.39815 76.9366 6.25C77.1033 6.08333 77.3625 6 77.7144 6H82.02C82.3718 6 82.6218 6.08333 82.77 6.25C82.9366 6.39815 83.02 6.64815 83.02 7V13.0278H87.6589V7C87.6589 6.64815 87.7329 6.39815 87.8811 6.25C88.0477 6.08333 88.307 6 88.6589 6H92.9644C93.3163 6 93.5663 6.08333 93.7144 6.25C93.8811 6.39815 93.9644 6.64815 93.9644 7V25C93.9644 25.3519 93.8811 25.6111 93.7144 25.7778C93.5663 25.9259 93.3163 26 92.9644 26H88.6589C88.307 26 88.0477 25.9259 87.8811 25.7778C87.7329 25.6111 87.6589 25.3519 87.6589 25V18.8333H83.02V25C83.02 25.3519 82.9366 25.6111 82.77 25.7778C82.6218 25.9259 82.3718 26 82.02 26ZM103.431 26H107.931C108.283 26 108.533 25.9259 108.681 25.7778C108.847 25.6111 108.931 25.3519 108.931 25V23.0627C114.021 26.7904 120.909 26.095 125.344 20.2017L125.331 20.2022C125.21 20.2029 124.183 20.1388 119.614 18.1723C113.443 15.5171 110.898 22.4423 110.898 22.4423L110.935 22.4626C111.398 22.712 116.142 25.1281 120.524 21.9829L120.492 22.0123C120.097 22.3754 115.999 25.9377 110.278 23.1897C109.867 22.9921 109.403 22.7315 108.931 22.4304V21.4722L113.153 15.75C113.56 15.1759 113.838 14.6759 113.986 14.25C114.134 13.8241 114.209 13.1852 114.209 12.3333V7C114.209 6.64815 114.125 6.39815 113.959 6.25C113.81 6.08333 113.56 6 113.209 6H109.07C108.718 6 108.459 6.08333 108.292 6.25C108.144 6.39815 108.07 6.64815 108.07 7V11.5556C108.07 11.7407 108.06 11.9352 108.042 12.1389C108.023 12.3426 107.949 12.537 107.82 12.7222L106.542 14.7222C106.449 14.8889 106.347 15.0093 106.236 15.0833C106.144 15.1574 106.023 15.1944 105.875 15.1944H105.597C105.449 15.1944 105.32 15.1574 105.209 15.0833C105.116 15.0093 105.023 14.8889 104.931 14.7222L103.653 12.7222C103.523 12.537 103.449 12.3426 103.431 12.1389C103.412 11.9352 103.403 11.7407 103.403 11.5556V7C103.403 6.64815 103.32 6.39815 103.153 6.25C103.005 6.08333 102.755 6 102.403 6H98.1252C97.7734 6 97.5141 6.08333 97.3474 6.25C97.1993 6.39815 97.1252 6.64815 97.1252 7V12.3333C97.1252 13.1852 97.19 13.8241 97.3196 14.25C97.4678 14.6759 97.7548 15.1759 98.1808 15.75L102.431 21.4444V25C102.431 25.3519 102.505 25.6111 102.653 25.7778C102.82 25.9259 103.079 26 103.431 26ZM107.125 18.4722C106.81 18.6574 106.44 18.75 106.014 18.75H105.82V23.5H105.542V18.75H105.264C104.857 18.75 104.486 18.6574 104.153 18.4722C103.838 18.287 103.533 17.9907 103.236 17.5833L100.542 13.8333C100.338 13.5556 100.218 13.2315 100.181 12.8611C100.144 12.4907 100.125 12.1019 100.125 11.6944V8.5H100.403V11.6944C100.403 12.0833 100.422 12.4537 100.459 12.8056C100.496 13.1389 100.607 13.4444 100.792 13.7222L103.486 17.4722C103.727 17.8426 104.005 18.1019 104.32 18.25C104.634 18.3981 104.949 18.4722 105.264 18.4722H106.014C106.366 18.4722 106.681 18.3981 106.959 18.25C107.255 18.0833 107.542 17.8241 107.82 17.4722L110.597 13.7222C110.783 13.4815 110.894 13.1852 110.931 12.8333C110.968 12.463 110.986 12.0833 110.986 11.6944V8.5H111.264V11.6944C111.264 12.1019 111.246 12.4907 111.209 12.8611C111.19 13.213 111.07 13.537 110.847 13.8333L108.07 17.5833C107.773 17.9907 107.459 18.287 107.125 18.4722Z" fill="white"/>
<path d="M141.248 6.17578C141.626 6.17578 142.008 6.18994 142.395 6.21826C142.782 6.24658 143.132 6.32682 143.443 6.45898C143.755 6.59115 144.01 6.79411 144.208 7.06787C144.406 7.33219 144.505 7.70508 144.505 8.18652C144.505 8.66797 144.406 9.04557 144.208 9.31934C144.01 9.58366 143.755 9.7819 143.443 9.91406C143.132 10.0462 142.782 10.1265 142.395 10.1548C142.008 10.1831 141.626 10.1973 141.248 10.1973H137.878V14.0488H139.662C140.04 14.0488 140.418 14.063 140.795 14.0913C141.182 14.1102 141.522 14.1857 141.815 14.3179C142.117 14.4406 142.362 14.6341 142.551 14.8984C142.74 15.1533 142.834 15.512 142.834 15.9746C142.834 16.4466 142.74 16.8101 142.551 17.0649C142.362 17.3198 142.117 17.5133 141.815 17.6455C141.522 17.7682 141.182 17.8438 140.795 17.8721C140.418 17.891 140.04 17.9004 139.662 17.9004H137.878V21.9785H141.248C141.626 21.9785 142.008 21.9927 142.395 22.021C142.782 22.0493 143.132 22.1296 143.443 22.2617C143.755 22.3844 144.01 22.5827 144.208 22.8564C144.406 23.1208 144.505 23.4889 144.505 23.9609C144.505 24.4518 144.401 24.8341 144.194 25.1079C143.995 25.3817 143.74 25.5846 143.429 25.7168C143.117 25.849 142.768 25.9292 142.381 25.9575C141.994 25.9858 141.616 26 141.248 26H135.698C135.169 26 134.758 25.9056 134.466 25.7168C134.182 25.528 133.975 25.2826 133.843 24.9805C133.71 24.6689 133.63 24.3197 133.602 23.9326C133.583 23.5456 133.573 23.1491 133.573 22.7432V9.43262C133.573 9.02669 133.583 8.63021 133.602 8.24316C133.63 7.85612 133.71 7.51156 133.843 7.20947C133.975 6.89795 134.182 6.64779 134.466 6.45898C134.758 6.27018 135.169 6.17578 135.698 6.17578H141.248ZM152.292 17.4473H156.795L154.699 9.85742H154.388L152.292 17.4473ZM161.185 18.835C161.204 19.4769 161.227 20.133 161.255 20.8032C161.284 21.4735 161.298 22.1201 161.298 22.7432V23.168C161.298 23.5267 161.284 23.876 161.255 24.2158C161.237 24.5462 161.166 24.8483 161.043 25.1221C160.92 25.3864 160.727 25.5988 160.462 25.7593C160.198 25.9198 159.825 26 159.344 26C158.853 26 158.475 25.9198 158.211 25.7593C157.947 25.5988 157.748 25.3864 157.616 25.1221C157.494 24.8577 157.418 24.5557 157.39 24.2158C157.371 23.876 157.361 23.5267 157.361 23.168V21.1855H151.697V23.168C151.697 23.5267 151.683 23.876 151.655 24.2158C151.636 24.5557 151.56 24.8577 151.428 25.1221C151.306 25.3864 151.112 25.5988 150.848 25.7593C150.583 25.9198 150.206 26 149.715 26C149.224 26 148.846 25.9198 148.582 25.7593C148.318 25.5988 148.124 25.3864 148.002 25.1221C147.879 24.8483 147.808 24.5462 147.789 24.2158C147.77 23.876 147.761 23.5267 147.761 23.168V22.7432C147.761 22.4505 147.761 22.139 147.761 21.8086C147.77 21.4782 147.78 21.1431 147.789 20.8032C147.799 20.4634 147.808 20.1283 147.817 19.7979C147.827 19.458 147.836 19.137 147.846 18.835C148.318 17.1924 148.813 15.5309 149.333 13.8506C149.852 12.1608 150.347 10.4899 150.819 8.83789C150.914 8.48861 151.027 8.15348 151.159 7.83252C151.291 7.50212 151.466 7.21891 151.683 6.98291C151.9 6.73747 152.179 6.54395 152.519 6.40234C152.858 6.2513 153.293 6.17578 153.821 6.17578H155.237C155.757 6.17578 156.186 6.2513 156.526 6.40234C156.875 6.54395 157.158 6.73747 157.376 6.98291C157.593 7.21891 157.763 7.50212 157.885 7.83252C158.018 8.15348 158.136 8.48861 158.239 8.83789L161.185 18.835ZM169.142 11.1602C169.151 11.5566 169.264 11.9154 169.481 12.2363C169.708 12.5479 170.001 12.8452 170.359 13.1284C170.727 13.4116 171.143 13.6901 171.605 13.9639C172.068 14.2282 172.54 14.5114 173.021 14.8135C173.512 15.1061 173.989 15.4271 174.452 15.7764C174.914 16.1257 175.33 16.5221 175.698 16.9658C176.066 17.4095 176.363 17.9098 176.59 18.4668C176.816 19.0238 176.939 19.6562 176.958 20.3643V20.4775C176.958 21.2516 176.864 21.9266 176.675 22.5024C176.486 23.0783 176.236 23.5739 175.924 23.9893C175.613 24.4046 175.249 24.7492 174.834 25.0229C174.419 25.2873 173.98 25.4997 173.517 25.6602C173.064 25.8206 172.601 25.9339 172.129 26C171.667 26.0661 171.228 26.1038 170.812 26.1133H170.671C169.868 26.1133 169.165 26.033 168.561 25.8726C167.957 25.7121 167.438 25.4997 167.003 25.2354C166.569 24.9616 166.206 24.6501 165.913 24.3008C165.63 23.9515 165.403 23.5928 165.233 23.2246C165.063 22.847 164.941 22.4741 164.865 22.106C164.79 21.7378 164.752 21.3932 164.752 21.0723C164.752 20.7419 164.809 20.4539 164.922 20.2085C165.035 19.9631 165.181 19.7648 165.361 19.6138C165.55 19.4533 165.762 19.3353 165.998 19.2598C166.243 19.1842 166.498 19.1465 166.763 19.1465C167.008 19.1465 167.258 19.1842 167.513 19.2598C167.777 19.3353 168.013 19.4533 168.221 19.6138C168.438 19.7648 168.613 19.9631 168.745 20.2085C168.887 20.4445 168.962 20.723 168.972 21.0439C168.99 21.752 169.151 22.2381 169.453 22.5024C169.755 22.7573 170.189 22.8848 170.756 22.8848C171.039 22.8753 171.299 22.8423 171.535 22.7856C171.78 22.7196 171.988 22.611 172.158 22.46C172.328 22.2995 172.46 22.0918 172.554 21.8369C172.658 21.5726 172.71 21.2422 172.71 20.8457C172.71 20.3548 172.597 19.9111 172.37 19.5146C172.153 19.1182 171.865 18.75 171.506 18.4102C171.148 18.0703 170.737 17.7493 170.274 17.4473C169.812 17.1357 169.34 16.8289 168.858 16.5269C168.377 16.2153 167.905 15.8944 167.442 15.564C166.989 15.2241 166.579 14.856 166.21 14.4595C165.842 14.063 165.545 13.624 165.318 13.1426C165.101 12.6611 164.988 12.1136 164.978 11.5V11.2734C164.988 10.2633 165.12 9.42318 165.375 8.75293C165.639 8.08268 166.022 7.54932 166.522 7.15283C167.032 6.75635 167.655 6.47786 168.391 6.31738C169.127 6.14746 169.972 6.0625 170.926 6.0625H171.294C172.162 6.0625 172.899 6.1569 173.503 6.3457C174.107 6.53451 174.607 6.77523 175.004 7.06787C175.41 7.36051 175.726 7.69092 175.953 8.05908C176.189 8.42725 176.363 8.79069 176.476 9.14941C176.59 9.50814 176.661 9.84326 176.689 10.1548C176.717 10.4663 176.731 10.7165 176.731 10.9053C176.731 11.1885 176.675 11.4481 176.561 11.6841C176.458 11.9106 176.311 12.1042 176.122 12.2646C175.943 12.4251 175.726 12.5526 175.471 12.647C175.226 12.7319 174.957 12.7744 174.664 12.7744C174.437 12.7744 174.211 12.7319 173.984 12.647C173.758 12.5526 173.555 12.4346 173.375 12.293C173.196 12.1514 173.05 11.9909 172.936 11.8115C172.823 11.6227 172.767 11.4339 172.767 11.2451C172.767 10.471 172.625 9.93294 172.342 9.63086C172.068 9.32878 171.662 9.17773 171.124 9.17773C170.869 9.17773 170.619 9.19189 170.373 9.22021C170.137 9.24854 169.925 9.32878 169.736 9.46094C169.557 9.58366 169.411 9.77718 169.297 10.0415C169.193 10.3058 169.142 10.6787 169.142 11.1602ZM188.285 22.7998C188.285 23.1963 188.266 23.5881 188.228 23.9751C188.191 24.3527 188.101 24.6925 187.959 24.9946C187.818 25.2967 187.605 25.5422 187.322 25.731C187.039 25.9103 186.652 26 186.161 26C185.661 26 185.269 25.9103 184.986 25.731C184.702 25.5422 184.485 25.2967 184.334 24.9946C184.193 24.6925 184.103 24.3527 184.065 23.9751C184.027 23.5881 184.009 23.1963 184.009 22.7998V17.8721L179.789 10.3389C179.562 9.94238 179.345 9.55534 179.137 9.17773C178.93 8.79069 178.826 8.40365 178.826 8.0166C178.826 7.76172 178.897 7.50684 179.038 7.25195C179.189 6.98763 179.458 6.74219 179.845 6.51562C180.27 6.28906 180.667 6.17578 181.035 6.17578C181.318 6.17578 181.573 6.24186 181.8 6.37402C182.036 6.49674 182.248 6.66195 182.437 6.86963C182.626 7.07731 182.796 7.31331 182.947 7.57764C183.098 7.83252 183.234 8.09212 183.357 8.35645L185.934 13.7656H186.387L188.965 8.35645C189.087 8.09212 189.224 7.83252 189.375 7.57764C189.526 7.31331 189.696 7.07731 189.885 6.86963C190.074 6.66195 190.282 6.49674 190.508 6.37402C190.744 6.24186 191.004 6.17578 191.287 6.17578C191.485 6.17578 191.679 6.2041 191.867 6.26074C192.056 6.31738 192.259 6.40234 192.476 6.51562C192.845 6.74219 193.104 6.98763 193.255 7.25195C193.416 7.50684 193.496 7.76172 193.496 8.0166C193.496 8.18652 193.42 8.46501 193.269 8.85205C193.118 9.22965 192.873 9.72526 192.533 10.3389L188.285 17.8721V22.7998ZM202.302 6.17578C203.143 6.17578 203.931 6.28434 204.667 6.50146C205.413 6.71859 206.06 7.04427 206.607 7.47852C207.164 7.91276 207.598 8.45557 207.91 9.10693C208.231 9.74886 208.391 10.4993 208.391 11.3584C208.391 11.8021 208.33 12.208 208.207 12.5762C208.094 12.9349 207.943 13.2606 207.754 13.5532C207.575 13.8459 207.372 14.1007 207.145 14.3179C206.928 14.535 206.716 14.7238 206.508 14.8843C206.3 15.0353 206.116 15.158 205.956 15.2524C205.795 15.3374 205.682 15.3893 205.616 15.4082C206.182 15.5687 206.659 15.7764 207.046 16.0312C207.433 16.2767 207.754 16.5505 208.009 16.8525C208.273 17.1452 208.476 17.452 208.618 17.7729C208.769 18.0845 208.877 18.3913 208.943 18.6934C209.019 18.986 209.061 19.2598 209.071 19.5146C209.09 19.7601 209.099 19.9583 209.099 20.1094C209.099 20.8457 209.01 21.4971 208.83 22.0635C208.651 22.6204 208.415 23.1066 208.122 23.522C207.83 23.9279 207.494 24.2772 207.117 24.5698C206.739 24.853 206.357 25.0843 205.97 25.2637C205.045 25.6979 204.002 25.9434 202.84 26H198.196C197.658 26 197.242 25.9103 196.95 25.731C196.657 25.5422 196.445 25.2967 196.313 24.9946C196.18 24.6831 196.1 24.3338 196.072 23.9468C196.053 23.5597 196.044 23.1585 196.044 22.7432V9.4043C196.044 8.99837 196.053 8.60189 196.072 8.21484C196.1 7.8278 196.18 7.48324 196.313 7.18115C196.445 6.87907 196.657 6.63835 196.95 6.45898C197.242 6.27018 197.658 6.17578 198.196 6.17578H202.302ZM200.348 17.334V22.6582H202.416C202.859 22.6393 203.256 22.5355 203.605 22.3467C203.756 22.2712 203.902 22.172 204.044 22.0493C204.186 21.9266 204.313 21.7756 204.426 21.5962C204.54 21.4074 204.629 21.195 204.695 20.959C204.762 20.7135 204.795 20.4303 204.795 20.1094C204.795 19.7601 204.757 19.458 204.681 19.2031C204.615 18.9388 204.521 18.7122 204.398 18.5234C204.285 18.3252 204.153 18.16 204.002 18.0278C203.851 17.8862 203.699 17.7729 203.548 17.688C203.18 17.4897 202.765 17.3717 202.302 17.334H200.348ZM200.348 9.51758V14.332H202.161C202.567 14.3132 202.93 14.2188 203.251 14.0488C203.383 13.9827 203.515 13.8931 203.648 13.7798C203.78 13.6665 203.898 13.5343 204.002 13.3833C204.105 13.2228 204.186 13.034 204.242 12.8169C204.308 12.5998 204.341 12.3496 204.341 12.0664C204.341 11.7454 204.308 11.467 204.242 11.231C204.176 10.9855 204.087 10.7778 203.973 10.6079C203.869 10.4285 203.747 10.2775 203.605 10.1548C203.473 10.0321 203.336 9.92822 203.194 9.84326C202.855 9.6639 202.472 9.55534 202.047 9.51758H200.348ZM213.658 9.43262C213.658 9.02669 213.677 8.63021 213.714 8.24316C213.752 7.85612 213.842 7.51156 213.983 7.20947C214.134 6.89795 214.352 6.64779 214.635 6.45898C214.918 6.27018 215.31 6.17578 215.81 6.17578C216.348 6.17578 216.768 6.27018 217.07 6.45898C217.372 6.64779 217.594 6.89795 217.736 7.20947C217.877 7.51156 217.962 7.85612 217.991 8.24316C218.028 8.63021 218.047 9.02669 218.047 9.43262V21.8369H220.823C221.21 21.8369 221.592 21.8558 221.97 21.8936C222.347 21.9313 222.682 22.021 222.975 22.1626C223.277 22.3042 223.518 22.5119 223.697 22.7856C223.877 23.0594 223.966 23.4323 223.966 23.9043C223.966 24.3857 223.877 24.7681 223.697 25.0513C223.518 25.325 223.277 25.5327 222.975 25.6743C222.682 25.8159 222.347 25.9056 221.97 25.9434C221.592 25.9811 221.21 26 220.823 26H216.801C216.301 26 215.857 25.9811 215.47 25.9434C215.083 25.9056 214.753 25.8159 214.479 25.6743C214.215 25.5327 214.012 25.325 213.87 25.0513C213.728 24.7681 213.658 24.3857 213.658 23.9043V9.43262ZM227.477 11.7832C227.477 10.877 227.609 10.1076 227.873 9.4751C228.138 8.83317 228.473 8.2998 228.879 7.875C229.294 7.4502 229.747 7.11979 230.238 6.88379C230.738 6.63835 231.22 6.45426 231.682 6.33154C232.154 6.20882 232.579 6.1333 232.957 6.10498C233.334 6.07666 233.613 6.0625 233.792 6.0625H234.274C234.453 6.0625 234.732 6.07666 235.109 6.10498C235.487 6.1333 235.907 6.20882 236.369 6.33154C236.832 6.45426 237.309 6.63835 237.8 6.88379C238.3 7.11979 238.748 7.4502 239.145 7.875C239.551 8.2998 239.881 8.83317 240.136 9.4751C240.4 10.1076 240.533 10.877 240.533 11.7832V20.251C240.533 21.1855 240.4 21.9785 240.136 22.6299C239.881 23.2812 239.551 23.8241 239.145 24.2583C238.748 24.6925 238.3 25.0371 237.8 25.292C237.309 25.5374 236.832 25.7215 236.369 25.8442C235.907 25.967 235.487 26.0425 235.109 26.0708C234.732 26.0991 234.453 26.1133 234.274 26.1133H233.792C233.613 26.1133 233.334 26.0991 232.957 26.0708C232.579 26.0425 232.154 25.967 231.682 25.8442C231.22 25.7215 230.738 25.5374 230.238 25.292C229.747 25.0371 229.294 24.6925 228.879 24.2583C228.473 23.8241 228.138 23.2812 227.873 22.6299C227.609 21.9785 227.477 21.1855 227.477 20.251V11.7832ZM232.178 20.7891C232.197 21.1383 232.277 21.4451 232.419 21.7095C232.541 21.9455 232.726 22.1579 232.971 22.3467C233.226 22.5355 233.585 22.6299 234.047 22.6299C234.5 22.6299 234.85 22.5355 235.095 22.3467C235.34 22.1579 235.525 21.9455 235.647 21.7095C235.779 21.4451 235.86 21.1383 235.888 20.7891V11.5566C235.86 11.2168 235.779 10.91 235.647 10.6362C235.525 10.4097 235.34 10.202 235.095 10.0132C234.85 9.81494 234.5 9.71582 234.047 9.71582C233.585 9.71582 233.226 9.81494 232.971 10.0132C232.726 10.202 232.541 10.4097 232.419 10.6362C232.277 10.91 232.197 11.2168 232.178 11.5566V20.7891ZM244.864 11.8115C244.864 10.8958 244.997 10.117 245.261 9.4751C245.525 8.83317 245.86 8.2998 246.266 7.875C246.682 7.44076 247.135 7.10563 247.626 6.86963C248.126 6.62419 248.607 6.44482 249.07 6.33154C249.542 6.20882 249.967 6.1333 250.344 6.10498C250.722 6.07666 251 6.0625 251.18 6.0625H251.661C251.841 6.0625 252.114 6.07666 252.483 6.10498C252.86 6.1333 253.28 6.20882 253.743 6.33154C254.215 6.44482 254.696 6.62419 255.187 6.86963C255.678 7.10563 256.126 7.44076 256.532 7.875C256.938 8.2998 257.269 8.83317 257.524 9.4751C257.788 10.117 257.92 10.8958 257.92 11.8115V20.251C257.92 20.959 257.835 21.5915 257.665 22.1484C257.505 22.7054 257.288 23.2057 257.014 23.6494L258.43 24.9238C258.562 25.056 258.675 25.1976 258.77 25.3486C258.864 25.4902 258.911 25.7262 258.911 26.0566C258.911 26.1982 258.878 26.3634 258.812 26.5522C258.746 26.7505 258.619 26.944 258.43 27.1328C258.241 27.3027 258.052 27.416 257.863 27.4727C257.684 27.5293 257.514 27.5576 257.354 27.5576C257.023 27.5576 256.773 27.5104 256.603 27.416C256.433 27.3311 256.296 27.2367 256.193 27.1328L254.607 25.6318C254.248 25.7546 253.913 25.849 253.601 25.915C253.299 25.9811 253.021 26.0283 252.766 26.0566C252.52 26.085 252.303 26.0991 252.114 26.0991C251.926 26.1086 251.775 26.1133 251.661 26.1133H251.18C251 26.1133 250.722 26.0991 250.344 26.0708C249.967 26.0425 249.542 25.967 249.07 25.8442C248.607 25.7215 248.126 25.5374 247.626 25.292C247.135 25.0371 246.682 24.6925 246.266 24.2583C245.86 23.8241 245.525 23.2812 245.261 22.6299C244.997 21.9785 244.864 21.1855 244.864 20.251V11.8115ZM249.566 20.7891C249.584 21.1383 249.665 21.4451 249.806 21.7095C249.929 21.9455 250.113 22.1579 250.359 22.3467C250.613 22.5355 250.972 22.6299 251.435 22.6299C251.888 22.6299 252.237 22.5355 252.483 22.3467C252.728 22.1579 252.912 21.9455 253.035 21.7095C253.167 21.4451 253.247 21.1383 253.276 20.7891V11.5566C253.247 11.2168 253.167 10.9147 253.035 10.6504C252.912 10.4238 252.728 10.2161 252.483 10.0273C252.237 9.83854 251.888 9.74414 251.435 9.74414C250.972 9.74414 250.613 9.83854 250.359 10.0273C250.113 10.2161 249.929 10.4238 249.806 10.6504C249.665 10.9147 249.584 11.2168 249.566 11.5566V20.7891ZM266.302 11.1602C266.311 11.5566 266.424 11.9154 266.642 12.2363C266.868 12.5479 267.161 12.8452 267.52 13.1284C267.888 13.4116 268.303 13.6901 268.766 13.9639C269.228 14.2282 269.7 14.5114 270.182 14.8135C270.672 15.1061 271.149 15.4271 271.612 15.7764C272.074 16.1257 272.49 16.5221 272.858 16.9658C273.226 17.4095 273.523 17.9098 273.75 18.4668C273.977 19.0238 274.099 19.6562 274.118 20.3643V20.4775C274.118 21.2516 274.024 21.9266 273.835 22.5024C273.646 23.0783 273.396 23.5739 273.084 23.9893C272.773 24.4046 272.409 24.7492 271.994 25.0229C271.579 25.2873 271.14 25.4997 270.677 25.6602C270.224 25.8206 269.762 25.9339 269.29 26C268.827 26.0661 268.388 26.1038 267.973 26.1133H267.831C267.029 26.1133 266.325 26.033 265.721 25.8726C265.117 25.7121 264.598 25.4997 264.164 25.2354C263.729 24.9616 263.366 24.6501 263.073 24.3008C262.79 23.9515 262.563 23.5928 262.394 23.2246C262.224 22.847 262.101 22.4741 262.025 22.106C261.95 21.7378 261.912 21.3932 261.912 21.0723C261.912 20.7419 261.969 20.4539 262.082 20.2085C262.195 19.9631 262.342 19.7648 262.521 19.6138C262.71 19.4533 262.922 19.3353 263.158 19.2598C263.404 19.1842 263.658 19.1465 263.923 19.1465C264.168 19.1465 264.418 19.1842 264.673 19.2598C264.938 19.3353 265.174 19.4533 265.381 19.6138C265.598 19.7648 265.773 19.9631 265.905 20.2085C266.047 20.4445 266.122 20.723 266.132 21.0439C266.151 21.752 266.311 22.2381 266.613 22.5024C266.915 22.7573 267.35 22.8848 267.916 22.8848C268.199 22.8753 268.459 22.8423 268.695 22.7856C268.94 22.7196 269.148 22.611 269.318 22.46C269.488 22.2995 269.62 22.0918 269.714 21.8369C269.818 21.5726 269.87 21.2422 269.87 20.8457C269.87 20.3548 269.757 19.9111 269.53 19.5146C269.313 19.1182 269.025 18.75 268.666 18.4102C268.308 18.0703 267.897 17.7493 267.435 17.4473C266.972 17.1357 266.5 16.8289 266.019 16.5269C265.537 16.2153 265.065 15.8944 264.603 15.564C264.149 15.2241 263.739 14.856 263.371 14.4595C263.002 14.063 262.705 13.624 262.478 13.1426C262.261 12.6611 262.148 12.1136 262.139 11.5V11.2734C262.148 10.2633 262.28 9.42318 262.535 8.75293C262.799 8.08268 263.182 7.54932 263.682 7.15283C264.192 6.75635 264.815 6.47786 265.551 6.31738C266.288 6.14746 267.132 6.0625 268.086 6.0625H268.454C269.323 6.0625 270.059 6.1569 270.663 6.3457C271.267 6.53451 271.768 6.77523 272.164 7.06787C272.57 7.36051 272.886 7.69092 273.113 8.05908C273.349 8.42725 273.523 8.79069 273.637 9.14941C273.75 9.50814 273.821 9.84326 273.849 10.1548C273.877 10.4663 273.892 10.7165 273.892 10.9053C273.892 11.1885 273.835 11.4481 273.722 11.6841C273.618 11.9106 273.471 12.1042 273.283 12.2646C273.103 12.4251 272.886 12.5526 272.631 12.647C272.386 12.7319 272.117 12.7744 271.824 12.7744C271.598 12.7744 271.371 12.7319 271.145 12.647C270.918 12.5526 270.715 12.4346 270.536 12.293C270.356 12.1514 270.21 11.9909 270.097 11.8115C269.983 11.6227 269.927 11.4339 269.927 11.2451C269.927 10.471 269.785 9.93294 269.502 9.63086C269.228 9.32878 268.822 9.17773 268.284 9.17773C268.029 9.17773 267.779 9.19189 267.534 9.22021C267.298 9.24854 267.085 9.32878 266.896 9.46094C266.717 9.58366 266.571 9.77718 266.457 10.0415C266.354 10.3058 266.302 10.6787 266.302 11.1602Z" fill="white"/>
</svg>
