<?xml version="1.0" encoding="UTF-8" standalone="no"?> <!-- Created with Vectornator for iOS (http://vectornator.io/) --><!DOCTYPE svg PUBLIC "-//W3C//DTD SVG 1.1//EN" "http://www.w3.org/Graphics/SVG/1.1/DTD/svg11.dtd">
<svg style="fill-rule:evenodd;clip-rule:evenodd;stroke-linecap:round;stroke-linejoin:round;" xmlns:vectornator="http://vectornator.io" xmlns:xlink="http://www.w3.org/1999/xlink" xmlns="http://www.w3.org/2000/svg" xml:space="preserve" version="1.1" viewBox="0 0 313 76">
<metadata>
<vectornator:setting key="DynamicGuides" value="1"/>
<vectornator:setting key="Units" value="Points"/>
<vectornator:setting key="GuidesVisible" value="1"/>
<vectornator:setting key="RulersVisible" value="1"/>
<vectornator:setting key="SnapToGuides" value="1"/>
<vectornator:setting key="GridSpacing" value="36"/>
</metadata>
<defs/>
<g id="Untitled" vectornator:layerName="Untitled">
<path d="M39.5489+75.5064L69.2779+75.5064C70.0177+75.5064+70.5434+75.3507+70.8549+75.0392C71.2053+74.6887+71.3806+74.1436+71.3806+73.4038L71.3806+55.0057C71.3806+54.2659+71.2053+53.7402+70.8549+53.4287C70.5434+53.0783+70.0177+52.903+69.2779+52.903L60.809+52.903C60.0691+52.903+59.524+53.0783+59.1736+53.4287C58.8621+53.7402+58.7063+54.2659+58.7063+55.0057L58.7063+64.4675L50.7046+64.4675L50.7046+35.5563C50.7046+34.8164+50.5294+34.2908+50.1789+33.9793C49.8674+33.6288+49.3418+33.4536+48.602+33.4536L39.5489+33.4536C38.8091+33.4536+38.264+33.6288+37.9135+33.9793C37.602+34.2908+37.4463+34.8164+37.4463+35.5563L37.4463+73.4038C37.4463+74.1436+37.602+74.6887+37.9135+75.0392C38.264+75.3507+38.8091+75.5064+39.5489+75.5064ZM65.3063+70.2498L43.8126+70.2498L43.8126+38.7102L44.3967+38.7102L44.3967+69.6657L64.7222+69.6657L64.7222+58.1596L65.3063+58.1596L65.3063+70.2498ZM80.1598+75.5064L107.26+75.5064C108+75.5064+108.526+75.3507+108.837+75.0392C109.188+74.6887+109.363+74.1436+109.363+73.4038L109.363+66.5702C109.363+65.8304+109.188+65.3047+108.837+64.9932C108.526+64.6428+108+64.4675+107.26+64.4675L91.1403+64.4675L91.1403+59.4446L102.53+59.4446C103.269+59.4446+103.795+59.2888+104.107+58.9773C104.457+58.6269+104.632+58.0818+104.632+57.3419L104.632+51.0924C104.632+50.3526+104.457+49.8269+104.107+49.5154C103.795+49.165+103.269+48.9898+102.53+48.9898L91.1403+48.9898L91.1403+44.4925L107.26+44.4925C108+44.4925+108.526+44.3367+108.837+44.0252C109.188+43.6748+109.363+43.1296+109.363+42.3898L109.363+35.5563C109.363+34.8164+109.188+34.2908+108.837+33.9793C108.526+33.6288+108+33.4536+107.26+33.4536L80.1598+33.4536C79.42+33.4536+78.8749+33.6288+78.5244+33.9793C78.2129+34.2908+78.0572+34.8164+78.0572+35.5563L78.0572+73.4038C78.0572+74.1436+78.2129+74.6887+78.5244+75.0392C78.8749+75.3507+79.42+75.5064+80.1598+75.5064ZM85.0076+69.6657L104.107+69.6657L104.107+70.2498L84.4235+70.2498L84.4235+38.7102L104.107+38.7102L104.107+39.2943L85.0076+39.2943L85.0076+53.9544L99.3756+53.9544L99.3756+54.5384L85.0076+54.5384L85.0076+69.6657ZM122.172+57.8092C122.172+56.7579+122.249+55.7844+122.405+54.8889C122.6+53.9933+122.833+53.1561+123.106+52.3774L126.844+42.7987C127.233+41.8252+127.662+41.0075+128.129+40.3456C128.596+39.6447+129.414+39.2943+130.582+39.2943L136.306+39.2943C137.396+39.2943+138.175+39.6447+138.642+40.3456C139.109+41.0075+139.557+41.8447+139.986+42.8571L144.016+52.3774C144.288+53.1561+144.502+53.9933+144.658+54.8889C144.853+55.7844+144.95+56.7579+144.95+57.8092L144.95+59.6198L122.172+59.6198L122.172+57.8092ZM131.517+45.719L128.771+54.5968L137.941+54.5968L135.196+45.719C135.04+45.3686+134.865+45.1155+134.671+44.9597C134.515+44.804+134.32+44.7261+134.086+44.7261L132.626+44.7261C132.393+44.7261+132.179+44.804+131.984+44.9597C131.828+45.1155+131.672+45.3686+131.517+45.719ZM144.95+70.2498L145.534+70.2498L145.534+57.8092C145.534+56.7189+145.437+55.726+145.242+54.8305C145.086+53.8959+144.853+53.0004+144.541+52.1437L140.511+42.6235C140.044+41.4943+139.538+40.5598+138.993+39.8199C138.486+39.0801+137.591+38.7102+136.306+38.7102L130.582+38.7102C129.258+38.7102+128.324+39.0801+127.779+39.8199C127.233+40.5598+126.747+41.4748+126.318+42.5651L122.58+52.1437C122.269+53.0004+122.016+53.8959+121.821+54.8305C121.665+55.726+121.587+56.7189+121.587+57.8092L121.587+70.2498L122.172+70.2498L122.172+60.2039L144.95+60.2039L144.95+70.2498ZM128.187+73.4038C128.187+74.1436+128.012+74.6887+127.662+75.0392C127.35+75.3507+126.825+75.5064+126.085+75.5064L117.499+75.5064C116.759+75.5064+116.214+75.3507+115.864+75.0392C115.552+74.6887+115.396+74.1436+115.396+73.4038L115.396+57.9844C115.396+56.8163+115.572+55.4729+115.922+53.9544C116.311+52.4358+116.895+50.6641+117.674+48.6393L122.756+35.381C122.989+34.7191+123.34+34.2324+123.807+33.9209C124.313+33.6094+124.956+33.4536+125.734+33.4536L141.446+33.4536C142.186+33.4536+142.789+33.6094+143.256+33.9209C143.763+34.2324+144.132+34.7191+144.366+35.381L149.447+48.6393C150.226+50.6641+150.791+52.4358+151.141+53.9544C151.531+55.4729+151.725+56.8163+151.725+57.9844L151.725+73.4038C151.725+74.1436+151.55+74.6887+151.2+75.0392C150.888+75.3507+150.362+75.5064+149.623+75.5064L140.803+75.5064C140.024+75.5064+139.44+75.3507+139.051+75.0392C138.701+74.6887+138.525+74.1436+138.525+73.4038L138.525+65.2268L128.187+65.2268L128.187+73.4038ZM161.039+75.5064L170.092+75.5064C170.832+75.5064+171.358+75.3507+171.669+75.0392C172.02+74.6887+172.195+74.1436+172.195+73.4038L172.195+63.7083L178.912+63.7083C184.207+63.7083+187.829+62.6569+189.775+60.5543C191.722+58.4517+192.696+55.7066+192.696+52.319L192.696+44.8429C192.696+41.4553+191.722+38.7102+189.775+36.6076C187.829+34.5049+184.207+33.4536+178.912+33.4536L161.039+33.4536C160.3+33.4536+159.754+33.6288+159.404+33.9793C159.092+34.2908+158.937+34.8164+158.937+35.5563L158.937+73.4038C158.937+74.1436+159.092+74.6887+159.404+75.0392C159.754+75.3507+160.3+75.5064+161.039+75.5064ZM182.533+58.1596C181.404+58.549+179.924+58.7437+178.094+58.7437L166.062+58.7437L166.062+70.2498L165.478+70.2498L165.478+38.7102L178.094+38.7102C179.924+38.7102+181.404+38.9244+182.533+39.3527C183.701+39.7421+184.597+40.2872+185.22+40.9881C185.843+41.689+186.271+42.5261+186.505+43.4996C186.738+44.473+186.855+45.5243+186.855+46.6535L186.855+50.9756C186.855+52.1048+186.738+53.1561+186.505+54.1296C186.271+55.0641+185.843+55.8818+185.22+56.5827C184.597+57.2446+183.701+57.7703+182.533+58.1596ZM166.062+39.2943L166.062+58.1596L178.094+58.1596C179.807+58.1596+181.19+57.9844+182.241+57.634C183.331+57.2835+184.168+56.7968+184.752+56.1738C185.337+55.5119+185.726+54.7526+185.921+53.8959C186.154+53.0004+186.271+52.0269+186.271+50.9756L186.271+46.6535C186.271+45.6022+186.154+44.6288+185.921+43.7332C185.726+42.8376+185.337+42.0589+184.752+41.3969C184.168+40.735+183.331+40.2288+182.241+39.8783C181.19+39.489+179.807+39.2943+178.094+39.2943L166.062+39.2943ZM172.078+53.1951L172.078+44.3757L177.335+44.3757C178.464+44.3757+179.204+44.6677+179.554+45.2518C179.905+45.8358+180.08+46.4978+180.08+47.2376L180.08+50.3331C180.08+51.073+179.905+51.7349+179.554+52.319C179.204+52.903+178.464+53.1951+177.335+53.1951L172.078+53.1951ZM205.057+70.2498L205.641+70.2498L205.641+54.772L228.069+54.772L228.069+70.2498L228.653+70.2498L228.653+38.7102L228.069+38.7102L228.069+54.188L205.641+54.188L205.641+38.7102L205.057+38.7102L205.057+70.2498ZM209.905+75.5064L200.852+75.5064C200.112+75.5064+199.567+75.3507+199.216+75.0392C198.905+74.6887+198.749+74.1436+198.749+73.4038L198.749+35.5563C198.749+34.8164+198.905+34.2908+199.216+33.9793C199.567+33.6288+200.112+33.4536+200.852+33.4536L209.905+33.4536C210.645+33.4536+211.17+33.6288+211.482+33.9793C211.832+34.2908+212.007+34.8164+212.007+35.5563L212.007+48.2305L221.761+48.2305L221.761+35.5563C221.761+34.8164+221.917+34.2908+222.229+33.9793C222.579+33.6288+223.124+33.4536+223.864+33.4536L232.917+33.4536C233.657+33.4536+234.182+33.6288+234.494+33.9793C234.844+34.2908+235.02+34.8164+235.02+35.5563L235.02+73.4038C235.02+74.1436+234.844+74.6887+234.494+75.0392C234.182+75.3507+233.657+75.5064+232.917+75.5064L223.864+75.5064C223.124+75.5064+222.579+75.3507+222.229+75.0392C221.917+74.6887+221.761+74.1436+221.761+73.4038L221.761+60.4375L212.007+60.4375L212.007+73.4038C212.007+74.1436+211.832+74.6887+211.482+75.0392C211.17+75.3507+210.645+75.5064+209.905+75.5064ZM254.924+75.5064L264.386+75.5064C265.126+75.5064+265.651+75.3507+265.963+75.0392C266.313+74.6887+266.488+74.1436+266.488+73.4038L266.488+69.3307C277.192+77.1681+291.674+75.7057+301+63.3145L300.972+63.3155C300.717+63.3169+298.557+63.1823+288.95+59.0474C275.975+53.4645+270.624+68.0256+270.624+68.0256L270.702+68.0682C271.676+68.5928+281.651+73.6729+290.864+67.0597L290.798+67.1214C289.966+67.8849+281.349+75.3752+269.322+69.5971C268.457+69.1819+267.481+68.6339+266.488+68.001L266.488+65.9861L275.366+53.9544C276.223+52.7473+276.807+51.696+277.118+50.8004C277.43+49.9048+277.586+48.5615+277.586+46.7703L277.586+35.5563C277.586+34.8164+277.411+34.2908+277.06+33.9793C276.749+33.6288+276.223+33.4536+275.483+33.4536L266.781+33.4536C266.041+33.4536+265.496+33.6288+265.145+33.9793C264.834+34.2908+264.678+34.8164+264.678+35.5563L264.678+45.1349C264.678+45.5243+264.658+45.9332+264.619+46.3615C264.581+46.7898+264.425+47.1986+264.152+47.588L261.465+51.7933C261.271+52.1437+261.057+52.3968+260.823+52.5526C260.628+52.7083+260.375+52.7862+260.064+52.7862L259.48+52.7862C259.168+52.7862+258.896+52.7083+258.662+52.5526C258.467+52.3968+258.273+52.1437+258.078+51.7933L255.391+47.588C255.119+47.1986+254.963+46.7898+254.924+46.3615C254.885+45.9332+254.866+45.5243+254.866+45.1349L254.866+35.5563C254.866+34.8164+254.69+34.2908+254.34+33.9793C254.028+33.6288+253.503+33.4536+252.763+33.4536L243.768+33.4536C243.028+33.4536+242.483+33.6288+242.133+33.9793C241.821+34.2908+241.666+34.8164+241.666+35.5563L241.666+46.7703C241.666+48.5615+241.802+49.9048+242.074+50.8004C242.386+51.696+242.99+52.7473+243.885+53.9544L252.821+65.9277L252.821+73.4038C252.821+74.1436+252.977+74.6887+253.289+75.0392C253.639+75.3507+254.184+75.5064+254.924+75.5064ZM262.692+59.6782C262.03+60.0676+261.251+60.2623+260.356+60.2623L259.947+60.2623L259.947+70.2498L259.363+70.2498L259.363+60.2623L258.779+60.2623C257.922+60.2623+257.143+60.0676+256.443+59.6782C255.781+59.2888+255.138+58.6658+254.515+57.8092L248.85+49.9243C248.421+49.3402+248.168+48.6588+248.09+47.8801C248.012+47.1013+247.974+46.2836+247.974+45.427L247.974+38.7102L248.558+38.7102L248.558+45.427C248.558+46.2447+248.597+47.0234+248.674+47.7632C248.752+48.4641+248.986+49.1066+249.375+49.6907L255.041+57.5756C255.547+58.3543+256.131+58.8995+256.793+59.211C257.455+59.5225+258.117+59.6782+258.779+59.6782L260.356+59.6782C261.096+59.6782+261.758+59.5225+262.342+59.211C262.965+58.8605+263.568+58.3154+264.152+57.5756L269.993+49.6907C270.382+49.1845+270.616+48.5615+270.694+47.8216C270.772+47.0429+270.811+46.2447+270.811+45.427L270.811+38.7102L271.395+38.7102L271.395+45.427C271.395+46.2836+271.356+47.1013+271.278+47.8801C271.239+48.6199+270.986+49.3013+270.519+49.9243L264.678+57.8092C264.055+58.6658+263.393+59.2888+262.692+59.6782Z" fill-rule="evenodd" fill="#d4d4d4" opacity="1"/>
<path d="M114.674+15.979C114.674+17.0177+114.332+17.784+113.648+18.278C112.977+18.7593+112.305+19+111.634+19L108.442+19C107.771+19+107.118+18.7593+106.485+18.278C106.181+18.0247+105.947+17.708+105.782+17.328C105.617+16.9353+105.535+16.4857+105.535+15.979L105.535+10.564C105.535+9.538+105.852+8.778+106.485+8.284C106.802+8.056+107.125+7.87867+107.454+7.752C107.796+7.61267+108.125+7.543+108.442+7.543L111.634+7.543C111.938+7.543+112.274+7.60633+112.641+7.733C113.008+7.847+113.35+8.00533+113.667+8.208C113.971+8.42333+114.212+8.721+114.389+9.101C114.579+9.481+114.674+9.93067+114.674+10.45L114.674+11.4C114.674+12.008+114.326+12.312+113.629+12.312C112.932+12.312+112.584+12.008+112.584+11.4L112.584+10.583C112.584+10.2663+112.483+9.98133+112.28+9.728C112.09+9.462+111.761+9.329+111.292+9.329L108.917+9.329C108.448+9.329+108.113+9.462+107.91+9.728C107.72+9.98133+107.625+10.2663+107.625+10.583L107.625+15.96C107.625+16.264+107.72+16.549+107.91+16.815C108.113+17.081+108.448+17.214+108.917+17.214L111.292+17.214C111.761+17.214+112.09+17.081+112.28+16.815C112.483+16.549+112.584+16.264+112.584+15.96L112.584+15.086C112.584+14.4907+112.932+14.193+113.629+14.193C114.326+14.193+114.674+14.4907+114.674+15.086L114.674+15.979ZM119.679+18.202C119.679+18.81+119.331+19.114+118.634+19.114C117.912+19.114+117.551+18.81+117.551+18.202L117.551+10.336C117.551+9.29733+117.862+8.57533+118.482+8.17C119.103+7.76467+119.819+7.562+120.629+7.562L122.795+7.562C123.264+7.562+123.498+7.85967+123.498+8.455C123.524+9.05033+123.289+9.348+122.795+9.348L120.781+9.348C120.325+9.348+120.028+9.43667+119.888+9.614C119.749+9.79133+119.679+10.0383+119.679+10.355L119.679+18.202ZM127.765+15.96C127.765+16.264+127.86+16.549+128.05+16.815C128.253+17.081+128.588+17.214+129.057+17.214L131.432+17.214C131.901+17.214+132.23+17.1+132.42+16.872C132.623+16.6313+132.724+16.359+132.724+16.055L132.724+15.846C132.724+15.2507+133.072+14.953+133.769+14.953C134.466+14.953+134.814+15.2507+134.814+15.846L134.814+16.074C134.814+16.606+134.725+17.043+134.548+17.385C134.383+17.727+134.13+18.0247+133.788+18.278C133.117+18.7593+132.445+19+131.774+19L128.582+19C127.911+19+127.258+18.7593+126.625+18.278C126.321+18.0247+126.087+17.708+125.922+17.328C125.757+16.9353+125.675+16.4857+125.675+15.979L125.675+10.564C125.675+9.538+125.992+8.778+126.625+8.284C126.942+8.056+127.265+7.87867+127.594+7.752C127.936+7.61267+128.265+7.543+128.582+7.543L131.774+7.543C132.078+7.543+132.414+7.60633+132.781+7.733C133.148+7.847+133.49+8.00533+133.807+8.208C134.111+8.42333+134.352+8.721+134.529+9.101C134.719+9.481+134.814+9.93067+134.814+10.45L134.814+13.015C134.814+13.3063+134.725+13.566+134.548+13.794C134.383+14.022+134.073+14.136+133.617+14.136L129.513+14.136C129.057+14.136+128.816+13.8383+128.791+13.243C128.791+12.6477+129.032+12.35+129.513+12.35L132.743+12.35L132.724+10.583C132.724+10.2663+132.623+9.98133+132.42+9.728C132.23+9.462+131.901+9.329+131.432+9.329L129.057+9.329C128.588+9.329+128.253+9.462+128.05+9.728C127.86+9.98133+127.765+10.2663+127.765+10.583L127.765+15.96ZM140.674+19C140.281+19+139.907+18.9493+139.553+18.848C139.198+18.734+138.856+18.5757+138.527+18.373L138.527+18.392C137.906+17.9993+137.596+17.2773+137.596+16.226L137.596+15.295C137.596+14.7757+137.684+14.326+137.862+13.946C138.052+13.5533+138.311+13.243+138.641+13.015L138.622+13.015C138.938+12.7997+139.274+12.6413+139.629+12.54C139.983+12.426+140.325+12.369+140.655+12.369L144.854+12.369L144.854+10.602C144.854+10.2853+144.752+10.0003+144.55+9.747C144.36+9.481+144.03+9.348+143.562+9.348L141.339+9.348C140.857+9.348+140.522+9.46833+140.332+9.709C140.154+9.937+140.066+10.2093+140.066+10.526L140.066+10.678C140.066+11.3367+139.711+11.666+139.002+11.666C138.292+11.666+137.938+11.3367+137.938+10.678L137.938+10.507C137.938+9.98767+138.026+9.55067+138.204+9.196C138.394+8.84133+138.647+8.54367+138.964+8.303L138.945+8.303C139.274+8.08767+139.616+7.91033+139.971+7.771C140.338+7.63167+140.686+7.562+141.016+7.562L143.904+7.562C144.22+7.562+144.556+7.63167+144.911+7.771C145.278+7.91033+145.62+8.08767+145.937+8.303L145.918+8.303C146.247+8.54367+146.5+8.86033+146.678+9.253C146.855+9.633+146.944+10.0763+146.944+10.583L146.944+18.202C146.944+18.81+146.595+19.114+145.899+19.114C145.759+19.114+145.626+19.1077+145.5+19.095C145.386+19.0823+145.278+19.0507+145.177+19C145.088+18.9367+145.012+18.8543+144.949+18.753C144.898+18.639+144.873+18.4933+144.873+18.316L144.854+14.155L141.016+14.155C140.737+14.155+140.522+14.1867+140.37+14.25C140.218+14.3133+140.097+14.4147+140.009+14.554C139.907+14.7693+139.831+14.9403+139.781+15.067C139.743+15.181+139.724+15.314+139.724+15.466L139.724+16.207C139.724+16.5363+139.819+16.7897+140.009+16.967C140.211+17.1317+140.553+17.214+141.035+17.214L143.163+17.214C143.631+17.214+143.866+17.5117+143.866+18.107C143.866+18.3603+143.809+18.5757+143.695+18.753C143.581+18.9177+143.403+19+143.163+19L140.674+19ZM152.46+9.348L152.46+16.264C152.46+16.5933+152.53+16.8467+152.669+17.024C152.809+17.2013+153.106+17.29+153.562+17.29L154.056+17.29C154.55+17.29+154.785+17.5813+154.759+18.164C154.759+18.7593+154.525+19.057+154.056+19.057L153.429+19.057C153.024+19.057+152.644+19.0063+152.289+18.905C151.935+18.791+151.593+18.6327+151.263+18.43L151.263+18.449C150.643+18.0437+150.332+17.3217+150.332+16.283L150.332+9.348L149.591+9.348C149.135+9.348+148.895+9.05033+148.869+8.455C148.869+7.85967+149.11+7.562+149.591+7.562L150.332+7.562L150.332+5.529C150.332+4.921+150.693+4.617+151.415+4.617C152.112+4.617+152.46+4.921+152.46+5.529L152.46+7.562L154.037+7.562C154.531+7.562+154.766+7.85967+154.74+8.455C154.74+9.05033+154.506+9.348+154.037+9.348L152.46+9.348ZM159.07+15.96C159.07+16.264+159.165+16.549+159.355+16.815C159.557+17.081+159.893+17.214+160.362+17.214L162.737+17.214C163.205+17.214+163.535+17.1+163.725+16.872C163.927+16.6313+164.029+16.359+164.029+16.055L164.029+15.846C164.029+15.2507+164.377+14.953+165.074+14.953C165.77+14.953+166.119+15.2507+166.119+15.846L166.119+16.074C166.119+16.606+166.03+17.043+165.853+17.385C165.688+17.727+165.435+18.0247+165.093+18.278C164.421+18.7593+163.75+19+163.079+19L159.887+19C159.215+19+158.563+18.7593+157.93+18.278C157.626+18.0247+157.391+17.708+157.227+17.328C157.062+16.9353+156.98+16.4857+156.98+15.979L156.98+10.564C156.98+9.538+157.296+8.778+157.93+8.284C158.246+8.056+158.569+7.87867+158.899+7.752C159.241+7.61267+159.57+7.543+159.887+7.543L163.079+7.543C163.383+7.543+163.718+7.60633+164.086+7.733C164.453+7.847+164.795+8.00533+165.112+8.208C165.416+8.42333+165.656+8.721+165.834+9.101C166.024+9.481+166.119+9.93067+166.119+10.45L166.119+13.015C166.119+13.3063+166.03+13.566+165.853+13.794C165.688+14.022+165.378+14.136+164.922+14.136L160.818+14.136C160.362+14.136+160.121+13.8383+160.096+13.243C160.096+12.6477+160.336+12.35+160.818+12.35L164.048+12.35L164.029+10.583C164.029+10.2663+163.927+9.98133+163.725+9.728C163.535+9.462+163.205+9.329+162.737+9.329L160.362+9.329C159.893+9.329+159.557+9.462+159.355+9.728C159.165+9.98133+159.07+10.2663+159.07+10.583L159.07+15.96ZM176.158+9.348L172.491+9.348C171.972+9.348+171.63+9.5+171.465+9.804C171.288+10.07+171.199+10.3803+171.199+10.735L171.199+16.207C171.199+16.5363+171.301+16.7897+171.503+16.967C171.706+17.1317+172.042+17.214+172.51+17.214L174.467+17.214C174.923+17.214+175.151+17.5117+175.151+18.107C175.151+18.3603+175.094+18.5757+174.98+18.753C174.879+18.9177+174.708+19+174.467+19L172.168+19C171.37+19+170.661+18.7973+170.04+18.392C169.42+18.012+169.109+17.29+169.109+16.226L169.109+10.564C169.109+10.0447+169.192+9.595+169.356+9.215C169.521+8.835+169.781+8.52467+170.135+8.284C170.807+7.80267+171.478+7.562+172.149+7.562L176.158+7.562L176.158+4.712C176.158+4.104+176.507+3.8+177.203+3.8C177.9+3.8+178.248+4.104+178.248+4.712L178.248+18.202C178.248+18.81+177.9+19.114+177.203+19.114C176.937+19.114+176.697+19.0697+176.481+18.981C176.266+18.8797+176.158+18.6643+176.158+18.335L176.158+9.348ZM189.669+18.202C189.669+18.506+189.561+18.734+189.346+18.886C189.131+19.038+188.896+19.114+188.643+19.114C187.946+19.114+187.598+18.81+187.598+18.202L187.598+4.712C187.598+4.104+187.946+3.8+188.643+3.8C189.34+3.8+189.688+4.104+189.688+4.712L189.688+7.562L193.697+7.562C194.343+7.562+195.014+7.80267+195.711+8.284C196.395+8.76533+196.737+9.52533+196.737+10.564L196.737+16.226C196.737+17.2773+196.427+17.9993+195.806+18.392C195.185+18.7973+194.476+19+193.678+19L191.436+19C190.98+19+190.739+18.7023+190.714+18.107C190.714+17.5117+190.955+17.214+191.436+17.214L193.336+17.214C193.805+17.214+194.14+17.1317+194.343+16.967C194.546+16.7897+194.647+16.5363+194.647+16.207L194.647+10.735C194.647+10.4057+194.546+10.089+194.343+9.785L194.362+9.804C194.197+9.5+193.862+9.348+193.355+9.348L189.688+9.348L189.669+18.202ZM200.243+21.66C199.799+21.66+199.565+21.3623+199.54+20.767C199.54+20.1717+199.774+19.874+200.243+19.874L201.079+19.874C201.522+19.874+201.813+19.741+201.953+19.475L202.219+18.772L202.314+18.468L198.609+8.759L198.609+8.778C198.507+8.474+198.526+8.21433+198.666+7.999C198.818+7.78367+199.046+7.62533+199.35+7.524C199.578+7.46067+199.761+7.429+199.901+7.429C200.268+7.429+200.496+7.64433+200.585+8.075L202.086+11.818L203.359+14.934L205.392+8.113C205.506+7.657+205.772+7.429+206.19+7.429C206.291+7.429+206.456+7.46067+206.684+7.524C206.988+7.61267+207.203+7.75833+207.33+7.961C207.469+8.16367+207.501+8.40433+207.425+8.683C206.855+10.621+206.272+12.5717+205.677+14.535C205.094+16.4983+204.518+18.4427+203.948+20.368C203.884+20.5073+203.783+20.6467+203.644+20.786C203.517+20.938+203.346+21.0773+203.131+21.204C202.915+21.3433+202.649+21.451+202.333+21.527C202.016+21.6157+201.649+21.66+201.231+21.66L200.243+21.66Z" opacity="1" fill="#d4d4d4"/>
</g>
</svg>
