<svg width="313" height="76" viewBox="0 0 313 76"  fill="none"  xmlns="http://www.w3.org/2000/svg">
  <path fill-rule="evenodd" clip-rule="evenodd" d="M39.5489 75.5064H69.2779C70.0177 75.5064 70.5434 75.3507 70.8549 75.0392C71.2053 74.6887 71.3806 74.1436 71.3806 73.4038V55.0057C71.3806 54.2659 71.2053 53.7402 70.8549 53.4287C70.5434 53.0783 70.0177 52.903 69.2779 52.903H60.809C60.0691 52.903 59.524 53.0783 59.1736 53.4287C58.8621 53.7402 58.7063 54.2659 58.7063 55.0057V64.4675H50.7046V35.5563C50.7046 34.8164 50.5294 34.2908 50.1789 33.9793C49.8674 33.6288 49.3418 33.4536 48.602 33.4536H39.5489C38.8091 33.4536 38.264 33.6288 37.9135 33.9793C37.602 34.2908 37.4463 34.8164 37.4463 35.5563V73.4038C37.4463 74.1436 37.602 74.6887 37.9135 75.0392C38.264 75.3507 38.8091 75.5064 39.5489 75.5064ZM65.3063 70.2498H43.8126V38.7102H44.3967V69.6657H64.7222V58.1596H65.3063V70.2498ZM80.1598 75.5064H107.26C108 75.5064 108.526 75.3507 108.837 75.0392C109.188 74.6887 109.363 74.1436 109.363 73.4038V66.5702C109.363 65.8304 109.188 65.3047 108.837 64.9932C108.526 64.6428 108 64.4675 107.26 64.4675H91.1403V59.4446H102.53C103.269 59.4446 103.795 59.2888 104.107 58.9773C104.457 58.6269 104.632 58.0818 104.632 57.3419V51.0924C104.632 50.3526 104.457 49.8269 104.107 49.5154C103.795 49.165 103.269 48.9898 102.53 48.9898H91.1403V44.4925H107.26C108 44.4925 108.526 44.3367 108.837 44.0252C109.188 43.6748 109.363 43.1296 109.363 42.3898V35.5563C109.363 34.8164 109.188 34.2908 108.837 33.9793C108.526 33.6288 108 33.4536 107.26 33.4536H80.1598C79.42 33.4536 78.8749 33.6288 78.5244 33.9793C78.2129 34.2908 78.0572 34.8164 78.0572 35.5563V73.4038C78.0572 74.1436 78.2129 74.6887 78.5244 75.0392C78.8749 75.3507 79.42 75.5064 80.1598 75.5064ZM85.0076 69.6657H104.107V70.2498H84.4235V38.7102H104.107V39.2943H85.0076V53.9544H99.3756V54.5384H85.0076V69.6657ZM122.172 57.8092C122.172 56.7579 122.249 55.7844 122.405 54.8889C122.6 53.9933 122.833 53.1561 123.106 52.3774L126.844 42.7987C127.233 41.8252 127.662 41.0075 128.129 40.3456C128.596 39.6447 129.414 39.2943 130.582 39.2943H136.306C137.396 39.2943 138.175 39.6447 138.642 40.3456C139.109 41.0075 139.557 41.8447 139.986 42.8571L144.016 52.3774C144.288 53.1561 144.502 53.9933 144.658 54.8889C144.853 55.7844 144.95 56.7579 144.95 57.8092V59.6198H122.172V57.8092ZM131.517 45.719L128.771 54.5968H137.941L135.196 45.719C135.04 45.3686 134.865 45.1155 134.671 44.9597C134.515 44.804 134.32 44.7261 134.086 44.7261H132.626C132.393 44.7261 132.179 44.804 131.984 44.9597C131.828 45.1155 131.672 45.3686 131.517 45.719ZM144.95 70.2498H145.534V57.8092C145.534 56.7189 145.437 55.726 145.242 54.8305C145.086 53.8959 144.853 53.0004 144.541 52.1437L140.511 42.6235C140.044 41.4943 139.538 40.5598 138.993 39.8199C138.486 39.0801 137.591 38.7102 136.306 38.7102H130.582C129.258 38.7102 128.324 39.0801 127.779 39.8199C127.233 40.5598 126.747 41.4748 126.318 42.5651L122.58 52.1437C122.269 53.0004 122.016 53.8959 121.821 54.8305C121.665 55.726 121.587 56.7189 121.587 57.8092V70.2498H122.172V60.2039H144.95V70.2498ZM128.187 73.4038C128.187 74.1436 128.012 74.6887 127.662 75.0392C127.35 75.3507 126.825 75.5064 126.085 75.5064H117.499C116.759 75.5064 116.214 75.3507 115.864 75.0392C115.552 74.6887 115.396 74.1436 115.396 73.4038V57.9844C115.396 56.8163 115.572 55.4729 115.922 53.9544C116.311 52.4358 116.895 50.6641 117.674 48.6393L122.756 35.381C122.989 34.7191 123.34 34.2324 123.807 33.9209C124.313 33.6094 124.956 33.4536 125.734 33.4536H141.446C142.186 33.4536 142.789 33.6094 143.256 33.9209C143.763 34.2324 144.132 34.7191 144.366 35.381L149.447 48.6393C150.226 50.6641 150.791 52.4358 151.141 53.9544C151.531 55.4729 151.725 56.8163 151.725 57.9844V73.4038C151.725 74.1436 151.55 74.6887 151.2 75.0392C150.888 75.3507 150.362 75.5064 149.623 75.5064H140.803C140.024 75.5064 139.44 75.3507 139.051 75.0392C138.701 74.6887 138.525 74.1436 138.525 73.4038V65.2268H128.187V73.4038ZM161.039 75.5064H170.092C170.832 75.5064 171.358 75.3507 171.669 75.0392C172.02 74.6887 172.195 74.1436 172.195 73.4038V63.7083H178.912C184.207 63.7083 187.829 62.6569 189.775 60.5543C191.722 58.4517 192.696 55.7066 192.696 52.319V44.8429C192.696 41.4553 191.722 38.7102 189.775 36.6076C187.829 34.5049 184.207 33.4536 178.912 33.4536H161.039C160.3 33.4536 159.754 33.6288 159.404 33.9793C159.092 34.2908 158.937 34.8164 158.937 35.5563V73.4038C158.937 74.1436 159.092 74.6887 159.404 75.0392C159.754 75.3507 160.3 75.5064 161.039 75.5064ZM182.533 58.1596C181.404 58.549 179.924 58.7437 178.094 58.7437H166.062V70.2498H165.478V38.7102H178.094C179.924 38.7102 181.404 38.9244 182.533 39.3527C183.701 39.7421 184.597 40.2872 185.22 40.9881C185.843 41.689 186.271 42.5261 186.505 43.4996C186.738 44.473 186.855 45.5243 186.855 46.6535V50.9756C186.855 52.1048 186.738 53.1561 186.505 54.1296C186.271 55.0641 185.843 55.8818 185.22 56.5827C184.597 57.2446 183.701 57.7703 182.533 58.1596ZM166.062 39.2943V58.1596H178.094C179.807 58.1596 181.19 57.9844 182.241 57.634C183.331 57.2835 184.168 56.7968 184.752 56.1738C185.337 55.5119 185.726 54.7526 185.921 53.8959C186.154 53.0004 186.271 52.0269 186.271 50.9756V46.6535C186.271 45.6022 186.154 44.6288 185.921 43.7332C185.726 42.8376 185.337 42.0589 184.752 41.3969C184.168 40.735 183.331 40.2288 182.241 39.8783C181.19 39.489 179.807 39.2943 178.094 39.2943H166.062ZM172.078 53.1951V44.3757H177.335C178.464 44.3757 179.204 44.6677 179.554 45.2518C179.905 45.8358 180.08 46.4978 180.08 47.2376V50.3331C180.08 51.073 179.905 51.7349 179.554 52.319C179.204 52.903 178.464 53.1951 177.335 53.1951H172.078ZM205.057 70.2498H205.641V54.772H228.069V70.2498H228.653V38.7102H228.069V54.188H205.641V38.7102H205.057V70.2498ZM209.905 75.5064H200.852C200.112 75.5064 199.567 75.3507 199.216 75.0392C198.905 74.6887 198.749 74.1436 198.749 73.4038V35.5563C198.749 34.8164 198.905 34.2908 199.216 33.9793C199.567 33.6288 200.112 33.4536 200.852 33.4536H209.905C210.645 33.4536 211.17 33.6288 211.482 33.9793C211.832 34.2908 212.007 34.8164 212.007 35.5563V48.2305H221.761V35.5563C221.761 34.8164 221.917 34.2908 222.229 33.9793C222.579 33.6288 223.124 33.4536 223.864 33.4536H232.917C233.657 33.4536 234.182 33.6288 234.494 33.9793C234.844 34.2908 235.02 34.8164 235.02 35.5563V73.4038C235.02 74.1436 234.844 74.6887 234.494 75.0392C234.182 75.3507 233.657 75.5064 232.917 75.5064H223.864C223.124 75.5064 222.579 75.3507 222.229 75.0392C221.917 74.6887 221.761 74.1436 221.761 73.4038V60.4375H212.007V73.4038C212.007 74.1436 211.832 74.6887 211.482 75.0392C211.17 75.3507 210.645 75.5064 209.905 75.5064ZM254.924 75.5064H264.386C265.126 75.5064 265.651 75.3507 265.963 75.0392C266.313 74.6887 266.488 74.1436 266.488 73.4038V69.3307C277.192 77.1681 291.674 75.7057 301 63.3145L300.972 63.3155C300.717 63.3169 298.557 63.1823 288.95 59.0474C275.975 53.4645 270.624 68.0256 270.624 68.0256L270.702 68.0682C271.676 68.5928 281.651 73.6729 290.864 67.0597L290.798 67.1214C289.966 67.8849 281.349 75.3752 269.322 69.5971C268.457 69.1819 267.481 68.6339 266.488 68.001V65.9861L275.366 53.9544C276.223 52.7473 276.807 51.696 277.118 50.8004C277.43 49.9048 277.586 48.5615 277.586 46.7703V35.5563C277.586 34.8164 277.411 34.2908 277.06 33.9793C276.749 33.6288 276.223 33.4536 275.483 33.4536H266.781C266.041 33.4536 265.496 33.6288 265.145 33.9793C264.834 34.2908 264.678 34.8164 264.678 35.5563V45.1349C264.678 45.5243 264.658 45.9332 264.619 46.3615C264.581 46.7898 264.425 47.1986 264.152 47.588L261.465 51.7933C261.271 52.1437 261.057 52.3968 260.823 52.5526C260.628 52.7083 260.375 52.7862 260.064 52.7862H259.48C259.168 52.7862 258.896 52.7083 258.662 52.5526C258.467 52.3968 258.273 52.1437 258.078 51.7933L255.391 47.588C255.119 47.1986 254.963 46.7898 254.924 46.3615C254.885 45.9332 254.866 45.5243 254.866 45.1349V35.5563C254.866 34.8164 254.69 34.2908 254.34 33.9793C254.028 33.6288 253.503 33.4536 252.763 33.4536H243.768C243.028 33.4536 242.483 33.6288 242.133 33.9793C241.821 34.2908 241.666 34.8164 241.666 35.5563V46.7703C241.666 48.5615 241.802 49.9048 242.074 50.8004C242.386 51.696 242.99 52.7473 243.885 53.9544L252.821 65.9277V73.4038C252.821 74.1436 252.977 74.6887 253.289 75.0392C253.639 75.3507 254.184 75.5064 254.924 75.5064ZM262.692 59.6782C262.03 60.0676 261.251 60.2623 260.356 60.2623H259.947V70.2498H259.363V60.2623H258.779C257.922 60.2623 257.143 60.0676 256.443 59.6782C255.781 59.2888 255.138 58.6658 254.515 57.8092L248.85 49.9243C248.421 49.3402 248.168 48.6588 248.09 47.8801C248.012 47.1013 247.974 46.2836 247.974 45.427V38.7102H248.558V45.427C248.558 46.2447 248.597 47.0234 248.674 47.7632C248.752 48.4641 248.986 49.1066 249.375 49.6907L255.041 57.5756C255.547 58.3543 256.131 58.8995 256.793 59.211C257.455 59.5225 258.117 59.6782 258.779 59.6782H260.356C261.096 59.6782 261.758 59.5225 262.342 59.211C262.965 58.8605 263.568 58.3154 264.152 57.5756L269.993 49.6907C270.382 49.1845 270.616 48.5615 270.694 47.8216C270.772 47.0429 270.811 46.2447 270.811 45.427V38.7102H271.395V45.427C271.395 46.2836 271.356 47.1013 271.278 47.8801C271.239 48.6199 270.986 49.3013 270.519 49.9243L264.678 57.8092C264.055 58.6658 263.393 59.2888 262.692 59.6782Z" fill="#d4d4d4"/>
  <path d="M39.05 15.96C39.05 16.264 39.145 16.549 39.335 16.815C39.5377 17.081 39.8733 17.214 40.342 17.214H42.717C43.1857 17.214 43.515 17.1 43.705 16.872C43.9077 16.6313 44.009 16.359 44.009 16.055V15.846C44.009 15.2507 44.3573 14.953 45.054 14.953C45.7507 14.953 46.099 15.2507 46.099 15.846V16.074C46.099 16.606 46.0103 17.043 45.833 17.385C45.6683 17.727 45.415 18.0247 45.073 18.278C44.4017 18.7593 43.7303 19 43.059 19H39.867C39.1957 19 38.5433 18.7593 37.91 18.278C37.606 18.0247 37.3717 17.708 37.207 17.328C37.0423 16.9353 36.96 16.4857 36.96 15.979V10.564C36.96 9.538 37.2767 8.778 37.91 8.284C38.2267 8.056 38.5497 7.87867 38.879 7.752C39.221 7.61267 39.5503 7.543 39.867 7.543H43.059C43.363 7.543 43.6987 7.60633 44.066 7.733C44.4333 7.847 44.7753 8.00533 45.092 8.208C45.396 8.42333 45.6367 8.721 45.814 9.101C46.004 9.481 46.099 9.93067 46.099 10.45V13.015C46.099 13.3063 46.0103 13.566 45.833 13.794C45.6683 14.022 45.358 14.136 44.902 14.136H40.798C40.342 14.136 40.1013 13.8383 40.076 13.243C40.076 12.6477 40.3167 12.35 40.798 12.35H44.028L44.009 10.583C44.009 10.2663 43.9077 9.98133 43.705 9.728C43.515 9.462 43.1857 9.329 42.717 9.329H40.342C39.8733 9.329 39.5377 9.462 39.335 9.728C39.145 9.98133 39.05 10.2663 39.05 10.583V15.96ZM51.9586 19C51.5659 19 51.1923 18.9493 50.8376 18.848C50.4829 18.734 50.1409 18.5757 49.8116 18.373V18.392C49.1909 17.9993 48.8806 17.2773 48.8806 16.226V15.295C48.8806 14.7757 48.9693 14.326 49.1466 13.946C49.3366 13.5533 49.5963 13.243 49.9256 13.015H49.9066C50.2233 12.7997 50.5589 12.6413 50.9136 12.54C51.2683 12.426 51.6103 12.369 51.9396 12.369H56.1386V10.602C56.1386 10.2853 56.0373 10.0003 55.8346 9.747C55.6446 9.481 55.3153 9.348 54.8466 9.348H52.6236C52.1423 9.348 51.8066 9.46833 51.6166 9.709C51.4393 9.937 51.3506 10.2093 51.3506 10.526V10.678C51.3506 11.3367 50.9959 11.666 50.2866 11.666C49.5773 11.666 49.2226 11.3367 49.2226 10.678V10.507C49.2226 9.98767 49.3113 9.55067 49.4886 9.196C49.6786 8.84133 49.9319 8.54367 50.2486 8.303H50.2296C50.5589 8.08767 50.9009 7.91033 51.2556 7.771C51.6229 7.63167 51.9713 7.562 52.3006 7.562H55.1886C55.5053 7.562 55.8409 7.63167 56.1956 7.771C56.5629 7.91033 56.9049 8.08767 57.2216 8.303H57.2026C57.5319 8.54367 57.7853 8.86033 57.9626 9.253C58.1399 9.633 58.2286 10.0763 58.2286 10.583V18.202C58.2286 18.81 57.8803 19.114 57.1836 19.114C57.0443 19.114 56.9113 19.1077 56.7846 19.095C56.6706 19.0823 56.5629 19.0507 56.4616 19C56.3729 18.9367 56.2969 18.8543 56.2336 18.753C56.1829 18.639 56.1576 18.4933 56.1576 18.316L56.1386 14.155H52.3006C52.0219 14.155 51.8066 14.1867 51.6546 14.25C51.5026 14.3133 51.3823 14.4147 51.2936 14.554C51.1923 14.7693 51.1163 14.9403 51.0656 15.067C51.0276 15.181 51.0086 15.314 51.0086 15.466V16.207C51.0086 16.5363 51.1036 16.7897 51.2936 16.967C51.4963 17.1317 51.8383 17.214 52.3196 17.214H54.4476C54.9163 17.214 55.1506 17.5117 55.1506 18.107C55.1506 18.3603 55.0936 18.5757 54.9796 18.753C54.8656 18.9177 54.6883 19 54.4476 19H51.9586ZM67.4313 12.35C67.7479 12.35 68.0836 12.426 68.4383 12.578C68.8056 12.7173 69.1476 12.8947 69.4643 13.11H69.4453C69.7746 13.3507 70.0279 13.661 70.2053 14.041C70.3826 14.421 70.4713 14.877 70.4713 15.409V15.979C70.4713 17.0177 70.1293 17.784 69.4453 18.278C69.1159 18.5313 68.7803 18.715 68.4383 18.829C68.0963 18.943 67.7606 19 67.4313 19H64.2013C63.8719 19 63.5363 18.943 63.1943 18.829C62.8523 18.715 62.5166 18.5313 62.1873 18.278C61.5033 17.7967 61.1613 17.0303 61.1613 15.979V15.751C61.1613 15.2063 61.5096 14.9403 62.2063 14.953C62.9156 14.953 63.2703 15.219 63.2703 15.751V15.96C63.2703 16.264 63.3653 16.549 63.5553 16.815C63.7453 17.081 64.0809 17.214 64.5623 17.214H67.0703C67.5516 17.214 67.8873 17.081 68.0773 16.815C68.2673 16.549 68.3623 16.264 68.3623 15.96V15.428C68.3623 15.2633 68.3369 15.105 68.2863 14.953C68.2483 14.801 68.1786 14.668 68.0773 14.554C67.9759 14.4273 67.8429 14.326 67.6783 14.25C67.5136 14.174 67.3109 14.136 67.0703 14.136H64.2963C63.6503 14.136 62.9726 13.908 62.2633 13.452C61.5919 13.0213 61.2563 12.2803 61.2563 11.229V10.583C61.2563 10.0763 61.3449 9.633 61.5223 9.253C61.6996 8.86033 61.9529 8.54367 62.2823 8.303H62.2633C62.5799 8.08767 62.9156 7.91033 63.2703 7.771C63.6249 7.63167 63.9669 7.562 64.2963 7.562H67.3363C67.6656 7.562 68.0013 7.63167 68.3433 7.771C68.6979 7.91033 69.0399 8.08767 69.3693 8.303H69.3503C69.6796 8.54367 69.9329 8.86033 70.1103 9.253C70.2876 9.633 70.3763 10.0763 70.3763 10.583V10.754C70.3763 11.02 70.2876 11.2163 70.1103 11.343C69.9329 11.457 69.6733 11.5203 69.3313 11.533C68.6346 11.5457 68.2863 11.286 68.2863 10.754V10.602C68.2863 10.2853 68.1849 10.0003 67.9823 9.747C67.7923 9.481 67.4629 9.348 66.9943 9.348H64.6383C64.1696 9.348 63.8339 9.481 63.6313 9.747C63.4413 10.0003 63.3463 10.2853 63.3463 10.602V11.058C63.3463 11.3873 63.4413 11.685 63.6313 11.951C63.8339 12.217 64.1696 12.35 64.6383 12.35H67.4313ZM74.1237 21.66C73.6804 21.66 73.4461 21.3623 73.4207 20.767C73.4207 20.1717 73.6551 19.874 74.1237 19.874H74.9597C75.4031 19.874 75.6944 19.741 75.8337 19.475L76.0997 18.772L76.1947 18.468L72.4897 8.759V8.778C72.3884 8.474 72.4074 8.21433 72.5467 7.999C72.6987 7.78367 72.9267 7.62533 73.2307 7.524C73.4587 7.46067 73.6424 7.429 73.7817 7.429C74.1491 7.429 74.3771 7.64433 74.4657 8.075L75.9667 11.818L77.2397 14.934L79.2727 8.113C79.3867 7.657 79.6527 7.429 80.0707 7.429C80.1721 7.429 80.3367 7.46067 80.5647 7.524C80.8687 7.61267 81.0841 7.75833 81.2107 7.961C81.3501 8.16367 81.3817 8.40433 81.3057 8.683C80.7357 10.621 80.1531 12.5717 79.5577 14.535C78.9751 16.4983 78.3987 18.4427 77.8287 20.368C77.7654 20.5073 77.6641 20.6467 77.5247 20.786C77.3981 20.938 77.2271 21.0773 77.0117 21.204C76.7964 21.3433 76.5304 21.451 76.2137 21.527C75.8971 21.6157 75.5297 21.66 75.1117 21.66H74.1237ZM83.6098 12.0605C83.6098 11.306 83.7891 10.7277 84.1479 10.3257C84.5066 9.91748 85.0292 9.71338 85.7157 9.71338C86.3961 9.71338 86.9156 9.91748 87.2743 10.3257C87.6392 10.7277 87.8217 11.306 87.8217 12.0605C87.8217 12.8151 87.6361 13.3965 87.265 13.8047C86.9001 14.2129 86.3837 14.417 85.7157 14.417C85.0354 14.417 84.5128 14.2129 84.1479 13.8047C83.7891 13.3903 83.6098 12.8089 83.6098 12.0605ZM93.2775 18.202C93.2775 18.506 93.1698 18.734 92.9545 18.886C92.7392 19.038 92.5048 19.114 92.2515 19.114C91.5548 19.114 91.2065 18.81 91.2065 18.202V4.712C91.2065 4.104 91.5548 3.8 92.2515 3.8C92.9482 3.8 93.2965 4.104 93.2965 4.712V7.562H97.3055C97.9515 7.562 98.6228 7.80267 99.3195 8.284C100.003 8.76533 100.345 9.52533 100.345 10.564V16.226C100.345 17.2773 100.035 17.9993 99.4145 18.392C98.7938 18.7973 98.0845 19 97.2865 19H95.0445C94.5885 19 94.3478 18.7023 94.3225 18.107C94.3225 17.5117 94.5632 17.214 95.0445 17.214H96.9445C97.4132 17.214 97.7488 17.1317 97.9515 16.967C98.1542 16.7897 98.2555 16.5363 98.2555 16.207V10.735C98.2555 10.4057 98.1542 10.089 97.9515 9.785L97.9705 9.804C97.8058 9.5 97.4702 9.348 96.9635 9.348H93.2965L93.2775 18.202ZM105.409 18.259C105.409 18.8543 105.061 19.152 104.364 19.152C103.655 19.152 103.3 18.8543 103.3 18.259V4.636C103.3 4.04067 103.655 3.743 104.364 3.743C105.061 3.743 105.409 4.04067 105.409 4.636V18.259ZM114.68 7.562C115.01 7.562 115.345 7.63167 115.687 7.771C116.042 7.91033 116.384 8.08767 116.713 8.303H116.694C117.024 8.54367 117.277 8.86033 117.454 9.253C117.632 9.633 117.72 10.0763 117.72 10.583V15.979C117.72 17.0177 117.378 17.784 116.694 18.278C116.023 18.7593 115.352 19 114.68 19H111.64C111.311 19 110.975 18.943 110.633 18.829C110.291 18.715 109.956 18.5313 109.626 18.278C108.942 17.7967 108.6 17.0303 108.6 15.979V10.583C108.6 10.0763 108.689 9.633 108.866 9.253C109.044 8.86033 109.297 8.54367 109.626 8.303H109.607C109.924 8.08767 110.26 7.91033 110.614 7.771C110.969 7.63167 111.311 7.562 111.64 7.562H114.68ZM114.338 17.214C114.807 17.214 115.136 17.081 115.326 16.815C115.529 16.549 115.63 16.264 115.63 15.96V10.602C115.63 10.2853 115.529 10.0003 115.326 9.747C115.136 9.481 114.807 9.348 114.338 9.348H111.982C111.514 9.348 111.178 9.481 110.975 9.747C110.785 10.0003 110.69 10.2853 110.69 10.602V15.96C110.69 16.264 110.785 16.549 110.975 16.815C111.178 17.081 111.514 17.214 111.982 17.214H114.338ZM123.752 19C123.423 19 123.068 18.962 122.688 18.886C122.308 18.81 121.953 18.6643 121.624 18.449C121.269 18.2337 121.022 17.9233 120.883 17.518C120.756 17.1 120.693 16.625 120.693 16.093V10.469C120.693 9.937 120.782 9.481 120.959 9.101C121.149 8.721 121.402 8.42333 121.719 8.208C122.048 8.00533 122.384 7.847 122.726 7.733C123.068 7.619 123.404 7.562 123.733 7.562H126.792C127.121 7.562 127.451 7.619 127.78 7.733C128.122 7.847 128.47 8.00533 128.825 8.208C129.129 8.42333 129.37 8.72733 129.547 9.12C129.737 9.5 129.832 9.94967 129.832 10.469V20.805C129.832 21.413 129.484 21.717 128.787 21.717C128.09 21.717 127.742 21.4193 127.742 20.824V10.602C127.742 10.2853 127.641 10.0003 127.438 9.747C127.248 9.481 126.919 9.348 126.45 9.348H124.075C123.606 9.348 123.271 9.481 123.068 9.747C122.878 10.0003 122.783 10.2853 122.783 10.602V15.96C122.783 16.264 122.878 16.549 123.068 16.815C123.271 17.081 123.606 17.214 124.075 17.214H126.051C126.507 17.214 126.735 17.5117 126.735 18.107C126.735 18.3603 126.678 18.5757 126.564 18.753C126.463 18.9177 126.292 19 126.051 19H123.752ZM138.997 12.35C139.314 12.35 139.65 12.426 140.004 12.578C140.372 12.7173 140.714 12.8947 141.03 13.11H141.011C141.341 13.3507 141.594 13.661 141.771 14.041C141.949 14.421 142.037 14.877 142.037 15.409V15.979C142.037 17.0177 141.695 17.784 141.011 18.278C140.682 18.5313 140.346 18.715 140.004 18.829C139.662 18.943 139.327 19 138.997 19H135.767C135.438 19 135.102 18.943 134.76 18.829C134.418 18.715 134.083 18.5313 133.753 18.278C133.069 17.7967 132.727 17.0303 132.727 15.979V15.751C132.727 15.2063 133.076 14.9403 133.772 14.953C134.482 14.953 134.836 15.219 134.836 15.751V15.96C134.836 16.264 134.931 16.549 135.121 16.815C135.311 17.081 135.647 17.214 136.128 17.214H138.636C139.118 17.214 139.453 17.081 139.643 16.815C139.833 16.549 139.928 16.264 139.928 15.96V15.428C139.928 15.2633 139.903 15.105 139.852 14.953C139.814 14.801 139.745 14.668 139.643 14.554C139.542 14.4273 139.409 14.326 139.244 14.25C139.08 14.174 138.877 14.136 138.636 14.136H135.862C135.216 14.136 134.539 13.908 133.829 13.452C133.158 13.0213 132.822 12.2803 132.822 11.229V10.583C132.822 10.0763 132.911 9.633 133.088 9.253C133.266 8.86033 133.519 8.54367 133.848 8.303H133.829C134.146 8.08767 134.482 7.91033 134.836 7.771C135.191 7.63167 135.533 7.562 135.862 7.562H138.902C139.232 7.562 139.567 7.63167 139.909 7.771C140.264 7.91033 140.606 8.08767 140.935 8.303H140.916C141.246 8.54367 141.499 8.86033 141.676 9.253C141.854 9.633 141.942 10.0763 141.942 10.583V10.754C141.942 11.02 141.854 11.2163 141.676 11.343C141.499 11.457 141.239 11.5203 140.897 11.533C140.201 11.5457 139.852 11.286 139.852 10.754V10.602C139.852 10.2853 139.751 10.0003 139.548 9.747C139.358 9.481 139.029 9.348 138.56 9.348H136.204C135.736 9.348 135.4 9.481 135.197 9.747C135.007 10.0003 134.912 10.2853 134.912 10.602V11.058C134.912 11.3873 135.007 11.685 135.197 11.951C135.4 12.217 135.736 12.35 136.204 12.35H138.997ZM153.495 18.202C153.495 18.81 153.147 19.114 152.45 19.114C151.741 19.114 151.386 18.81 151.386 18.202V8.398C151.386 7.79 151.741 7.486 152.45 7.486C153.147 7.486 153.495 7.79 153.495 8.398V18.202ZM153.894 5.092C153.894 5.49733 153.755 5.83933 153.476 6.118C153.198 6.39667 152.856 6.536 152.45 6.536C152.045 6.536 151.697 6.39667 151.405 6.118C151.127 5.83933 150.987 5.49733 150.987 5.092C150.987 4.674 151.127 4.32567 151.405 4.047C151.697 3.76833 152.045 3.629 152.45 3.629C152.856 3.629 153.198 3.76833 153.476 4.047C153.755 4.32567 153.894 4.674 153.894 5.092ZM162.88 12.35C163.197 12.35 163.533 12.426 163.887 12.578C164.255 12.7173 164.597 12.8947 164.913 13.11H164.894C165.224 13.3507 165.477 13.661 165.654 14.041C165.832 14.421 165.92 14.877 165.92 15.409V15.979C165.92 17.0177 165.578 17.784 164.894 18.278C164.565 18.5313 164.229 18.715 163.887 18.829C163.545 18.943 163.21 19 162.88 19H159.65C159.321 19 158.985 18.943 158.643 18.829C158.301 18.715 157.966 18.5313 157.636 18.278C156.952 17.7967 156.61 17.0303 156.61 15.979V15.751C156.61 15.2063 156.959 14.9403 157.655 14.953C158.365 14.953 158.719 15.219 158.719 15.751V15.96C158.719 16.264 158.814 16.549 159.004 16.815C159.194 17.081 159.53 17.214 160.011 17.214H162.519C163.001 17.214 163.336 17.081 163.526 16.815C163.716 16.549 163.811 16.264 163.811 15.96V15.428C163.811 15.2633 163.786 15.105 163.735 14.953C163.697 14.801 163.628 14.668 163.526 14.554C163.425 14.4273 163.292 14.326 163.127 14.25C162.963 14.174 162.76 14.136 162.519 14.136H159.745C159.099 14.136 158.422 13.908 157.712 13.452C157.041 13.0213 156.705 12.2803 156.705 11.229V10.583C156.705 10.0763 156.794 9.633 156.971 9.253C157.149 8.86033 157.402 8.54367 157.731 8.303H157.712C158.029 8.08767 158.365 7.91033 158.719 7.771C159.074 7.63167 159.416 7.562 159.745 7.562H162.785C163.115 7.562 163.45 7.63167 163.792 7.771C164.147 7.91033 164.489 8.08767 164.818 8.303H164.799C165.129 8.54367 165.382 8.86033 165.559 9.253C165.737 9.633 165.825 10.0763 165.825 10.583V10.754C165.825 11.02 165.737 11.2163 165.559 11.343C165.382 11.457 165.122 11.5203 164.78 11.533C164.084 11.5457 163.735 11.286 163.735 10.754V10.602C163.735 10.2853 163.634 10.0003 163.431 9.747C163.241 9.481 162.912 9.348 162.443 9.348H160.087C159.619 9.348 159.283 9.481 159.08 9.747C158.89 10.0003 158.795 10.2853 158.795 10.602V11.058C158.795 11.3873 158.89 11.685 159.08 11.951C159.283 12.217 159.619 12.35 160.087 12.35H162.88ZM184.37 15.979C184.37 17.0177 184.028 17.784 183.344 18.278C182.673 18.7593 182.001 19 181.33 19H178.138C177.467 19 176.814 18.7593 176.181 18.278C175.877 18.0247 175.643 17.708 175.478 17.328C175.313 16.9353 175.231 16.4857 175.231 15.979V10.564C175.231 9.538 175.548 8.778 176.181 8.284C176.498 8.056 176.821 7.87867 177.15 7.752C177.492 7.61267 177.821 7.543 178.138 7.543H181.33C181.634 7.543 181.97 7.60633 182.337 7.733C182.704 7.847 183.046 8.00533 183.363 8.208C183.667 8.42333 183.908 8.721 184.085 9.101C184.275 9.481 184.37 9.93067 184.37 10.45V11.4C184.37 12.008 184.022 12.312 183.325 12.312C182.628 12.312 182.28 12.008 182.28 11.4V10.583C182.28 10.2663 182.179 9.98133 181.976 9.728C181.786 9.462 181.457 9.329 180.988 9.329H178.613C178.144 9.329 177.809 9.462 177.606 9.728C177.416 9.98133 177.321 10.2663 177.321 10.583V15.96C177.321 16.264 177.416 16.549 177.606 16.815C177.809 17.081 178.144 17.214 178.613 17.214H180.988C181.457 17.214 181.786 17.081 181.976 16.815C182.179 16.549 182.28 16.264 182.28 15.96V15.086C182.28 14.4907 182.628 14.193 183.325 14.193C184.022 14.193 184.37 14.4907 184.37 15.086V15.979ZM189.375 18.202C189.375 18.81 189.027 19.114 188.33 19.114C187.608 19.114 187.247 18.81 187.247 18.202V10.336C187.247 9.29733 187.558 8.57533 188.178 8.17C188.799 7.76467 189.515 7.562 190.325 7.562H192.491C192.96 7.562 193.194 7.85967 193.194 8.455C193.22 9.05033 192.985 9.348 192.491 9.348H190.477C190.021 9.348 189.724 9.43667 189.584 9.614C189.445 9.79133 189.375 10.0383 189.375 10.355V18.202ZM197.461 15.96C197.461 16.264 197.556 16.549 197.746 16.815C197.949 17.081 198.284 17.214 198.753 17.214H201.128C201.597 17.214 201.926 17.1 202.116 16.872C202.319 16.6313 202.42 16.359 202.42 16.055V15.846C202.42 15.2507 202.768 14.953 203.465 14.953C204.162 14.953 204.51 15.2507 204.51 15.846V16.074C204.51 16.606 204.421 17.043 204.244 17.385C204.079 17.727 203.826 18.0247 203.484 18.278C202.813 18.7593 202.141 19 201.47 19H198.278C197.607 19 196.954 18.7593 196.321 18.278C196.017 18.0247 195.783 17.708 195.618 17.328C195.453 16.9353 195.371 16.4857 195.371 15.979V10.564C195.371 9.538 195.688 8.778 196.321 8.284C196.638 8.056 196.961 7.87867 197.29 7.752C197.632 7.61267 197.961 7.543 198.278 7.543H201.47C201.774 7.543 202.11 7.60633 202.477 7.733C202.844 7.847 203.186 8.00533 203.503 8.208C203.807 8.42333 204.048 8.721 204.225 9.101C204.415 9.481 204.51 9.93067 204.51 10.45V13.015C204.51 13.3063 204.421 13.566 204.244 13.794C204.079 14.022 203.769 14.136 203.313 14.136H199.209C198.753 14.136 198.512 13.8383 198.487 13.243C198.487 12.6477 198.728 12.35 199.209 12.35H202.439L202.42 10.583C202.42 10.2663 202.319 9.98133 202.116 9.728C201.926 9.462 201.597 9.329 201.128 9.329H198.753C198.284 9.329 197.949 9.462 197.746 9.728C197.556 9.98133 197.461 10.2663 197.461 10.583V15.96ZM210.37 19C209.977 19 209.603 18.9493 209.249 18.848C208.894 18.734 208.552 18.5757 208.223 18.373V18.392C207.602 17.9993 207.292 17.2773 207.292 16.226V15.295C207.292 14.7757 207.38 14.326 207.558 13.946C207.748 13.5533 208.007 13.243 208.337 13.015H208.318C208.634 12.7997 208.97 12.6413 209.325 12.54C209.679 12.426 210.021 12.369 210.351 12.369H214.55V10.602C214.55 10.2853 214.448 10.0003 214.246 9.747C214.056 9.481 213.726 9.348 213.258 9.348H211.035C210.553 9.348 210.218 9.46833 210.028 9.709C209.85 9.937 209.762 10.2093 209.762 10.526V10.678C209.762 11.3367 209.407 11.666 208.698 11.666C207.988 11.666 207.634 11.3367 207.634 10.678V10.507C207.634 9.98767 207.722 9.55067 207.9 9.196C208.09 8.84133 208.343 8.54367 208.66 8.303H208.641C208.97 8.08767 209.312 7.91033 209.667 7.771C210.034 7.63167 210.382 7.562 210.712 7.562H213.6C213.916 7.562 214.252 7.63167 214.607 7.771C214.974 7.91033 215.316 8.08767 215.633 8.303H215.614C215.943 8.54367 216.196 8.86033 216.374 9.253C216.551 9.633 216.64 10.0763 216.64 10.583V18.202C216.64 18.81 216.291 19.114 215.595 19.114C215.455 19.114 215.322 19.1077 215.196 19.095C215.082 19.0823 214.974 19.0507 214.873 19C214.784 18.9367 214.708 18.8543 214.645 18.753C214.594 18.639 214.569 18.4933 214.569 18.316L214.55 14.155H210.712C210.433 14.155 210.218 14.1867 210.066 14.25C209.914 14.3133 209.793 14.4147 209.705 14.554C209.603 14.7693 209.527 14.9403 209.477 15.067C209.439 15.181 209.42 15.314 209.42 15.466V16.207C209.42 16.5363 209.515 16.7897 209.705 16.967C209.907 17.1317 210.249 17.214 210.731 17.214H212.859C213.327 17.214 213.562 17.5117 213.562 18.107C213.562 18.3603 213.505 18.5757 213.391 18.753C213.277 18.9177 213.099 19 212.859 19H210.37ZM222.156 9.348V16.264C222.156 16.5933 222.226 16.8467 222.365 17.024C222.505 17.2013 222.802 17.29 223.258 17.29H223.752C224.246 17.29 224.481 17.5813 224.455 18.164C224.455 18.7593 224.221 19.057 223.752 19.057H223.125C222.72 19.057 222.34 19.0063 221.985 18.905C221.631 18.791 221.289 18.6327 220.959 18.43V18.449C220.339 18.0437 220.028 17.3217 220.028 16.283V9.348H219.287C218.831 9.348 218.591 9.05033 218.565 8.455C218.565 7.85967 218.806 7.562 219.287 7.562H220.028V5.529C220.028 4.921 220.389 4.617 221.111 4.617C221.808 4.617 222.156 4.921 222.156 5.529V7.562H223.733C224.227 7.562 224.462 7.85967 224.436 8.455C224.436 9.05033 224.202 9.348 223.733 9.348H222.156ZM228.766 15.96C228.766 16.264 228.861 16.549 229.051 16.815C229.253 17.081 229.589 17.214 230.058 17.214H232.433C232.901 17.214 233.231 17.1 233.421 16.872C233.623 16.6313 233.725 16.359 233.725 16.055V15.846C233.725 15.2507 234.073 14.953 234.77 14.953C235.466 14.953 235.815 15.2507 235.815 15.846V16.074C235.815 16.606 235.726 17.043 235.549 17.385C235.384 17.727 235.131 18.0247 234.789 18.278C234.117 18.7593 233.446 19 232.775 19H229.583C228.911 19 228.259 18.7593 227.626 18.278C227.322 18.0247 227.087 17.708 226.923 17.328C226.758 16.9353 226.676 16.4857 226.676 15.979V10.564C226.676 9.538 226.992 8.778 227.626 8.284C227.942 8.056 228.265 7.87867 228.595 7.752C228.937 7.61267 229.266 7.543 229.583 7.543H232.775C233.079 7.543 233.414 7.60633 233.782 7.733C234.149 7.847 234.491 8.00533 234.808 8.208C235.112 8.42333 235.352 8.721 235.53 9.101C235.72 9.481 235.815 9.93067 235.815 10.45V13.015C235.815 13.3063 235.726 13.566 235.549 13.794C235.384 14.022 235.074 14.136 234.618 14.136H230.514C230.058 14.136 229.817 13.8383 229.792 13.243C229.792 12.6477 230.032 12.35 230.514 12.35H233.744L233.725 10.583C233.725 10.2663 233.623 9.98133 233.421 9.728C233.231 9.462 232.901 9.329 232.433 9.329H230.058C229.589 9.329 229.253 9.462 229.051 9.728C228.861 9.98133 228.766 10.2663 228.766 10.583V15.96ZM245.854 9.348H242.187C241.668 9.348 241.326 9.5 241.161 9.804C240.984 10.07 240.895 10.3803 240.895 10.735V16.207C240.895 16.5363 240.997 16.7897 241.199 16.967C241.402 17.1317 241.738 17.214 242.206 17.214H244.163C244.619 17.214 244.847 17.5117 244.847 18.107C244.847 18.3603 244.79 18.5757 244.676 18.753C244.575 18.9177 244.404 19 244.163 19H241.864C241.066 19 240.357 18.7973 239.736 18.392C239.116 18.012 238.805 17.29 238.805 16.226V10.564C238.805 10.0447 238.888 9.595 239.052 9.215C239.217 8.835 239.477 8.52467 239.831 8.284C240.503 7.80267 241.174 7.562 241.845 7.562H245.854V4.712C245.854 4.104 246.203 3.8 246.899 3.8C247.596 3.8 247.944 4.104 247.944 4.712V18.202C247.944 18.81 247.596 19.114 246.899 19.114C246.633 19.114 246.393 19.0697 246.177 18.981C245.962 18.8797 245.854 18.6643 245.854 18.335V9.348ZM259.365 18.202C259.365 18.506 259.257 18.734 259.042 18.886C258.827 19.038 258.592 19.114 258.339 19.114C257.642 19.114 257.294 18.81 257.294 18.202V4.712C257.294 4.104 257.642 3.8 258.339 3.8C259.036 3.8 259.384 4.104 259.384 4.712V7.562H263.393C264.039 7.562 264.71 7.80267 265.407 8.284C266.091 8.76533 266.433 9.52533 266.433 10.564V16.226C266.433 17.2773 266.123 17.9993 265.502 18.392C264.881 18.7973 264.172 19 263.374 19H261.132C260.676 19 260.435 18.7023 260.41 18.107C260.41 17.5117 260.651 17.214 261.132 17.214H263.032C263.501 17.214 263.836 17.1317 264.039 16.967C264.242 16.7897 264.343 16.5363 264.343 16.207V10.735C264.343 10.4057 264.242 10.089 264.039 9.785L264.058 9.804C263.893 9.5 263.558 9.348 263.051 9.348H259.384L259.365 18.202ZM269.939 21.66C269.495 21.66 269.261 21.3623 269.236 20.767C269.236 20.1717 269.47 19.874 269.939 19.874H270.775C271.218 19.874 271.509 19.741 271.649 19.475L271.915 18.772L272.01 18.468L268.305 8.759V8.778C268.203 8.474 268.222 8.21433 268.362 7.999C268.514 7.78367 268.742 7.62533 269.046 7.524C269.274 7.46067 269.457 7.429 269.597 7.429C269.964 7.429 270.192 7.64433 270.281 8.075L271.782 11.818L273.055 14.934L275.088 8.113C275.202 7.657 275.468 7.429 275.886 7.429C275.987 7.429 276.152 7.46067 276.38 7.524C276.684 7.61267 276.899 7.75833 277.026 7.961C277.165 8.16367 277.197 8.40433 277.121 8.683C276.551 10.621 275.968 12.5717 275.373 14.535C274.79 16.4983 274.214 18.4427 273.644 20.368C273.58 20.5073 273.479 20.6467 273.34 20.786C273.213 20.938 273.042 21.0773 272.827 21.204C272.611 21.3433 272.345 21.451 272.029 21.527C271.712 21.6157 271.345 21.66 270.927 21.66H269.939Z" fill="#d4d4d4"/>
</svg>
