<?xml version="1.0" encoding="UTF-8" standalone="no"?>
<!-- Created with Inkscape (http://www.inkscape.org/) -->

<svg
   xmlns:dc="http://purl.org/dc/elements/1.1/"
   xmlns:cc="http://creativecommons.org/ns#"
   xmlns:rdf="http://www.w3.org/1999/02/22-rdf-syntax-ns#"
   xmlns:svg="http://www.w3.org/2000/svg"
   xmlns="http://www.w3.org/2000/svg"
   xmlns:sodipodi="http://sodipodi.sourceforge.net/DTD/sodipodi-0.dtd"
   xmlns:inkscape="http://www.inkscape.org/namespaces/inkscape"
   id="svg2985"
   version="1.1"
   inkscape:version="0.92.3 (2405546, 2018-03-11)"
   width="180cm"
   height="50cm"
   xml:space="preserve"
   sodipodi:docname="Leaphy_WIT BANNER GRoot4.svg"
   inkscape:export-filename="Leaphy logo- groot zwart.png"
   inkscape:export-xdpi="1623.9"
   inkscape:export-ydpi="1623.9"><metadata
     id="metadata2991"><rdf:RDF><cc:Work
         rdf:about=""><dc:format>image/svg+xml</dc:format><dc:type
           rdf:resource="http://purl.org/dc/dcmitype/StillImage" /><dc:title></dc:title></cc:Work></rdf:RDF></metadata><defs
     id="defs2989"><clipPath
       clipPathUnits="userSpaceOnUse"
       id="clipPath2999"><path
         d="M 0,288.273 H 595.28 V 0 H 0 Z"
         id="path3001"
         inkscape:connector-curvature="0" /></clipPath></defs><sodipodi:namedview
     pagecolor="#ffffff"
     bordercolor="#666666"
     borderopacity="1"
     objecttolerance="10"
     gridtolerance="10"
     guidetolerance="10"
     inkscape:pageopacity="0"
     inkscape:pageshadow="2"
     inkscape:window-width="1920"
     inkscape:window-height="986"
     id="namedview2987"
     showgrid="false"
     units="cm"
     inkscape:zoom="0.1605183"
     inkscape:cx="2736.7976"
     inkscape:cy="344.3205"
     inkscape:window-x="-11"
     inkscape:window-y="-11"
     inkscape:window-maximized="1"
     inkscape:current-layer="g2993" /><g
     id="g2993"
     inkscape:groupmode="layer"
     inkscape:label="Leaphy_zwart"
     transform="matrix(1.25,0,0,-1.25,0,1889.7637)"><g
       id="g2995"
       transform="matrix(15.561563,0,0,15.561563,-1905.5926,-1501.6676)"
       style="fill:#ffffff;fill-opacity:1;opacity:1"><g
         id="g2997"
         clip-path="url(#clipPath2999)"
         style="fill:#ffffff;fill-opacity:1"><g
           id="g3003"
           transform="translate(166.4653,137.4552)"
           style="fill:#ffffff;fill-opacity:1"><path
             d="m 0,0 h -28.489 v 41.336 h 1.747 V 1.747 H -1.747 V 16.462 H 0 Z M 6.821,22.092 C 6.397,22.514 5.712,22.727 4.767,22.727 H -6.064 c -0.947,0 -1.632,-0.213 -2.055,-0.635 -0.423,-0.424 -0.634,-1.109 -0.634,-2.054 V 7.937 h -10.234 v 36.975 c 0,0.945 -0.212,1.63 -0.635,2.054 -0.423,0.422 -1.108,0.635 -2.054,0.635 h -11.578 c -0.947,0 -1.632,-0.213 -2.054,-0.635 -0.424,-0.424 -0.635,-1.109 -0.635,-2.054 V -3.492 c 0,-0.946 0.211,-1.631 0.635,-2.054 0.422,-0.424 1.107,-0.635 2.054,-0.635 H 4.767 c 0.945,0 1.63,0.211 2.054,0.635 0.423,0.423 0.635,1.108 0.635,2.054 v 23.53 c 0,0.945 -0.212,1.63 -0.635,2.054"
             style="fill:#ffffff;fill-opacity:1;fill-rule:nonzero;stroke:none"
             id="path3005"
             inkscape:connector-curvature="0" /></g><g
           id="g3007"
           transform="translate(210.0132,159.295)"
           style="fill:#ffffff;fill-opacity:1"><path
             d="M 0,0 V -1.747 H -18.375 V -20.093 H 6.05 V -21.84 H -20.123 V 19.496 H 6.05 V 17.749 H -18.375 V 0 Z m 9.771,11.643 c 0.946,0 1.631,0.211 2.055,0.635 0.423,0.423 0.635,1.108 0.635,2.054 v 8.74 c 0,0.945 -0.212,1.63 -0.635,2.054 -0.424,0.422 -1.109,0.635 -2.055,0.635 h -34.659 c -0.946,0 -1.632,-0.213 -2.054,-0.635 -0.424,-0.424 -0.635,-1.109 -0.635,-2.054 v -48.404 c 0,-0.946 0.211,-1.631 0.635,-2.054 0.422,-0.424 1.108,-0.635 2.054,-0.635 H 9.771 c 0.946,0 1.631,0.211 2.055,0.635 0.423,0.423 0.635,1.108 0.635,2.054 v 8.74 c 0,0.945 -0.212,1.63 -0.635,2.054 -0.424,0.422 -1.109,0.635 -2.055,0.635 h -20.616 v 6.424 H 3.721 c 0.946,0 1.631,0.211 2.054,0.635 0.423,0.422 0.635,1.107 0.635,2.054 V 3.202 C 6.41,4.148 6.198,4.833 5.775,5.256 5.352,5.679 4.667,5.892 3.721,5.892 h -14.566 v 5.751 z"
             style="fill:#ffffff;fill-opacity:1;fill-rule:nonzero;stroke:none"
             id="path3009"
             inkscape:connector-curvature="0" /></g><g
           id="g3011"
           transform="translate(269.0229,137.4552)"
           style="fill:#ffffff;fill-opacity:1"><path
             d="M 0,0 H -1.747 V 12.848 H -29.878 V 0 h -1.747 v 16.41 c 0,1.42 0.116,2.746 0.344,3.941 0.229,1.194 0.551,2.364 0.955,3.476 l 4.785,12.26 c 0.562,1.431 1.211,2.651 1.931,3.627 0.794,1.076 2.135,1.622 3.988,1.622 h 7.32 c 1.806,0 3.112,-0.548 3.881,-1.629 0.691,-0.973 1.35,-2.212 1.959,-3.684 l 5.153,-12.172 c 0.415,-1.142 0.736,-2.311 0.964,-3.5 C -0.116,19.156 0,17.83 0,16.41 Z M 6.896,21.382 C 6.422,23.324 5.688,25.59 4.692,28.18 l -6.498,16.956 c -0.299,0.846 -0.76,1.468 -1.382,1.867 -0.624,0.398 -1.408,0.598 -2.353,0.598 h -20.094 c -0.996,0 -1.805,-0.2 -2.427,-0.598 -0.624,-0.399 -1.084,-1.021 -1.382,-1.867 L -35.943,28.18 c -0.996,-2.59 -1.731,-4.856 -2.203,-6.798 -0.474,-1.942 -0.71,-3.66 -0.71,-5.154 v -19.72 c 0,-0.946 0.211,-1.631 0.635,-2.054 0.423,-0.424 1.108,-0.635 2.054,-0.635 h 10.98 c 0.946,0 1.631,0.211 2.055,0.635 0.422,0.423 0.634,1.108 0.634,2.054 V 6.965 H -9.276 V -3.492 c 0,-0.946 0.236,-1.631 0.71,-2.054 0.472,-0.424 1.207,-0.635 2.203,-0.635 h 11.28 c 0.945,0 1.63,0.211 2.054,0.635 0.422,0.423 0.634,1.108 0.634,2.054 v 19.72 c 0,1.494 -0.236,3.212 -0.709,5.154"
             style="fill:#ffffff;fill-opacity:1;fill-rule:nonzero;stroke:none"
             id="path3013"
             inkscape:connector-curvature="0" /></g><g
           id="g3015"
           transform="translate(247.2725,158.0157)"
           style="fill:#ffffff;fill-opacity:1"><path
             d="m 0,0 3.511,11.354 c 0.198,0.448 0.411,0.771 0.635,0.971 0.224,0.198 0.485,0.299 0.784,0.299 h 1.867 c 0.299,0 0.561,-0.101 0.785,-0.299 0.224,-0.2 0.435,-0.523 0.635,-0.971 L 11.728,0 Z m 18.836,2.632 -5.142,12.145 c -0.535,1.262 -1.096,2.325 -1.67,3.161 -0.503,0.734 -1.346,1.09 -2.575,1.09 H 2.128 c -1.33,0 -2.221,-0.356 -2.725,-1.09 -0.576,-0.84 -1.111,-1.875 -1.591,-3.077 L -6.967,2.615 C -7.3,1.663 -7.583,0.605 -7.801,-0.512 -8.018,-1.62 -8.128,-2.844 -8.128,-4.15 v -1.816 h 28.132 v 1.816 c 0,1.304 -0.11,2.528 -0.327,3.638 -0.218,1.111 -0.5,2.168 -0.841,3.144"
             style="fill:#ffffff;fill-opacity:1;fill-rule:nonzero;stroke:none"
             id="path3017"
             inkscape:connector-curvature="0" /></g><g
           id="g3019"
           transform="translate(321.833,162.6046)"
           style="fill:#ffffff;fill-opacity:1"><path
             d="m 0,0 c 0,-1.48 -0.155,-2.865 -0.462,-4.115 -0.317,-1.297 -0.91,-2.426 -1.761,-3.356 -0.851,-0.931 -2.064,-1.668 -3.607,-2.19 -1.512,-0.513 -3.488,-0.774 -5.874,-0.774 h -14.888 v -14.714 h -1.747 v 41.336 h 16.635 c 2.388,0 4.366,-0.274 5.882,-0.813 1.542,-0.55 2.755,-1.313 3.604,-2.269 0.849,-0.955 1.44,-2.107 1.757,-3.427 C -0.155,8.403 0,7.006 0,5.528 Z m 3.422,18.417 c -2.49,2.69 -7.121,4.034 -13.893,4.034 h -22.857 c -0.947,0 -1.632,-0.212 -2.054,-0.635 -0.424,-0.423 -0.635,-1.108 -0.635,-2.054 v -48.404 c 0,-0.946 0.211,-1.63 0.635,-2.053 0.422,-0.424 1.107,-0.635 2.054,-0.635 h 11.578 c 0.945,0 1.631,0.211 2.055,0.635 0.422,0.423 0.634,1.107 0.634,2.053 v 12.4 h 8.59 c 6.772,0 11.403,1.345 13.893,4.034 2.49,2.689 3.736,6.2 3.736,10.532 v 9.561 c 0,4.333 -1.246,7.844 -3.736,10.532"
             style="fill:#ffffff;fill-opacity:1;fill-rule:nonzero;stroke:none"
             id="path3021"
             inkscape:connector-curvature="0" /></g><g
           id="g3023"
           transform="translate(312.8564,163.4684)"
           style="fill:#ffffff;fill-opacity:1"><path
             d="M 0,0 C 0,-0.946 -0.225,-1.792 -0.673,-2.54 -1.12,-3.287 -2.067,-3.66 -3.511,-3.66 h -6.722 V 7.619 h 6.722 c 1.444,0 2.391,-0.373 2.838,-1.12 C -0.225,5.752 0,4.904 0,3.959 Z m 5.412,11.056 c -0.684,0.776 -1.681,1.395 -2.962,1.838 -1.312,0.452 -3.054,0.682 -5.178,0.682 H -17.615 V -9.551 h 14.887 c 2.126,0 3.872,0.218 5.186,0.647 1.28,0.42 2.275,1.013 2.959,1.766 0.687,0.755 1.163,1.662 1.416,2.696 0.264,1.082 0.397,2.285 0.397,3.578 v 5.528 c 0,1.293 -0.133,2.511 -0.398,3.619 -0.253,1.059 -0.73,1.992 -1.42,2.773"
             style="fill:#ffffff;fill-opacity:1;fill-rule:nonzero;stroke:none"
             id="path3025"
             inkscape:connector-curvature="0" /></g><g
           id="g3027"
           transform="translate(375.3164,137.4552)"
           style="fill:#ffffff;fill-opacity:1"><path
             d="M 0,0 H -1.747 V 19.794 H -29.431 V 0 h -1.747 v 41.336 h 1.747 V 21.542 H -1.747 V 41.336 H 0 Z M 7.194,46.966 C 6.771,47.388 6.085,47.601 5.14,47.601 H -6.438 c -0.947,0 -1.631,-0.213 -2.054,-0.635 -0.424,-0.424 -0.635,-1.109 -0.635,-2.054 v -16.21 h -12.475 v 16.21 c 0,0.945 -0.212,1.63 -0.634,2.054 -0.424,0.422 -1.11,0.635 -2.055,0.635 h -11.578 c -0.946,0 -1.631,-0.213 -2.054,-0.635 -0.424,-0.424 -0.635,-1.109 -0.635,-2.054 V -3.492 c 0,-0.946 0.211,-1.631 0.635,-2.054 0.423,-0.424 1.108,-0.635 2.054,-0.635 h 11.578 c 0.945,0 1.631,0.211 2.055,0.635 0.422,0.423 0.634,1.108 0.634,2.054 V 13.091 H -9.127 V -3.492 c 0,-0.946 0.211,-1.631 0.635,-2.054 0.423,-0.424 1.107,-0.635 2.054,-0.635 H 5.14 c 0.945,0 1.631,0.211 2.054,0.635 0.422,0.423 0.635,1.108 0.635,2.054 v 48.404 c 0,0.945 -0.213,1.63 -0.635,2.054"
             style="fill:#ffffff;fill-opacity:1;fill-rule:nonzero;stroke:none"
             id="path3029"
             inkscape:connector-curvature="0" /></g><g
           id="g3031"
           transform="translate(429.9932,169.7008)"
           style="fill:#ffffff;fill-opacity:1"><path
             d="m 0,0 c 0,-1.103 -0.038,-2.158 -0.112,-3.138 -0.083,-1.065 -0.455,-2.045 -1.109,-2.914 l -7.467,-10.081 c -0.832,-1.144 -1.726,-1.995 -2.656,-2.527 -0.944,-0.539 -2.045,-0.813 -3.273,-0.813 h -0.024 v -12.773 h -1.747 v 12.773 h -0.246 c -1.179,0 -2.257,0.274 -3.199,0.813 -0.93,0.53 -1.824,1.382 -2.658,2.531 l -7.248,10.086 c -0.596,0.812 -0.954,1.774 -1.062,2.856 -0.101,0.998 -0.152,2.07 -0.152,3.187 v 9.09 h 1.747 V 0 c 0,-1.032 0.049,-2.006 0.146,-2.896 0.09,-0.836 0.364,-1.603 0.816,-2.279 l 7.235,-10.07 c 0.605,-0.932 1.289,-1.575 2.048,-1.931 0.774,-0.365 1.557,-0.55 2.327,-0.55 h 2.017 c 0.855,0 1.642,0.193 2.337,0.574 0.709,0.388 1.424,1.035 2.126,1.925 l 7.461,10.072 c 0.442,0.576 0.71,1.308 0.799,2.181 0.097,0.95 0.147,1.951 0.147,2.974 V 9.09 H 0 Z m 6.971,14.72 c -0.424,0.423 -1.109,0.635 -2.054,0.635 h -11.13 c -0.947,0 -1.632,-0.212 -2.055,-0.635 -0.423,-0.424 -0.634,-1.109 -0.634,-2.054 V 0.416 c 0,-0.499 -0.026,-1.021 -0.075,-1.569 -0.05,-0.549 -0.25,-1.071 -0.597,-1.569 L -13.011,-8.1 c -0.25,-0.448 -0.51,-0.773 -0.784,-0.971 -0.274,-0.2 -0.61,-0.299 -1.009,-0.299 h -0.747 c -0.398,0 -0.735,0.099 -1.008,0.299 -0.274,0.198 -0.536,0.523 -0.784,0.971 l -3.436,5.378 c -0.349,0.498 -0.549,1.02 -0.598,1.569 -0.05,0.548 -0.074,1.07 -0.074,1.569 v 12.25 c 0,0.945 -0.213,1.63 -0.635,2.054 -0.424,0.423 -1.109,0.635 -2.055,0.635 h -11.503 c -0.947,0 -1.631,-0.212 -2.054,-0.635 -0.424,-0.424 -0.635,-1.109 -0.635,-2.054 V -1.676 c 0,-2.291 0.187,-4.009 0.561,-5.154 0.373,-1.146 1.131,-2.491 2.278,-4.034 l 11.429,-15.312 v -9.562 c 0,-0.946 0.211,-1.631 0.634,-2.054 0.422,-0.423 1.108,-0.634 2.054,-0.634 h 12.102 c 0.945,0 1.629,0.211 2.053,0.634 0.423,0.423 0.635,1.108 0.635,2.054 v 9.487 l 11.355,15.387 c 1.094,1.543 1.841,2.888 2.24,4.034 0.398,1.145 0.597,2.863 0.597,5.154 v 14.342 c 0,0.945 -0.211,1.63 -0.634,2.054"
             style="fill:#ffffff;fill-opacity:1;fill-rule:nonzero;stroke:none"
             id="path3033"
             inkscape:connector-curvature="0" /></g><g
           id="g3035"
           transform="translate(448.373,132.045)"
           style="fill:#ffffff;fill-opacity:1"><path
             d="m 0,0 c -7.041,-2.104 -13.44,0.443 -17.38,2.769 l -0.013,-0.027 c -0.222,0.105 -5.494,2.615 -10.081,6.485 l 1.156,1.367 c 1.982,-1.673 4.132,-3.098 5.905,-4.161 0.393,-0.176 0.857,-0.372 1.394,-0.565 0.588,-0.214 1.257,-0.424 1.993,-0.62 0.737,-0.189 1.538,-0.374 2.392,-0.512 0.854,-0.145 1.759,-0.257 2.697,-0.32 0.938,-0.071 1.909,-0.089 2.892,-0.059 0.983,0.023 1.979,0.118 2.966,0.249 0.988,0.128 1.962,0.338 2.912,0.568 0.47,0.135 0.941,0.245 1.394,0.402 0.227,0.074 0.454,0.148 0.677,0.22 0.221,0.083 0.441,0.164 0.658,0.246 0.87,0.322 1.682,0.701 2.441,1.076 0.371,0.203 0.733,0.4 1.083,0.59 0.339,0.206 0.667,0.406 0.982,0.598 0.304,0.206 0.597,0.404 0.874,0.591 0.275,0.193 0.525,0.39 0.764,0.568 0.241,0.175 0.456,0.352 0.653,0.519 0.198,0.165 0.379,0.317 0.544,0.454 0.633,0.573 0.988,0.906 0.988,0.906 0,0 -0.38,-0.306 -1.053,-0.827 C 6.665,10.394 6.473,10.257 6.265,10.108 6.058,9.958 5.831,9.799 5.579,9.645 5.328,9.487 5.068,9.311 4.783,9.143 4.495,8.979 4.193,8.807 3.878,8.627 3.556,8.463 3.219,8.292 2.871,8.115 2.516,7.955 2.147,7.79 1.771,7.62 1.001,7.312 0.187,7.004 -0.68,6.757 -0.896,6.694 -1.113,6.632 -1.332,6.568 -1.554,6.515 -1.777,6.461 -2.002,6.407 -2.448,6.289 -2.912,6.218 -3.372,6.122 -4.301,5.973 -5.246,5.843 -6.199,5.793 -7.15,5.74 -8.103,5.723 -9.036,5.773 c -0.933,0.043 -1.849,0.129 -2.725,0.264 -0.878,0.127 -1.718,0.297 -2.502,0.494 -0.787,0.189 -1.514,0.418 -2.178,0.644 -0.661,0.23 -1.254,0.469 -1.766,0.702 -0.411,0.183 -0.765,0.363 -1.069,0.524 3.332,3.996 9.92,11.163 15.6,12.86 7.985,2.386 17.348,-4.896 22.495,-1.61 C 18.44,18.027 11.591,3.463 0,0"
             style="fill:#ffffff;fill-opacity:1;fill-rule:nonzero;stroke:none"
             id="path3037"
             inkscape:connector-curvature="0" /></g><g
           id="g3039"
           transform="translate(141.603,118.4718)"
           style="fill:#ffffff;fill-opacity:1"><path
             d="m 0,0 c 0,0.693 -0.135,0.845 -1.03,0.845 h -8.886 v -4.577 h 8.886 c 0.895,0 1.03,0.169 1.03,0.827 z m 1.064,-9.982 -4.493,5.287 h -6.487 v -5.287 h -1.081 V 1.791 h 9.882 c 1.706,0 2.196,-0.354 2.196,-1.824 v -2.771 c 0,-1.875 -0.861,-1.891 -3.142,-1.891 l 4.493,-5.287 z"
             style="fill:#ffffff;fill-opacity:1;fill-rule:nonzero;stroke:none"
             id="path3041"
             inkscape:connector-curvature="0" /></g><g
           id="g3043"
           transform="translate(154.9785,115.2462)"
           style="fill:#ffffff;fill-opacity:1"><path
             d="M 0,0 C 0,0.658 -0.203,0.845 -1.115,0.845 H -7.162 C -8.074,0.845 -8.277,0.658 -8.277,0 v -5.017 c 0,-0.659 0.203,-0.844 1.115,-0.844 h 6.047 c 0.912,0 1.115,0.185 1.115,0.844 z m -7.061,-6.841 c -1.604,0 -2.297,0.355 -2.297,1.976 v 4.696 c 0,1.605 0.693,1.959 2.297,1.959 h 5.845 c 1.605,0 2.297,-0.354 2.297,-1.977 v -4.695 c 0,-1.604 -0.692,-1.959 -2.297,-1.959 z"
             style="fill:#ffffff;fill-opacity:1;fill-rule:nonzero;stroke:none"
             id="path3045"
             inkscape:connector-curvature="0" /></g><g
           id="g3047"
           transform="translate(168.3037,115.1612)"
           style="fill:#ffffff;fill-opacity:1"><path
             d="m 0,0 c 0,0.659 -0.203,0.845 -1.115,0.845 h -6.891 v -6.537 h 6.891 C -0.203,-5.692 0,-5.507 0,-4.848 Z M -9.087,-6.672 V 5.102 h 1.081 V 1.791 h 6.79 c 1.605,0 2.297,-0.355 2.297,-1.926 v -4.628 c 0,-1.554 -0.692,-1.909 -2.297,-1.909 z"
             style="fill:#ffffff;fill-opacity:1;fill-rule:nonzero;stroke:none"
             id="path3049"
             inkscape:connector-curvature="0" /></g><g
           id="g3051"
           transform="translate(181.6289,115.2462)"
           style="fill:#ffffff;fill-opacity:1"><path
             d="M 0,0 C 0,0.658 -0.203,0.845 -1.115,0.845 H -7.162 C -8.074,0.845 -8.277,0.658 -8.277,0 v -5.017 c 0,-0.659 0.203,-0.844 1.115,-0.844 h 6.047 c 0.912,0 1.115,0.185 1.115,0.844 z m -7.061,-6.841 c -1.604,0 -2.297,0.355 -2.297,1.976 v 4.696 c 0,1.605 0.693,1.959 2.297,1.959 h 5.845 c 1.605,0 2.297,-0.354 2.297,-1.977 v -4.695 c 0,-1.604 -0.692,-1.959 -2.297,-1.959 z"
             style="fill:#ffffff;fill-opacity:1;fill-rule:nonzero;stroke:none"
             id="path3053"
             inkscape:connector-curvature="0" /></g><g
           id="g3055"
           transform="translate(188.2817,108.4893)"
           style="fill:#ffffff;fill-opacity:1"><path
             d="m 0,0 c -1.655,0 -2.162,0.405 -2.162,1.977 v 5.574 h -1.351 v 0.912 h 1.351 v 2.297 h 1.081 V 8.463 H 1.841 V 7.551 H -1.081 V 1.824 c 0,-0.659 0.119,-0.845 1.014,-0.845 H 2.179 V 0 Z"
             style="fill:#ffffff;fill-opacity:1;fill-rule:nonzero;stroke:none"
             id="path3057"
             inkscape:connector-curvature="0" /></g><path
           d="m 192.96,116.952 h 1.081 v -8.463 h -1.081 z m -0.101,3.311 h 1.284 v -1.537 h -1.284 z"
           style="fill:#ffffff;fill-opacity:1;fill-rule:nonzero;stroke:none"
           id="path3059"
           inkscape:connector-curvature="0" /><g
           id="g3061"
           transform="translate(199.4961,108.4893)"
           style="fill:#ffffff;fill-opacity:1"><path
             d="m 0,0 c -1.604,0 -2.297,0.304 -2.297,1.942 v 4.579 c 0,1.621 0.675,1.942 2.297,1.942 H 6.639 V 7.517 h -6.74 c -0.912,0 -1.115,-0.186 -1.115,-0.845 V 1.824 c 0,-0.659 0.203,-0.845 1.115,-0.845 H 6.757 V 0 Z"
             style="fill:#ffffff;fill-opacity:1;fill-rule:nonzero;stroke:none"
             id="path3063"
             inkscape:connector-curvature="0" /></g><g
           id="g3065"
           transform="translate(217.1123,112.3741)"
           style="fill:#ffffff;fill-opacity:1"><path
             d="m 0,0 h -6.503 c -0.913,0 -1.031,-0.169 -1.031,-0.811 v -1.25 c 0,-0.659 0.118,-0.844 1.031,-0.844 H 0 Z m -6.453,-3.885 c -1.605,0 -2.162,0.422 -2.162,1.808 v 1.232 c 0,1.386 0.557,1.808 2.162,1.808 H 0 v 1.824 c 0,0.659 -0.203,0.845 -1.115,0.845 h -6.656 v 0.946 h 6.555 c 1.604,0 2.297,-0.355 2.297,-1.926 v -6.537 z"
             style="fill:#ffffff;fill-opacity:1;fill-rule:nonzero;stroke:none"
             id="path3067"
             inkscape:connector-curvature="0" /></g><g
           id="g3069"
           transform="translate(238.2725,108.4893)"
           style="fill:#ffffff;fill-opacity:1"><path
             d="m 0,0 -5.051,8.463 h 1.284 L -0.473,2.854 C -0.203,2.398 0.084,1.892 0.287,1.453 0.473,1.808 0.828,2.415 1.115,2.889 L 4.392,8.463 H 5.625 L 0.574,0 Z"
             style="fill:#ffffff;fill-opacity:1;fill-rule:nonzero;stroke:none"
             id="path3071"
             inkscape:connector-curvature="0" /></g><g
           id="g3073"
           transform="translate(254.7734,115.2462)"
           style="fill:#ffffff;fill-opacity:1"><path
             d="M 0,0 C 0,0.658 -0.203,0.845 -1.115,0.845 H -7.162 C -8.074,0.845 -8.277,0.658 -8.277,0 v -5.017 c 0,-0.659 0.203,-0.844 1.115,-0.844 h 6.047 c 0.912,0 1.115,0.185 1.115,0.844 z m -7.061,-6.841 c -1.604,0 -2.297,0.355 -2.297,1.976 v 4.696 c 0,1.605 0.693,1.959 2.297,1.959 h 5.845 c 1.605,0 2.297,-0.354 2.297,-1.977 v -4.695 c 0,-1.604 -0.692,-1.959 -2.297,-1.959 z"
             style="fill:#ffffff;fill-opacity:1;fill-rule:nonzero;stroke:none"
             id="path3075"
             inkscape:connector-curvature="0" /></g><g
           id="g3077"
           transform="translate(268.082,115.2462)"
           style="fill:#ffffff;fill-opacity:1"><path
             d="M 0,0 C 0,0.658 -0.203,0.845 -1.115,0.845 H -7.162 C -8.074,0.845 -8.277,0.658 -8.277,0 v -5.017 c 0,-0.659 0.203,-0.844 1.115,-0.844 h 6.047 c 0.912,0 1.115,0.185 1.115,0.844 z m -7.061,-6.841 c -1.604,0 -2.297,0.355 -2.297,1.976 v 4.696 c 0,1.605 0.693,1.959 2.297,1.959 h 5.845 c 1.605,0 2.297,-0.354 2.297,-1.977 v -4.695 c 0,-1.604 -0.692,-1.959 -2.297,-1.959 z"
             style="fill:#ffffff;fill-opacity:1;fill-rule:nonzero;stroke:none"
             id="path3079"
             inkscape:connector-curvature="0" /></g><g
           id="g3081"
           transform="translate(272.1846,108.4893)"
           style="fill:#ffffff;fill-opacity:1"><path
             d="m 0,0 v 6.503 c 0,1.622 0.557,1.96 2.162,1.96 H 4.493 V 7.483 H 2.111 c -0.912,0 -1.03,-0.186 -1.03,-0.828 L 1.081,0 Z"
             style="fill:#ffffff;fill-opacity:1;fill-rule:nonzero;stroke:none"
             id="path3083"
             inkscape:connector-curvature="0" /></g><path
           d="m 292.164,116.952 h 1.081 v -8.463 h -1.081 z m -0.102,3.311 h 1.284 v -1.537 h -1.284 z"
           style="fill:#ffffff;fill-opacity:1;fill-rule:nonzero;stroke:none"
           id="path3085"
           inkscape:connector-curvature="0" /><g
           id="g3087"
           transform="translate(304.9492,115.2628)"
           style="fill:#ffffff;fill-opacity:1"><path
             d="m 0,0 c 0,0.642 -0.118,0.828 -1.03,0.828 h -5.321 c -0.912,0 -1.115,-0.186 -1.115,-0.845 V -2.111 H 0 Z m -6.25,-6.773 c -1.604,0 -2.297,0.354 -2.297,1.942 v 4.628 c 0,1.622 0.693,1.976 2.297,1.976 h 5.169 c 1.605,0 2.162,-0.354 2.162,-1.925 v -2.922 h -8.547 v -1.875 c 0,-0.659 0.203,-0.845 1.081,-0.845 H 0.93 v -0.979 z"
             style="fill:#ffffff;fill-opacity:1;fill-rule:nonzero;stroke:none"
             id="path3089"
             inkscape:connector-curvature="0" /></g><g
           id="g3091"
           transform="translate(318.0049,116.006)"
           style="fill:#ffffff;fill-opacity:1"><path
             d="M 0,0 H -6.908 C -7.82,0 -8.023,-0.186 -8.023,-0.845 v -4.847 c 0,-0.66 0.203,-0.845 1.115,-0.845 H 0 Z m -6.807,-7.517 c -1.605,0 -2.297,0.355 -2.297,1.977 v 4.51 c 0,1.621 0.692,1.976 2.297,1.976 H 0 V 4.257 H 1.081 V -7.517 Z"
             style="fill:#ffffff;fill-opacity:1;fill-rule:nonzero;stroke:none"
             id="path3093"
             inkscape:connector-curvature="0" /></g><g
           id="g3095"
           transform="translate(330.7891,115.2628)"
           style="fill:#ffffff;fill-opacity:1"><path
             d="m 0,0 c 0,0.642 -0.118,0.828 -1.03,0.828 h -5.321 c -0.912,0 -1.115,-0.186 -1.115,-0.845 V -2.111 H 0 Z m -6.249,-6.773 c -1.605,0 -2.298,0.354 -2.298,1.942 v 4.628 c 0,1.622 0.693,1.976 2.298,1.976 h 5.168 c 1.605,0 2.162,-0.354 2.162,-1.925 v -2.922 h -8.547 v -1.875 c 0,-0.659 0.203,-0.845 1.081,-0.845 H 0.93 v -0.979 z"
             style="fill:#ffffff;fill-opacity:1;fill-rule:nonzero;stroke:none"
             id="path3097"
             inkscape:connector-curvature="0" /></g><g
           id="g3099"
           transform="translate(334.8916,108.4893)"
           style="fill:#ffffff;fill-opacity:1"><path
             d="m 0,0 v 6.503 c 0,1.622 0.558,1.96 2.162,1.96 H 4.493 V 7.483 H 2.111 c -0.912,0 -1.03,-0.186 -1.03,-0.828 L 1.081,0 Z"
             style="fill:#ffffff;fill-opacity:1;fill-rule:nonzero;stroke:none"
             id="path3101"
             inkscape:connector-curvature="0" /></g><g
           id="g3103"
           transform="translate(349.7891,115.2628)"
           style="fill:#ffffff;fill-opacity:1"><path
             d="m 0,0 c 0,0.642 -0.118,0.828 -1.03,0.828 h -5.321 c -0.912,0 -1.115,-0.186 -1.115,-0.845 V -2.111 H 0 Z m -6.249,-6.773 c -1.605,0 -2.298,0.354 -2.298,1.942 v 4.628 c 0,1.622 0.693,1.976 2.298,1.976 h 5.168 c 1.605,0 2.162,-0.354 2.162,-1.925 v -2.922 h -8.547 v -1.875 c 0,-0.659 0.203,-0.845 1.081,-0.845 H 0.93 v -0.979 z"
             style="fill:#ffffff;fill-opacity:1;fill-rule:nonzero;stroke:none"
             id="path3105"
             inkscape:connector-curvature="0" /></g><g
           id="g3107"
           transform="translate(369.4121,108.4893)"
           style="fill:#ffffff;fill-opacity:1"><path
             d="m 0,0 c -1.604,0 -2.111,0.354 -2.111,1.959 v 9.814 H -1.03 V 1.824 C -1.03,1.165 -0.912,0.979 0,0.979 H 1.858 V 0 Z"
             style="fill:#ffffff;fill-opacity:1;fill-rule:nonzero;stroke:none"
             id="path3109"
             inkscape:connector-curvature="0" /></g><g
           id="g3111"
           transform="translate(381.6738,115.2628)"
           style="fill:#ffffff;fill-opacity:1"><path
             d="m 0,0 c 0,0.642 -0.118,0.828 -1.03,0.828 h -5.321 c -0.912,0 -1.115,-0.186 -1.115,-0.845 V -2.111 H 0 Z m -6.249,-6.773 c -1.605,0 -2.298,0.354 -2.298,1.942 v 4.628 c 0,1.622 0.693,1.976 2.298,1.976 h 5.168 c 1.605,0 2.162,-0.354 2.162,-1.925 v -2.922 h -8.547 v -1.875 c 0,-0.659 0.203,-0.845 1.081,-0.845 H 0.93 v -0.979 z"
             style="fill:#ffffff;fill-opacity:1;fill-rule:nonzero;stroke:none"
             id="path3113"
             inkscape:connector-curvature="0" /></g><g
           id="g3115"
           transform="translate(394.1719,115.2628)"
           style="fill:#ffffff;fill-opacity:1"><path
             d="m 0,0 c 0,0.642 -0.118,0.828 -1.03,0.828 h -5.321 c -0.912,0 -1.115,-0.186 -1.115,-0.845 V -2.111 H 0 Z m -6.249,-6.773 c -1.605,0 -2.298,0.354 -2.298,1.942 v 4.628 c 0,1.622 0.693,1.976 2.298,1.976 h 5.168 c 1.605,0 2.162,-0.354 2.162,-1.925 v -2.922 h -8.547 v -1.875 c 0,-0.659 0.203,-0.845 1.081,-0.845 H 0.93 v -0.979 z"
             style="fill:#ffffff;fill-opacity:1;fill-rule:nonzero;stroke:none"
             id="path3117"
             inkscape:connector-curvature="0" /></g><g
           id="g3119"
           transform="translate(398.2744,108.4893)"
           style="fill:#ffffff;fill-opacity:1"><path
             d="m 0,0 v 6.503 c 0,1.622 0.558,1.96 2.162,1.96 H 4.493 V 7.483 H 2.111 c -0.912,0 -1.03,-0.186 -1.03,-0.828 L 1.081,0 Z"
             style="fill:#ffffff;fill-opacity:1;fill-rule:nonzero;stroke:none"
             id="path3121"
             inkscape:connector-curvature="0" /></g><g
           id="g3123"
           transform="translate(406.9561,108.4893)"
           style="fill:#ffffff;fill-opacity:1"><path
             d="m 0,0 c -1.604,0 -2.111,0.354 -2.111,1.959 v 9.814 H -1.03 V 1.824 C -1.03,1.165 -0.912,0.979 0,0.979 H 1.858 V 0 Z"
             style="fill:#ffffff;fill-opacity:1;fill-rule:nonzero;stroke:none"
             id="path3125"
             inkscape:connector-curvature="0" /></g><path
           d="m 410.958,116.952 h 1.081 v -8.463 h -1.081 z m -0.101,3.311 h 1.283 v -1.537 h -1.283 z"
           style="fill:#ffffff;fill-opacity:1;fill-rule:nonzero;stroke:none"
           id="path3127"
           inkscape:connector-curvature="0" /><g
           id="g3129"
           transform="translate(423.7607,108.4893)"
           style="fill:#ffffff;fill-opacity:1"><path
             d="M 0,0 V 6.672 C 0,7.348 -0.22,7.517 -1.115,7.517 H -7.247 V 0 h -1.081 v 8.463 h 7.111 c 1.606,0 2.298,-0.356 2.298,-1.942 L 1.081,0 Z"
             style="fill:#ffffff;fill-opacity:1;fill-rule:nonzero;stroke:none"
             id="path3131"
             inkscape:connector-curvature="0" /></g><g
           id="g3133"
           transform="translate(436.748,116.006)"
           style="fill:#ffffff;fill-opacity:1"><path
             d="m 0,0 h -6.688 c -0.913,0 -1.116,-0.186 -1.116,-0.845 v -4.847 c 0,-0.66 0.203,-0.845 1.116,-0.845 H 0 Z m -3.75,-10.827 v 0.945 h 2.72 c 0.912,0 1.03,0.187 1.03,0.845 v 1.52 h -6.587 c -1.605,0 -2.298,0.355 -2.298,1.977 v 4.544 c 0,1.57 0.659,1.942 2.298,1.942 h 7.668 v -9.645 c 0,-1.774 -0.557,-2.128 -2.162,-2.128 z"
             style="fill:#ffffff;fill-opacity:1;fill-rule:nonzero;stroke:none"
             id="path3135"
             inkscape:connector-curvature="0" /></g></g></g></g></svg>