<?xml version="1.0" encoding="UTF-8" standalone="no"?> <!-- Created with Vectornator for iOS (http://vectornator.io/) --><!DOCTYPE svg PUBLIC "-//W3C//DTD SVG 1.1//EN" "http://www.w3.org/Graphics/SVG/1.1/DTD/svg11.dtd">
<svg style="fill-rule:evenodd;clip-rule:evenodd;stroke-linecap:round;stroke-linejoin:round;" xmlns:vectornator="http://vectornator.io" xmlns:xlink="http://www.w3.org/1999/xlink" xmlns="http://www.w3.org/2000/svg" xml:space="preserve" version="1.1" viewBox="0 0 274 22">
<metadata>
<vectornator:setting key="DimensionsVisible" value="1"/>
<vectornator:setting key="SnapToGrid" value="0"/>
<vectornator:setting key="SnapToPoints" value="0"/>
<vectornator:setting key="GuidesVisible" value="1"/>
<vectornator:setting key="RulersVisible" value="1"/>
<vectornator:setting key="SnapToEdges" value="0"/>
<vectornator:setting key="DisplayWhiteBackground" value="0"/>
<vectornator:setting key="SnapToGuides" value="1"/>
<vectornator:setting key="GridSpacing" value="36"/>
<vectornator:setting key="Units" value="Pixels"/>
<vectornator:setting key="DynamicGuides" value="0"/>
<vectornator:setting key="New" value="1"/>
</metadata>
<defs/>
<g id="Layer 1" vectornator:layerName="Layer 1">
<path d="M1+20L15.1389+20C15.4907+20+15.7407+19.9259+15.8889+19.7778C16.0556+19.6111+16.1389+19.3519+16.1389+19L16.1389+10.25C16.1389+9.8981+16.0556+9.6481+15.8889+9.5C15.7407+9.3333+15.4907+9.25+15.1389+9.25L11.1111+9.25C10.7593+9.25+10.5+9.3333+10.3333+9.5C10.1852+9.6481+10.1111+9.8981+10.1111+10.25L10.1111+14.75L6.30556+14.75L6.30556+1C6.30556+0.64815+6.22222+0.39815+6.05555+0.25C5.90741+0.0833302+5.65741+0+5.30556+0L1+0C0.648148+0+0.388889+0.0833302+0.222222+0.25C0.0740741+0.39815+0+0.64815+0+1L0+19C0+19.3519+0.0740741+19.6111+0.222222+19.7778C0.388889+19.9259+0.648148+20+1+20ZM13.25+17.5L3.02778+17.5L3.02778+2.5L3.30556+2.5L3.30556+17.2222L12.9722+17.2222L12.9722+11.75L13.25+11.75L13.25+17.5ZM20.3142+20L33.2031+20C33.555+20+33.805+19.9259+33.9531+19.7778C34.1198+19.6111+34.2031+19.3519+34.2031+19L34.2031+15.75C34.2031+15.3981+34.1198+15.1481+33.9531+15C33.805+14.8333+33.555+14.75+33.2031+14.75L25.5365+14.75L25.5365+12.3611L30.9531+12.3611C31.305+12.3611+31.555+12.287+31.7031+12.1389C31.8698+11.9722+31.9531+11.713+31.9531+11.3611L31.9531+8.3889C31.9531+8.037+31.8698+7.787+31.7031+7.6389C31.555+7.4722+31.305+7.3889+30.9531+7.3889L25.5365+7.3889L25.5365+5.25L33.2031+5.25C33.555+5.25+33.805+5.1759+33.9531+5.0278C34.1198+4.8611+34.2031+4.6019+34.2031+4.25L34.2031+1C34.2031+0.64815+34.1198+0.39815+33.9531+0.25C33.805+0.0833302+33.555+0+33.2031+0L20.3142+0C19.9624+0+19.7031+0.0833302+19.5365+0.25C19.3883+0.39815+19.3142+0.64815+19.3142+1L19.3142+19C19.3142+19.3519+19.3883+19.6111+19.5365+19.7778C19.7031+19.9259+19.9624+20+20.3142+20ZM22.6198+17.2222L31.7031+17.2222L31.7031+17.5L22.342+17.5L22.342+2.5L31.7031+2.5L31.7031+2.77778L22.6198+2.77778L22.6198+9.75L29.4531+9.75L29.4531+10.0278L22.6198+10.0278L22.6198+17.2222ZM40.2947+11.5833C40.2947+11.0833+40.3317+10.6204+40.4058+10.1944C40.4984+9.7685+40.6095+9.3704+40.7391+9L42.5169+4.4444C42.7021+3.98148+42.9058+3.59259+43.128+3.27778C43.3503+2.94444+43.7391+2.77778+44.2947+2.77778L47.0169+2.77778C47.5354+2.77778+47.9058+2.94444+48.128+3.27778C48.3503+3.59259+48.5632+3.99074+48.7669+4.4722L50.6836+9C50.8132+9.3704+50.9151+9.7685+50.9891+10.1944C51.0817+10.6204+51.128+11.0833+51.128+11.5833L51.128+12.4444L40.2947+12.4444L40.2947+11.5833ZM44.7391+5.8333L43.4336+10.0556L47.7947+10.0556L46.4891+5.8333C46.4151+5.6667+46.3317+5.5463+46.2391+5.4722C46.1651+5.3981+46.0725+5.3611+45.9614+5.3611L45.2669+5.3611C45.1558+5.3611+45.054+5.3981+44.9614+5.4722C44.8873+5.5463+44.8132+5.6667+44.7391+5.8333ZM51.128+17.5L51.4058+17.5L51.4058+11.5833C51.4058+11.0648+51.3595+10.5926+51.2669+10.1667C51.1928+9.7222+51.0817+9.2963+50.9336+8.8889L49.0169+4.3611C48.7947+3.82407+48.554+3.37963+48.2947+3.02778C48.054+2.67593+47.628+2.5+47.0169+2.5L44.2947+2.5C43.6651+2.5+43.2206+2.67593+42.9614+3.02778C42.7021+3.37963+42.4706+3.81482+42.2669+4.3333L40.4891+8.8889C40.341+9.2963+40.2206+9.7222+40.128+10.1667C40.054+10.5926+40.0169+11.0648+40.0169+11.5833L40.0169+17.5L40.2947+17.5L40.2947+12.7222L51.128+12.7222L51.128+17.5ZM43.1558+19C43.1558+19.3519+43.0725+19.6111+42.9058+19.7778C42.7577+19.9259+42.5077+20+42.1558+20L38.0725+20C37.7206+20+37.4614+19.9259+37.2947+19.7778C37.1466+19.6111+37.0725+19.3519+37.0725+19L37.0725+11.6667C37.0725+11.1111+37.1558+10.4722+37.3225+9.75C37.5077+9.0278+37.7854+8.1852+38.1558+7.2222L40.5725+0.91667C40.6836+0.60185+40.8503+0.37037+41.0725+0.22222C41.3132+0.07407+41.6188+0+41.9891+0L49.4614+0C49.8132+0+50.1003+0.07407+50.3225+0.22222C50.5632+0.37037+50.7391+0.60185+50.8503+0.91667L53.2669+7.2222C53.6373+8.1852+53.9058+9.0278+54.0725+9.75C54.2577+10.4722+54.3503+11.1111+54.3503+11.6667L54.3503+19C54.3503+19.3519+54.2669+19.6111+54.1003+19.7778C53.9521+19.9259+53.7021+20+53.3503+20L49.1558+20C48.7854+20+48.5077+19.9259+48.3225+19.7778C48.1558+19.6111+48.0725+19.3519+48.0725+19L48.0725+15.1111L43.1558+15.1111L43.1558+19ZM58.7799+20L63.0855+20C63.4373+20+63.6874+19.9259+63.8355+19.7778C64.0022+19.6111+64.0855+19.3519+64.0855+19L64.0855+14.3889L67.2799+14.3889C69.7985+14.3889+71.5207+13.8889+72.4466+12.8889C73.3725+11.8889+73.8355+10.5833+73.8355+8.9722L73.8355+5.4167C73.8355+3.80555+73.3725+2.5+72.4466+1.5C71.5207+0.5+69.7985+0+67.2799+0L58.7799+0C58.4281+0+58.1688+0.0833302+58.0022+0.25C57.854+0.39815+57.7799+0.64815+57.7799+1L57.7799+19C57.7799+19.3519+57.854+19.6111+58.0022+19.7778C58.1688+19.9259+58.4281+20+58.7799+20ZM69.0022+11.75C68.4651+11.9352+67.7614+12.0278+66.8911+12.0278L61.1688+12.0278L61.1688+17.5L60.8911+17.5L60.8911+2.5L66.8911+2.5C67.7614+2.5+68.4651+2.60185+69.0022+2.80556C69.5577+2.99074+69.9836+3.25+70.2799+3.58333C70.5762+3.91667+70.7799+4.3148+70.8911+4.7778C71.0022+5.2407+71.0577+5.7407+71.0577+6.2778L71.0577+8.3333C71.0577+8.8704+71.0022+9.3704+70.8911+9.8333C70.7799+10.2778+70.5762+10.6667+70.2799+11C69.9836+11.3148+69.5577+11.5648+69.0022+11.75ZM61.1688+2.77778L61.1688+11.75L66.8911+11.75C67.7059+11.75+68.3633+11.6667+68.8633+11.5C69.3818+11.3333+69.7799+11.1019+70.0577+10.8056C70.3355+10.4907+70.5207+10.1296+70.6133+9.7222C70.7244+9.2963+70.7799+8.8333+70.7799+8.3333L70.7799+6.2778C70.7799+5.7778+70.7244+5.3148+70.6133+4.8889C70.5207+4.463+70.3355+4.0926+70.0577+3.77778C69.7799+3.46296+69.3818+3.22222+68.8633+3.05556C68.3633+2.87037+67.7059+2.77778+66.8911+2.77778L61.1688+2.77778ZM64.0299+9.3889L64.0299+5.1944L66.5299+5.1944C67.067+5.1944+67.4188+5.3333+67.5855+5.6111C67.7522+5.8889+67.8355+6.2037+67.8355+6.5556L67.8355+8.0278C67.8355+8.3796+67.7522+8.6944+67.5855+8.9722C67.4188+9.25+67.067+9.3889+66.5299+9.3889L64.0299+9.3889ZM79.7144+17.5L79.9922+17.5L79.9922+10.1389L90.6589+10.1389L90.6589+17.5L90.9366+17.5L90.9366+2.5L90.6589+2.5L90.6589+9.8611L79.9922+9.8611L79.9922+2.5L79.7144+2.5L79.7144+17.5ZM82.02+20L77.7144+20C77.3625+20+77.1033+19.9259+76.9366+19.7778C76.7885+19.6111+76.7144+19.3519+76.7144+19L76.7144+1C76.7144+0.64815+76.7885+0.39815+76.9366+0.25C77.1033+0.0833302+77.3625+0+77.7144+0L82.02+0C82.3718+0+82.6218+0.0833302+82.77+0.25C82.9366+0.39815+83.02+0.64815+83.02+1L83.02+7.0278L87.6589+7.0278L87.6589+1C87.6589+0.64815+87.7329+0.39815+87.8811+0.25C88.0477+0.0833302+88.307+0+88.6589+0L92.9644+0C93.3163+0+93.5663+0.0833302+93.7144+0.25C93.8811+0.39815+93.9644+0.64815+93.9644+1L93.9644+19C93.9644+19.3519+93.8811+19.6111+93.7144+19.7778C93.5663+19.9259+93.3163+20+92.9644+20L88.6589+20C88.307+20+88.0477+19.9259+87.8811+19.7778C87.7329+19.6111+87.6589+19.3519+87.6589+19L87.6589+12.8333L83.02+12.8333L83.02+19C83.02+19.3519+82.9366+19.6111+82.77+19.7778C82.6218+19.9259+82.3718+20+82.02+20ZM103.431+20L107.931+20C108.283+20+108.533+19.9259+108.681+19.7778C108.847+19.6111+108.931+19.3519+108.931+19L108.931+17.0627C114.021+20.7904+120.909+20.095+125.344+14.2017L125.331+14.2022C125.21+14.2029+124.183+14.1388+119.614+12.1723C113.443+9.5171+110.898+16.4423+110.898+16.4423L110.935+16.4626C111.398+16.712+116.142+19.1281+120.524+15.9829L120.492+16.0123C120.097+16.3754+115.999+19.9377+110.278+17.1897C109.867+16.9921+109.403+16.7315+108.931+16.4304L108.931+15.4722L113.153+9.75C113.56+9.1759+113.838+8.6759+113.986+8.25C114.134+7.8241+114.209+7.1852+114.209+6.3333L114.209+1C114.209+0.64815+114.125+0.39815+113.959+0.25C113.81+0.0833302+113.56+0+113.209+0L109.07+0C108.718+0+108.459+0.0833302+108.292+0.25C108.144+0.39815+108.07+0.64815+108.07+1L108.07+5.5556C108.07+5.7407+108.06+5.9352+108.042+6.1389C108.023+6.3426+107.949+6.537+107.82+6.7222L106.542+8.7222C106.449+8.8889+106.347+9.0093+106.236+9.0833C106.144+9.1574+106.023+9.1944+105.875+9.1944L105.597+9.1944C105.449+9.1944+105.32+9.1574+105.209+9.0833C105.116+9.0093+105.023+8.8889+104.931+8.7222L103.653+6.7222C103.523+6.537+103.449+6.3426+103.431+6.1389C103.412+5.9352+103.403+5.7407+103.403+5.5556L103.403+1C103.403+0.64815+103.32+0.39815+103.153+0.25C103.005+0.0833302+102.755+0+102.403+0L98.1252+0C97.7734+0+97.5141+0.0833302+97.3474+0.25C97.1993+0.39815+97.1252+0.64815+97.1252+1L97.1252+6.3333C97.1252+7.1852+97.19+7.8241+97.3196+8.25C97.4678+8.6759+97.7548+9.1759+98.1808+9.75L102.431+15.4444L102.431+19C102.431+19.3519+102.505+19.6111+102.653+19.7778C102.82+19.9259+103.079+20+103.431+20ZM107.125+12.4722C106.81+12.6574+106.44+12.75+106.014+12.75L105.82+12.75L105.82+17.5L105.542+17.5L105.542+12.75L105.264+12.75C104.857+12.75+104.486+12.6574+104.153+12.4722C103.838+12.287+103.533+11.9907+103.236+11.5833L100.542+7.8333C100.338+7.5556+100.218+7.2315+100.181+6.8611C100.144+6.4907+100.125+6.1019+100.125+5.6944L100.125+2.5L100.403+2.5L100.403+5.6944C100.403+6.0833+100.422+6.4537+100.459+6.8056C100.496+7.1389+100.607+7.4444+100.792+7.7222L103.486+11.4722C103.727+11.8426+104.005+12.1019+104.32+12.25C104.634+12.3981+104.949+12.4722+105.264+12.4722L106.014+12.4722C106.366+12.4722+106.681+12.3981+106.959+12.25C107.255+12.0833+107.542+11.8241+107.82+11.4722L110.597+7.7222C110.783+7.4815+110.894+7.1852+110.931+6.8333C110.968+6.463+110.986+6.0833+110.986+5.6944L110.986+2.5L111.264+2.5L111.264+5.6944C111.264+6.1019+111.246+6.4907+111.209+6.8611C111.19+7.213+111.07+7.537+110.847+7.8333L108.07+11.5833C107.773+11.9907+107.459+12.287+107.125+12.4722Z" fill-rule="evenodd" fill="#ffffff" opacity="1"/>
<path d="M141.248+0.17578C141.626+0.17578+142.008+0.18994+142.395+0.21826C142.782+0.24658+143.132+0.32682+143.443+0.45898C143.755+0.59115+144.01+0.79411+144.208+1.06787C144.406+1.33219+144.505+1.70508+144.505+2.18652C144.505+2.66797+144.406+3.04557+144.208+3.31934C144.01+3.58366+143.755+3.7819+143.443+3.91406C143.132+4.0462+142.782+4.1265+142.395+4.1548C142.008+4.1831+141.626+4.1973+141.248+4.1973L137.878+4.1973L137.878+8.0488L139.662+8.0488C140.04+8.0488+140.418+8.063+140.795+8.0913C141.182+8.1102+141.522+8.1857+141.815+8.3179C142.117+8.4406+142.362+8.6341+142.551+8.8984C142.74+9.1533+142.834+9.512+142.834+9.9746C142.834+10.4466+142.74+10.8101+142.551+11.0649C142.362+11.3198+142.117+11.5133+141.815+11.6455C141.522+11.7682+141.182+11.8438+140.795+11.8721C140.418+11.891+140.04+11.9004+139.662+11.9004L137.878+11.9004L137.878+15.9785L141.248+15.9785C141.626+15.9785+142.008+15.9927+142.395+16.021C142.782+16.0493+143.132+16.1296+143.443+16.2617C143.755+16.3844+144.01+16.5827+144.208+16.8564C144.406+17.1208+144.505+17.4889+144.505+17.9609C144.505+18.4518+144.401+18.8341+144.194+19.1079C143.995+19.3817+143.74+19.5846+143.429+19.7168C143.117+19.849+142.768+19.9292+142.381+19.9575C141.994+19.9858+141.616+20+141.248+20L135.698+20C135.169+20+134.758+19.9056+134.466+19.7168C134.182+19.528+133.975+19.2826+133.843+18.9805C133.71+18.6689+133.63+18.3197+133.602+17.9326C133.583+17.5456+133.573+17.1491+133.573+16.7432L133.573+3.43262C133.573+3.02669+133.583+2.63021+133.602+2.24316C133.63+1.85612+133.71+1.51156+133.843+1.20947C133.975+0.89795+134.182+0.64779+134.466+0.45898C134.758+0.27018+135.169+0.17578+135.698+0.17578L141.248+0.17578ZM152.292+11.4473L156.795+11.4473L154.699+3.85742L154.388+3.85742L152.292+11.4473ZM161.185+12.835C161.204+13.4769+161.227+14.133+161.255+14.8032C161.284+15.4735+161.298+16.1201+161.298+16.7432L161.298+17.168C161.298+17.5267+161.284+17.876+161.255+18.2158C161.237+18.5462+161.166+18.8483+161.043+19.1221C160.92+19.3864+160.727+19.5988+160.462+19.7593C160.198+19.9198+159.825+20+159.344+20C158.853+20+158.475+19.9198+158.211+19.7593C157.947+19.5988+157.748+19.3864+157.616+19.1221C157.494+18.8577+157.418+18.5557+157.39+18.2158C157.371+17.876+157.361+17.5267+157.361+17.168L157.361+15.1855L151.697+15.1855L151.697+17.168C151.697+17.5267+151.683+17.876+151.655+18.2158C151.636+18.5557+151.56+18.8577+151.428+19.1221C151.306+19.3864+151.112+19.5988+150.848+19.7593C150.583+19.9198+150.206+20+149.715+20C149.224+20+148.846+19.9198+148.582+19.7593C148.318+19.5988+148.124+19.3864+148.002+19.1221C147.879+18.8483+147.808+18.5462+147.789+18.2158C147.77+17.876+147.761+17.5267+147.761+17.168L147.761+16.7432C147.761+16.4505+147.761+16.139+147.761+15.8086C147.77+15.4782+147.78+15.1431+147.789+14.8032C147.799+14.4634+147.808+14.1283+147.817+13.7979C147.827+13.458+147.836+13.137+147.846+12.835C148.318+11.1924+148.813+9.5309+149.333+7.8506C149.852+6.1608+150.347+4.4899+150.819+2.83789C150.914+2.48861+151.027+2.15348+151.159+1.83252C151.291+1.50212+151.466+1.21891+151.683+0.98291C151.9+0.73747+152.179+0.54395+152.519+0.40234C152.858+0.2513+153.293+0.17578+153.821+0.17578L155.237+0.17578C155.757+0.17578+156.186+0.2513+156.526+0.40234C156.875+0.54395+157.158+0.73747+157.376+0.98291C157.593+1.21891+157.763+1.50212+157.885+1.83252C158.018+2.15348+158.136+2.48861+158.239+2.83789L161.185+12.835ZM169.142+5.1602C169.151+5.5566+169.264+5.9154+169.481+6.2363C169.708+6.5479+170.001+6.8452+170.359+7.1284C170.727+7.4116+171.143+7.6901+171.605+7.9639C172.068+8.2282+172.54+8.5114+173.021+8.8135C173.512+9.1061+173.989+9.4271+174.452+9.7764C174.914+10.1257+175.33+10.5221+175.698+10.9658C176.066+11.4095+176.363+11.9098+176.59+12.4668C176.816+13.0238+176.939+13.6562+176.958+14.3643L176.958+14.4775C176.958+15.2516+176.864+15.9266+176.675+16.5024C176.486+17.0783+176.236+17.5739+175.924+17.9893C175.613+18.4046+175.249+18.7492+174.834+19.0229C174.419+19.2873+173.98+19.4997+173.517+19.6602C173.064+19.8206+172.601+19.9339+172.129+20C171.667+20.0661+171.228+20.1038+170.812+20.1133L170.671+20.1133C169.868+20.1133+169.165+20.033+168.561+19.8726C167.957+19.7121+167.438+19.4997+167.003+19.2354C166.569+18.9616+166.206+18.6501+165.913+18.3008C165.63+17.9515+165.403+17.5928+165.233+17.2246C165.063+16.847+164.941+16.4741+164.865+16.106C164.79+15.7378+164.752+15.3932+164.752+15.0723C164.752+14.7419+164.809+14.4539+164.922+14.2085C165.035+13.9631+165.181+13.7648+165.361+13.6138C165.55+13.4533+165.762+13.3353+165.998+13.2598C166.243+13.1842+166.498+13.1465+166.763+13.1465C167.008+13.1465+167.258+13.1842+167.513+13.2598C167.777+13.3353+168.013+13.4533+168.221+13.6138C168.438+13.7648+168.613+13.9631+168.745+14.2085C168.887+14.4445+168.962+14.723+168.972+15.0439C168.99+15.752+169.151+16.2381+169.453+16.5024C169.755+16.7573+170.189+16.8848+170.756+16.8848C171.039+16.8753+171.299+16.8423+171.535+16.7856C171.78+16.7196+171.988+16.611+172.158+16.46C172.328+16.2995+172.46+16.0918+172.554+15.8369C172.658+15.5726+172.71+15.2422+172.71+14.8457C172.71+14.3548+172.597+13.9111+172.37+13.5146C172.153+13.1182+171.865+12.75+171.506+12.4102C171.148+12.0703+170.737+11.7493+170.274+11.4473C169.812+11.1357+169.34+10.8289+168.858+10.5269C168.377+10.2153+167.905+9.8944+167.442+9.564C166.989+9.2241+166.579+8.856+166.21+8.4595C165.842+8.063+165.545+7.624+165.318+7.1426C165.101+6.6611+164.988+6.1136+164.978+5.5L164.978+5.2734C164.988+4.2633+165.12+3.42318+165.375+2.75293C165.639+2.08268+166.022+1.54932+166.522+1.15283C167.032+0.75635+167.655+0.47786+168.391+0.31738C169.127+0.14746+169.972+0.0625+170.926+0.0625L171.294+0.0625C172.162+0.0625+172.899+0.1569+173.503+0.3457C174.107+0.53451+174.607+0.77523+175.004+1.06787C175.41+1.36051+175.726+1.69092+175.953+2.05908C176.189+2.42725+176.363+2.79069+176.476+3.14941C176.59+3.50814+176.661+3.84326+176.689+4.1548C176.717+4.4663+176.731+4.7165+176.731+4.9053C176.731+5.1885+176.675+5.4481+176.561+5.6841C176.458+5.9106+176.311+6.1042+176.122+6.2646C175.943+6.4251+175.726+6.5526+175.471+6.647C175.226+6.7319+174.957+6.7744+174.664+6.7744C174.437+6.7744+174.211+6.7319+173.984+6.647C173.758+6.5526+173.555+6.4346+173.375+6.293C173.196+6.1514+173.05+5.9909+172.936+5.8115C172.823+5.6227+172.767+5.4339+172.767+5.2451C172.767+4.471+172.625+3.93294+172.342+3.63086C172.068+3.32878+171.662+3.17773+171.124+3.17773C170.869+3.17773+170.619+3.19189+170.373+3.22021C170.137+3.24854+169.925+3.32878+169.736+3.46094C169.557+3.58366+169.411+3.77718+169.297+4.0415C169.193+4.3058+169.142+4.6787+169.142+5.1602ZM188.285+16.7998C188.285+17.1963+188.266+17.5881+188.228+17.9751C188.191+18.3527+188.101+18.6925+187.959+18.9946C187.818+19.2967+187.605+19.5422+187.322+19.731C187.039+19.9103+186.652+20+186.161+20C185.661+20+185.269+19.9103+184.986+19.731C184.702+19.5422+184.485+19.2967+184.334+18.9946C184.193+18.6925+184.103+18.3527+184.065+17.9751C184.027+17.5881+184.009+17.1963+184.009+16.7998L184.009+11.8721L179.789+4.3389C179.562+3.94238+179.345+3.55534+179.137+3.17773C178.93+2.79069+178.826+2.40365+178.826+2.0166C178.826+1.76172+178.897+1.50684+179.038+1.25195C179.189+0.98763+179.458+0.74219+179.845+0.51562C180.27+0.28906+180.667+0.17578+181.035+0.17578C181.318+0.17578+181.573+0.24186+181.8+0.37402C182.036+0.49674+182.248+0.66195+182.437+0.86963C182.626+1.07731+182.796+1.31331+182.947+1.57764C183.098+1.83252+183.234+2.09212+183.357+2.35645L185.934+7.7656L186.387+7.7656L188.965+2.35645C189.087+2.09212+189.224+1.83252+189.375+1.57764C189.526+1.31331+189.696+1.07731+189.885+0.86963C190.074+0.66195+190.282+0.49674+190.508+0.37402C190.744+0.24186+191.004+0.17578+191.287+0.17578C191.485+0.17578+191.679+0.2041+191.867+0.26074C192.056+0.31738+192.259+0.40234+192.476+0.51562C192.845+0.74219+193.104+0.98763+193.255+1.25195C193.416+1.50684+193.496+1.76172+193.496+2.0166C193.496+2.18652+193.42+2.46501+193.269+2.85205C193.118+3.22965+192.873+3.72526+192.533+4.3389L188.285+11.8721L188.285+16.7998ZM202.302+0.17578C203.143+0.17578+203.931+0.28434+204.667+0.50146C205.413+0.71859+206.06+1.04427+206.607+1.47852C207.164+1.91276+207.598+2.45557+207.91+3.10693C208.231+3.74886+208.391+4.4993+208.391+5.3584C208.391+5.8021+208.33+6.208+208.207+6.5762C208.094+6.9349+207.943+7.2606+207.754+7.5532C207.575+7.8459+207.372+8.1007+207.145+8.3179C206.928+8.535+206.716+8.7238+206.508+8.8843C206.3+9.0353+206.116+9.158+205.956+9.2524C205.795+9.3374+205.682+9.3893+205.616+9.4082C206.182+9.5687+206.659+9.7764+207.046+10.0312C207.433+10.2767+207.754+10.5505+208.009+10.8525C208.273+11.1452+208.476+11.452+208.618+11.7729C208.769+12.0845+208.877+12.3913+208.943+12.6934C209.019+12.986+209.061+13.2598+209.071+13.5146C209.09+13.7601+209.099+13.9583+209.099+14.1094C209.099+14.8457+209.01+15.4971+208.83+16.0635C208.651+16.6204+208.415+17.1066+208.122+17.522C207.83+17.9279+207.494+18.2772+207.117+18.5698C206.739+18.853+206.357+19.0843+205.97+19.2637C205.045+19.6979+204.002+19.9434+202.84+20L198.196+20C197.658+20+197.242+19.9103+196.95+19.731C196.657+19.5422+196.445+19.2967+196.313+18.9946C196.18+18.6831+196.1+18.3338+196.072+17.9468C196.053+17.5597+196.044+17.1585+196.044+16.7432L196.044+3.4043C196.044+2.99837+196.053+2.60189+196.072+2.21484C196.1+1.8278+196.18+1.48324+196.313+1.18115C196.445+0.87907+196.657+0.63835+196.95+0.45898C197.242+0.27018+197.658+0.17578+198.196+0.17578L202.302+0.17578ZM200.348+11.334L200.348+16.6582L202.416+16.6582C202.859+16.6393+203.256+16.5355+203.605+16.3467C203.756+16.2712+203.902+16.172+204.044+16.0493C204.186+15.9266+204.313+15.7756+204.426+15.5962C204.54+15.4074+204.629+15.195+204.695+14.959C204.762+14.7135+204.795+14.4303+204.795+14.1094C204.795+13.7601+204.757+13.458+204.681+13.2031C204.615+12.9388+204.521+12.7122+204.398+12.5234C204.285+12.3252+204.153+12.16+204.002+12.0278C203.851+11.8862+203.699+11.7729+203.548+11.688C203.18+11.4897+202.765+11.3717+202.302+11.334L200.348+11.334ZM200.348+3.51758L200.348+8.332L202.161+8.332C202.567+8.3132+202.93+8.2188+203.251+8.0488C203.383+7.9827+203.515+7.8931+203.648+7.7798C203.78+7.6665+203.898+7.5343+204.002+7.3833C204.105+7.2228+204.186+7.034+204.242+6.8169C204.308+6.5998+204.341+6.3496+204.341+6.0664C204.341+5.7454+204.308+5.467+204.242+5.231C204.176+4.9855+204.087+4.7778+203.973+4.6079C203.869+4.4285+203.747+4.2775+203.605+4.1548C203.473+4.0321+203.336+3.92822+203.194+3.84326C202.855+3.6639+202.472+3.55534+202.047+3.51758L200.348+3.51758ZM213.658+3.43262C213.658+3.02669+213.677+2.63021+213.714+2.24316C213.752+1.85612+213.842+1.51156+213.983+1.20947C214.134+0.89795+214.352+0.64779+214.635+0.45898C214.918+0.27018+215.31+0.17578+215.81+0.17578C216.348+0.17578+216.768+0.27018+217.07+0.45898C217.372+0.64779+217.594+0.89795+217.736+1.20947C217.877+1.51156+217.962+1.85612+217.991+2.24316C218.028+2.63021+218.047+3.02669+218.047+3.43262L218.047+15.8369L220.823+15.8369C221.21+15.8369+221.592+15.8558+221.97+15.8936C222.347+15.9313+222.682+16.021+222.975+16.1626C223.277+16.3042+223.518+16.5119+223.697+16.7856C223.877+17.0594+223.966+17.4323+223.966+17.9043C223.966+18.3857+223.877+18.7681+223.697+19.0513C223.518+19.325+223.277+19.5327+222.975+19.6743C222.682+19.8159+222.347+19.9056+221.97+19.9434C221.592+19.9811+221.21+20+220.823+20L216.801+20C216.301+20+215.857+19.9811+215.47+19.9434C215.083+19.9056+214.753+19.8159+214.479+19.6743C214.215+19.5327+214.012+19.325+213.87+19.0513C213.728+18.7681+213.658+18.3857+213.658+17.9043L213.658+3.43262ZM227.477+5.7832C227.477+4.877+227.609+4.1076+227.873+3.4751C228.138+2.83317+228.473+2.2998+228.879+1.875C229.294+1.4502+229.747+1.11979+230.238+0.88379C230.738+0.63835+231.22+0.45426+231.682+0.33154C232.154+0.20882+232.579+0.1333+232.957+0.10498C233.334+0.0766602+233.613+0.0625+233.792+0.0625L234.274+0.0625C234.453+0.0625+234.732+0.0766602+235.109+0.10498C235.487+0.1333+235.907+0.20882+236.369+0.33154C236.832+0.45426+237.309+0.63835+237.8+0.88379C238.3+1.11979+238.748+1.4502+239.145+1.875C239.551+2.2998+239.881+2.83317+240.136+3.4751C240.4+4.1076+240.533+4.877+240.533+5.7832L240.533+14.251C240.533+15.1855+240.4+15.9785+240.136+16.6299C239.881+17.2812+239.551+17.8241+239.145+18.2583C238.748+18.6925+238.3+19.0371+237.8+19.292C237.309+19.5374+236.832+19.7215+236.369+19.8442C235.907+19.967+235.487+20.0425+235.109+20.0708C234.732+20.0991+234.453+20.1133+234.274+20.1133L233.792+20.1133C233.613+20.1133+233.334+20.0991+232.957+20.0708C232.579+20.0425+232.154+19.967+231.682+19.8442C231.22+19.7215+230.738+19.5374+230.238+19.292C229.747+19.0371+229.294+18.6925+228.879+18.2583C228.473+17.8241+228.138+17.2812+227.873+16.6299C227.609+15.9785+227.477+15.1855+227.477+14.251L227.477+5.7832ZM232.178+14.7891C232.197+15.1383+232.277+15.4451+232.419+15.7095C232.541+15.9455+232.726+16.1579+232.971+16.3467C233.226+16.5355+233.585+16.6299+234.047+16.6299C234.5+16.6299+234.85+16.5355+235.095+16.3467C235.34+16.1579+235.525+15.9455+235.647+15.7095C235.779+15.4451+235.86+15.1383+235.888+14.7891L235.888+5.5566C235.86+5.2168+235.779+4.91+235.647+4.6362C235.525+4.4097+235.34+4.202+235.095+4.0132C234.85+3.81494+234.5+3.71582+234.047+3.71582C233.585+3.71582+233.226+3.81494+232.971+4.0132C232.726+4.202+232.541+4.4097+232.419+4.6362C232.277+4.91+232.197+5.2168+232.178+5.5566L232.178+14.7891ZM244.864+5.8115C244.864+4.8958+244.997+4.117+245.261+3.4751C245.525+2.83317+245.86+2.2998+246.266+1.875C246.682+1.44076+247.135+1.10563+247.626+0.86963C248.126+0.62419+248.607+0.44482+249.07+0.33154C249.542+0.20882+249.967+0.1333+250.344+0.10498C250.722+0.0766602+251+0.0625+251.18+0.0625L251.661+0.0625C251.841+0.0625+252.114+0.0766602+252.483+0.10498C252.86+0.1333+253.28+0.20882+253.743+0.33154C254.215+0.44482+254.696+0.62419+255.187+0.86963C255.678+1.10563+256.126+1.44076+256.532+1.875C256.938+2.2998+257.269+2.83317+257.524+3.4751C257.788+4.117+257.92+4.8958+257.92+5.8115L257.92+14.251C257.92+14.959+257.835+15.5915+257.665+16.1484C257.505+16.7054+257.288+17.2057+257.014+17.6494L258.43+18.9238C258.562+19.056+258.675+19.1976+258.77+19.3486C258.864+19.4902+258.911+19.7262+258.911+20.0566C258.911+20.1982+258.878+20.3634+258.812+20.5522C258.746+20.7505+258.619+20.944+258.43+21.1328C258.241+21.3027+258.052+21.416+257.863+21.4727C257.684+21.5293+257.514+21.5576+257.354+21.5576C257.023+21.5576+256.773+21.5104+256.603+21.416C256.433+21.3311+256.296+21.2367+256.193+21.1328L254.607+19.6318C254.248+19.7546+253.913+19.849+253.601+19.915C253.299+19.9811+253.021+20.0283+252.766+20.0566C252.52+20.085+252.303+20.0991+252.114+20.0991C251.926+20.1086+251.775+20.1133+251.661+20.1133L251.18+20.1133C251+20.1133+250.722+20.0991+250.344+20.0708C249.967+20.0425+249.542+19.967+249.07+19.8442C248.607+19.7215+248.126+19.5374+247.626+19.292C247.135+19.0371+246.682+18.6925+246.266+18.2583C245.86+17.8241+245.525+17.2812+245.261+16.6299C244.997+15.9785+244.864+15.1855+244.864+14.251L244.864+5.8115ZM249.566+14.7891C249.584+15.1383+249.665+15.4451+249.806+15.7095C249.929+15.9455+250.113+16.1579+250.359+16.3467C250.613+16.5355+250.972+16.6299+251.435+16.6299C251.888+16.6299+252.237+16.5355+252.483+16.3467C252.728+16.1579+252.912+15.9455+253.035+15.7095C253.167+15.4451+253.247+15.1383+253.276+14.7891L253.276+5.5566C253.247+5.2168+253.167+4.9147+253.035+4.6504C252.912+4.4238+252.728+4.2161+252.483+4.0273C252.237+3.83854+251.888+3.74414+251.435+3.74414C250.972+3.74414+250.613+3.83854+250.359+4.0273C250.113+4.2161+249.929+4.4238+249.806+4.6504C249.665+4.9147+249.584+5.2168+249.566+5.5566L249.566+14.7891ZM266.302+5.1602C266.311+5.5566+266.424+5.9154+266.642+6.2363C266.868+6.5479+267.161+6.8452+267.52+7.1284C267.888+7.4116+268.303+7.6901+268.766+7.9639C269.228+8.2282+269.7+8.5114+270.182+8.8135C270.672+9.1061+271.149+9.4271+271.612+9.7764C272.074+10.1257+272.49+10.5221+272.858+10.9658C273.226+11.4095+273.523+11.9098+273.75+12.4668C273.977+13.0238+274.099+13.6562+274.118+14.3643L274.118+14.4775C274.118+15.2516+274.024+15.9266+273.835+16.5024C273.646+17.0783+273.396+17.5739+273.084+17.9893C272.773+18.4046+272.409+18.7492+271.994+19.0229C271.579+19.2873+271.14+19.4997+270.677+19.6602C270.224+19.8206+269.762+19.9339+269.29+20C268.827+20.0661+268.388+20.1038+267.973+20.1133L267.831+20.1133C267.029+20.1133+266.325+20.033+265.721+19.8726C265.117+19.7121+264.598+19.4997+264.164+19.2354C263.729+18.9616+263.366+18.6501+263.073+18.3008C262.79+17.9515+262.563+17.5928+262.394+17.2246C262.224+16.847+262.101+16.4741+262.025+16.106C261.95+15.7378+261.912+15.3932+261.912+15.0723C261.912+14.7419+261.969+14.4539+262.082+14.2085C262.195+13.9631+262.342+13.7648+262.521+13.6138C262.71+13.4533+262.922+13.3353+263.158+13.2598C263.404+13.1842+263.658+13.1465+263.923+13.1465C264.168+13.1465+264.418+13.1842+264.673+13.2598C264.938+13.3353+265.174+13.4533+265.381+13.6138C265.598+13.7648+265.773+13.9631+265.905+14.2085C266.047+14.4445+266.122+14.723+266.132+15.0439C266.151+15.752+266.311+16.2381+266.613+16.5024C266.915+16.7573+267.35+16.8848+267.916+16.8848C268.199+16.8753+268.459+16.8423+268.695+16.7856C268.94+16.7196+269.148+16.611+269.318+16.46C269.488+16.2995+269.62+16.0918+269.714+15.8369C269.818+15.5726+269.87+15.2422+269.87+14.8457C269.87+14.3548+269.757+13.9111+269.53+13.5146C269.313+13.1182+269.025+12.75+268.666+12.4102C268.308+12.0703+267.897+11.7493+267.435+11.4473C266.972+11.1357+266.5+10.8289+266.019+10.5269C265.537+10.2153+265.065+9.8944+264.603+9.564C264.149+9.2241+263.739+8.856+263.371+8.4595C263.002+8.063+262.705+7.624+262.478+7.1426C262.261+6.6611+262.148+6.1136+262.139+5.5L262.139+5.2734C262.148+4.2633+262.28+3.42318+262.535+2.75293C262.799+2.08268+263.182+1.54932+263.682+1.15283C264.192+0.75635+264.815+0.47786+265.551+0.31738C266.288+0.14746+267.132+0.0625+268.086+0.0625L268.454+0.0625C269.323+0.0625+270.059+0.1569+270.663+0.3457C271.267+0.53451+271.768+0.77523+272.164+1.06787C272.57+1.36051+272.886+1.69092+273.113+2.05908C273.349+2.42725+273.523+2.79069+273.637+3.14941C273.75+3.50814+273.821+3.84326+273.849+4.1548C273.877+4.4663+273.892+4.7165+273.892+4.9053C273.892+5.1885+273.835+5.4481+273.722+5.6841C273.618+5.9106+273.471+6.1042+273.283+6.2646C273.103+6.4251+272.886+6.5526+272.631+6.647C272.386+6.7319+272.117+6.7744+271.824+6.7744C271.598+6.7744+271.371+6.7319+271.145+6.647C270.918+6.5526+270.715+6.4346+270.536+6.293C270.356+6.1514+270.21+5.9909+270.097+5.8115C269.983+5.6227+269.927+5.4339+269.927+5.2451C269.927+4.471+269.785+3.93294+269.502+3.63086C269.228+3.32878+268.822+3.17773+268.284+3.17773C268.029+3.17773+267.779+3.19189+267.534+3.22021C267.298+3.24854+267.085+3.32878+266.896+3.46094C266.717+3.58366+266.571+3.77718+266.457+4.0415C266.354+4.3058+266.302+4.6787+266.302+5.1602Z" opacity="1" fill="#ffffff"/>
</g>
</svg>
