<?xml version="1.0" encoding="UTF-8" standalone="no"?> <!-- Created with Vectornator for iOS (http://vectornator.io/) --><!DOCTYPE svg PUBLIC "-//W3C//DTD SVG 1.1//EN" "http://www.w3.org/Graphics/SVG/1.1/DTD/svg11.dtd">
<svg style="fill-rule:evenodd;clip-rule:evenodd;stroke-linecap:round;stroke-linejoin:round;" xmlns:vectornator="http://vectornator.io" xmlns:xlink="http://www.w3.org/1999/xlink" xmlns="http://www.w3.org/2000/svg" xml:space="preserve" version="1.1" viewBox="0 0 264 43">
<metadata>
<vectornator:setting key="DynamicGuides" value="1"/>
<vectornator:setting key="Units" value="Pixels"/>
<vectornator:setting key="GuidesVisible" value="1"/>
<vectornator:setting key="RulersVisible" value="1"/>
<vectornator:setting key="SnapToGuides" value="1"/>
<vectornator:setting key="GridSpacing" value="36"/>
</metadata>
<defs/>
<g id="Untitled" vectornator:layerName="Untitled">
<path d="M2.1026+42.0528L31.8316+42.0528C32.5714+42.0528+33.0971+41.8971+33.4086+41.5856C33.759+41.2351+33.9343+40.69+33.9343+39.9502L33.9343+21.5521C33.9343+20.8123+33.759+20.2866+33.4086+19.9751C33.0971+19.6247+32.5714+19.4494+31.8316+19.4494L23.3627+19.4494C22.6228+19.4494+22.0777+19.6247+21.7273+19.9751C21.4158+20.2866+21.26+20.8123+21.26+21.5521L21.26+31.0139L13.2583+31.0139L13.2583+2.1027C13.2583+1.3628+13.0831+0.837196+12.7326+0.5257C12.4211+0.175198+11.8955+0+11.1557+0L2.1026+0C1.3628+0+0.817699+0.175198+0.467201+0.5257C0.155701+0.837196+0+1.3628+0+2.1027L0+39.9502C0+40.69+0.155701+41.2351+0.467201+41.5856C0.817699+41.8971+1.3628+42.0528+2.1026+42.0528ZM27.86+36.7962L6.3663+36.7962L6.3663+5.2566L6.9504+5.2566L6.9504+36.2121L27.2759+36.2121L27.2759+24.706L27.86+24.706L27.86+36.7962ZM42.7135+42.0528L69.8137+42.0528C70.5537+42.0528+71.0797+41.8971+71.3907+41.5856C71.7417+41.2351+71.9167+40.69+71.9167+39.9502L71.9167+33.1166C71.9167+32.3768+71.7417+31.8511+71.3907+31.5396C71.0797+31.1892+70.5537+31.0139+69.8137+31.0139L53.694+31.0139L53.694+25.991L65.0837+25.991C65.8227+25.991+66.3487+25.8352+66.6607+25.5237C67.0107+25.1733+67.1857+24.6282+67.1857+23.8883L67.1857+17.6388C67.1857+16.899+67.0107+16.3733+66.6607+16.0618C66.3487+15.7114+65.8227+15.5362+65.0837+15.5362L53.694+15.5362L53.694+11.0389L69.8137+11.0389C70.5537+11.0389+71.0797+10.8831+71.3907+10.5716C71.7417+10.2212+71.9167+9.676+71.9167+8.9362L71.9167+2.1027C71.9167+1.3628+71.7417+0.837196+71.3907+0.5257C71.0797+0.175198+70.5537+0+69.8137+0L42.7135+0C41.9737+0+41.4286+0.175198+41.0781+0.5257C40.7666+0.837196+40.6109+1.3628+40.6109+2.1027L40.6109+39.9502C40.6109+40.69+40.7666+41.2351+41.0781+41.5856C41.4286+41.8971+41.9737+42.0528+42.7135+42.0528ZM47.5613+36.2121L66.6607+36.2121L66.6607+36.7962L46.9772+36.7962L46.9772+5.2566L66.6607+5.2566L66.6607+5.8407L47.5613+5.8407L47.5613+20.5008L61.9293+20.5008L61.9293+21.0848L47.5613+21.0848L47.5613+36.2121ZM84.7257+24.3556C84.7257+23.3043+84.8027+22.3308+84.9587+21.4353C85.1537+20.5397+85.3867+19.7025+85.6597+18.9238L89.3977+9.3451C89.7867+8.3716+90.2157+7.5539+90.6827+6.892C91.1497+6.1911+91.9677+5.8407+93.1357+5.8407L98.8597+5.8407C99.9497+5.8407+100.729+6.1911+101.196+6.892C101.663+7.5539+102.111+8.3911+102.54+9.4035L106.57+18.9238C106.842+19.7025+107.056+20.5397+107.212+21.4353C107.407+22.3308+107.504+23.3043+107.504+24.3556L107.504+26.1662L84.7257+26.1662L84.7257+24.3556ZM94.0707+12.2654L91.3247+21.1432L100.495+21.1432L97.7497+12.2654C97.5937+11.915+97.4187+11.6619+97.2247+11.5061C97.0687+11.3504+96.8737+11.2725+96.6397+11.2725L95.1797+11.2725C94.9467+11.2725+94.7327+11.3504+94.5377+11.5061C94.3817+11.6619+94.2257+11.915+94.0707+12.2654ZM107.504+36.7962L108.088+36.7962L108.088+24.3556C108.088+23.2653+107.991+22.2724+107.796+21.3769C107.64+20.4423+107.407+19.5468+107.095+18.6901L103.065+9.1699C102.598+8.0407+102.092+7.1062+101.547+6.3663C101.04+5.6265+100.145+5.2566+98.8597+5.2566L93.1357+5.2566C91.8117+5.2566+90.8777+5.6265+90.3327+6.3663C89.7867+7.1062+89.3007+8.0212+88.8717+9.1115L85.1337+18.6901C84.8227+19.5468+84.5697+20.4423+84.3747+21.3769C84.2187+22.2724+84.1407+23.2653+84.1407+24.3556L84.1407+36.7962L84.7257+36.7962L84.7257+26.7503L107.504+26.7503L107.504+36.7962ZM90.7407+39.9502C90.7407+40.69+90.5657+41.2351+90.2157+41.5856C89.9037+41.8971+89.3787+42.0528+88.6387+42.0528L80.0527+42.0528C79.3127+42.0528+78.7677+41.8971+78.4177+41.5856C78.1057+41.2351+77.9497+40.69+77.9497+39.9502L77.9497+24.5308C77.9497+23.3627+78.1257+22.0193+78.4757+20.5008C78.8647+18.9822+79.4487+17.2105+80.2277+15.1857L85.3097+1.9274C85.5427+1.2655+85.8937+0.778797+86.3607+0.467297C86.8667+0.1558+87.5097+0+88.2877+0L104+0C104.74+0+105.343+0.1558+105.81+0.467297C106.317+0.778797+106.686+1.2655+106.92+1.9274L112.001+15.1857C112.78+17.2105+113.345+18.9822+113.695+20.5008C114.085+22.0193+114.279+23.3627+114.279+24.5308L114.279+39.9502C114.279+40.69+114.104+41.2351+113.754+41.5856C113.442+41.8971+112.916+42.0528+112.177+42.0528L103.357+42.0528C102.578+42.0528+101.994+41.8971+101.605+41.5856C101.255+41.2351+101.079+40.69+101.079+39.9502L101.079+31.7732L90.7407+31.7732L90.7407+39.9502ZM123.593+42.0528L132.646+42.0528C133.386+42.0528+133.912+41.8971+134.223+41.5856C134.574+41.2351+134.749+40.69+134.749+39.9502L134.749+30.2547L141.466+30.2547C146.761+30.2547+150.383+29.2033+152.329+27.1007C154.276+24.9981+155.25+22.253+155.25+18.8654L155.25+11.3893C155.25+8.0017+154.276+5.2566+152.329+3.154C150.383+1.0513+146.761+0+141.466+0L123.593+0C122.854+0+122.308+0.175198+121.958+0.5257C121.646+0.837196+121.491+1.3628+121.491+2.1027L121.491+39.9502C121.491+40.69+121.646+41.2351+121.958+41.5856C122.308+41.8971+122.854+42.0528+123.593+42.0528ZM145.087+24.706C143.958+25.0954+142.478+25.2901+140.648+25.2901L128.616+25.2901L128.616+36.7962L128.032+36.7962L128.032+5.2566L140.648+5.2566C142.478+5.2566+143.958+5.4708+145.087+5.8991C146.255+6.2885+147.151+6.8336+147.774+7.5345C148.397+8.2354+148.825+9.0725+149.059+10.046C149.292+11.0194+149.409+12.0707+149.409+13.1999L149.409+17.522C149.409+18.6512+149.292+19.7025+149.059+20.676C148.825+21.6105+148.397+22.4282+147.774+23.1291C147.151+23.791+146.255+24.3167+145.087+24.706ZM128.616+5.8407L128.616+24.706L140.648+24.706C142.361+24.706+143.744+24.5308+144.795+24.1804C145.885+23.8299+146.722+23.3432+147.306+22.7202C147.891+22.0583+148.28+21.299+148.475+20.4423C148.708+19.5468+148.825+18.5733+148.825+17.522L148.825+13.1999C148.825+12.1486+148.708+11.1752+148.475+10.2796C148.28+9.384+147.891+8.6053+147.306+7.9433C146.722+7.2814+145.885+6.7752+144.795+6.4247C143.744+6.0354+142.361+5.8407+140.648+5.8407L128.616+5.8407ZM134.632+19.7415L134.632+10.9221L139.889+10.9221C141.018+10.9221+141.758+11.2141+142.108+11.7982C142.459+12.3822+142.634+13.0442+142.634+13.784L142.634+16.8795C142.634+17.6194+142.459+18.2813+142.108+18.8654C141.758+19.4494+141.018+19.7415+139.889+19.7415L134.632+19.7415ZM167.611+36.7962L168.195+36.7962L168.195+21.3184L190.623+21.3184L190.623+36.7962L191.207+36.7962L191.207+5.2566L190.623+5.2566L190.623+20.7344L168.195+20.7344L168.195+5.2566L167.611+5.2566L167.611+36.7962ZM172.459+42.0528L163.406+42.0528C162.666+42.0528+162.121+41.8971+161.77+41.5856C161.459+41.2351+161.303+40.69+161.303+39.9502L161.303+2.1027C161.303+1.3628+161.459+0.837196+161.77+0.5257C162.121+0.175198+162.666+0+163.406+0L172.459+0C173.199+0+173.724+0.175198+174.036+0.5257C174.386+0.837196+174.561+1.3628+174.561+2.1027L174.561+14.7769L184.315+14.7769L184.315+2.1027C184.315+1.3628+184.471+0.837196+184.783+0.5257C185.133+0.175198+185.678+0+186.418+0L195.471+0C196.211+0+196.736+0.175198+197.048+0.5257C197.398+0.837196+197.574+1.3628+197.574+2.1027L197.574+39.9502C197.574+40.69+197.398+41.2351+197.048+41.5856C196.736+41.8971+196.211+42.0528+195.471+42.0528L186.418+42.0528C185.678+42.0528+185.133+41.8971+184.783+41.5856C184.471+41.2351+184.315+40.69+184.315+39.9502L184.315+26.9839L174.561+26.9839L174.561+39.9502C174.561+40.69+174.386+41.2351+174.036+41.5856C173.724+41.8971+173.199+42.0528+172.459+42.0528ZM217.478+42.0528L226.94+42.0528C227.68+42.0528+228.205+41.8971+228.517+41.5856C228.867+41.2351+229.042+40.69+229.042+39.9502L229.042+35.8771C239.746+43.7145+254.228+42.2521+263.554+29.8609L263.526+29.8619C263.271+29.8633+261.111+29.7287+251.504+25.5938C238.529+20.0109+233.178+34.572+233.178+34.572L233.256+34.6146C234.23+35.1392+244.205+40.2193+253.418+33.6061L253.352+33.6678C252.52+34.4313+243.903+41.9216+231.876+36.1435C231.011+35.7283+230.035+35.1803+229.042+34.5474L229.042+32.5325L237.92+20.5008C238.777+19.2937+239.361+18.2424+239.672+17.3468C239.984+16.4512+240.14+15.1079+240.14+13.3167L240.14+2.1027C240.14+1.3628+239.965+0.837196+239.614+0.5257C239.303+0.175198+238.777+0+238.037+0L229.335+0C228.595+0+228.05+0.175198+227.699+0.5257C227.388+0.837196+227.232+1.3628+227.232+2.1027L227.232+11.6813C227.232+12.0707+227.212+12.4796+227.173+12.9079C227.135+13.3362+226.979+13.745+226.706+14.1344L224.019+18.3397C223.825+18.6901+223.611+18.9432+223.377+19.099C223.182+19.2547+222.929+19.3326+222.618+19.3326L222.034+19.3326C221.722+19.3326+221.45+19.2547+221.216+19.099C221.021+18.9432+220.827+18.6901+220.632+18.3397L217.945+14.1344C217.673+13.745+217.517+13.3362+217.478+12.9079C217.439+12.4796+217.42+12.0707+217.42+11.6813L217.42+2.1027C217.42+1.3628+217.244+0.837196+216.894+0.5257C216.582+0.175198+216.057+0+215.317+0L206.322+0C205.582+0+205.037+0.175198+204.687+0.5257C204.375+0.837196+204.22+1.3628+204.22+2.1027L204.22+13.3167C204.22+15.1079+204.356+16.4512+204.628+17.3468C204.94+18.2424+205.544+19.2937+206.439+20.5008L215.375+32.4741L215.375+39.9502C215.375+40.69+215.531+41.2351+215.843+41.5856C216.193+41.8971+216.738+42.0528+217.478+42.0528ZM225.246+26.2246C224.584+26.614+223.805+26.8087+222.91+26.8087L222.501+26.8087L222.501+36.7962L221.917+36.7962L221.917+26.8087L221.333+26.8087C220.476+26.8087+219.697+26.614+218.997+26.2246C218.335+25.8352+217.692+25.2122+217.069+24.3556L211.404+16.4707C210.975+15.8866+210.722+15.2052+210.644+14.4265C210.566+13.6477+210.528+12.83+210.528+11.9734L210.528+5.2566L211.112+5.2566L211.112+11.9734C211.112+12.7911+211.151+13.5698+211.228+14.3096C211.306+15.0105+211.54+15.653+211.929+16.2371L217.595+24.122C218.101+24.9007+218.685+25.4459+219.347+25.7574C220.009+26.0689+220.671+26.2246+221.333+26.2246L222.91+26.2246C223.65+26.2246+224.312+26.0689+224.896+25.7574C225.519+25.4069+226.122+24.8618+226.706+24.122L232.547+16.2371C232.936+15.7309+233.17+15.1079+233.248+14.368C233.326+13.5893+233.365+12.7911+233.365+11.9734L233.365+5.2566L233.949+5.2566L233.949+11.9734C233.949+12.83+233.91+13.6477+233.832+14.4265C233.793+15.1663+233.54+15.8477+233.073+16.4707L227.232+24.3556C226.609+25.2122+225.947+25.8352+225.246+26.2246Z" fill-rule="evenodd" fill="#06778f" opacity="1"/>
</g>
</svg>
