<svg width="151" height="34" viewBox="0 0 151 34" fill="none" xmlns="http://www.w3.org/2000/svg">
  <rect width="151" height="34" fill="none"/>
  <path d="M4.887 22.68C4.887 23.112 5.022 23.517 5.292 23.895C5.58 24.273 6.057 24.462 6.723 24.462H10.098C10.764 24.462 11.232 24.3 11.502 23.976C11.79 23.634 11.934 23.247 11.934 22.815V22.518C11.934 21.672 12.429 21.249 13.419 21.249C14.409 21.249 14.904 21.672 14.904 22.518V22.842C14.904 23.598 14.778 24.219 14.526 24.705C14.292 25.191 13.932 25.614 13.446 25.974C12.492 26.658 11.538 27 10.584 27H6.048C5.094 27 4.167 26.658 3.267 25.974C2.835 25.614 2.502 25.164 2.268 24.624C2.034 24.066 1.917 23.427 1.917 22.707V15.012C1.917 13.554 2.367 12.474 3.267 11.772C3.717 11.448 4.176 11.196 4.644 11.016C5.13 10.818 5.598 10.719 6.048 10.719H10.584C11.016 10.719 11.493 10.809 12.015 10.989C12.537 11.151 13.023 11.376 13.473 11.664C13.905 11.97 14.247 12.393 14.499 12.933C14.769 13.473 14.904 14.112 14.904 14.85V18.495C14.904 18.909 14.778 19.278 14.526 19.602C14.292 19.926 13.851 20.088 13.203 20.088H7.371C6.723 20.088 6.381 19.665 6.345 18.819C6.345 17.973 6.687 17.55 7.371 17.55H11.961L11.934 15.039C11.934 14.589 11.79 14.184 11.502 13.824C11.232 13.446 10.764 13.257 10.098 13.257H6.723C6.057 13.257 5.58 13.446 5.292 13.824C5.022 14.184 4.887 14.589 4.887 15.039V22.68ZM22.9608 27C22.4028 27 21.8718 26.928 21.3678 26.784C20.8638 26.622 20.3778 26.397 19.9098 26.109V26.136C19.0278 25.578 18.5868 24.552 18.5868 23.058V21.735C18.5868 20.997 18.7128 20.358 18.9648 19.818C19.2348 19.26 19.6038 18.819 20.0718 18.495H20.0448C20.4948 18.189 20.9718 17.964 21.4758 17.82C21.9798 17.658 22.4658 17.577 22.9338 17.577H28.9008V15.066C28.9008 14.616 28.7568 14.211 28.4688 13.851C28.1988 13.473 27.7308 13.284 27.0648 13.284H23.9058C23.2218 13.284 22.7448 13.455 22.4748 13.797C22.2228 14.121 22.0968 14.508 22.0968 14.958V15.174C22.0968 16.11 21.5928 16.578 20.5848 16.578C19.5768 16.578 19.0728 16.11 19.0728 15.174V14.931C19.0728 14.193 19.1988 13.572 19.4508 13.068C19.7208 12.564 20.0808 12.141 20.5308 11.799H20.5038C20.9718 11.493 21.4578 11.241 21.9618 11.043C22.4838 10.845 22.9788 10.746 23.4468 10.746H27.5508C28.0008 10.746 28.4778 10.845 28.9818 11.043C29.5038 11.241 29.9898 11.493 30.4398 11.799H30.4128C30.8808 12.141 31.2408 12.591 31.4928 13.149C31.7448 13.689 31.8708 14.319 31.8708 15.039V25.866C31.8708 26.73 31.3758 27.162 30.3858 27.162C30.1878 27.162 29.9988 27.153 29.8188 27.135C29.6568 27.117 29.5038 27.072 29.3598 27C29.2338 26.91 29.1258 26.793 29.0358 26.649C28.9638 26.487 28.9278 26.28 28.9278 26.028L28.9008 20.115H23.4468C23.0508 20.115 22.7448 20.16 22.5288 20.25C22.3128 20.34 22.1418 20.484 22.0158 20.682C21.8718 20.988 21.7638 21.231 21.6918 21.411C21.6378 21.573 21.6108 21.762 21.6108 21.978V23.031C21.6108 23.499 21.7458 23.859 22.0158 24.111C22.3038 24.345 22.7898 24.462 23.4738 24.462H26.4978C27.1638 24.462 27.4968 24.885 27.4968 25.731C27.4968 26.091 27.4158 26.397 27.2538 26.649C27.0918 26.883 26.8398 27 26.4978 27H22.9608ZM44.6783 17.55C45.1283 17.55 45.6053 17.658 46.1093 17.874C46.6313 18.072 47.1173 18.324 47.5673 18.63H47.5403C48.0083 18.972 48.3683 19.413 48.6203 19.953C48.8723 20.493 48.9983 21.141 48.9983 21.897V22.707C48.9983 24.183 48.5123 25.272 47.5403 25.974C47.0723 26.334 46.5953 26.595 46.1093 26.757C45.6233 26.919 45.1463 27 44.6783 27H40.0883C39.6203 27 39.1433 26.919 38.6573 26.757C38.1713 26.595 37.6943 26.334 37.2263 25.974C36.2543 25.29 35.7683 24.201 35.7683 22.707V22.383C35.7683 21.609 36.2633 21.231 37.2533 21.249C38.2613 21.249 38.7653 21.627 38.7653 22.383V22.68C38.7653 23.112 38.9003 23.517 39.1703 23.895C39.4403 24.273 39.9173 24.462 40.6013 24.462H44.1653C44.8493 24.462 45.3263 24.273 45.5963 23.895C45.8663 23.517 46.0013 23.112 46.0013 22.68V21.924C46.0013 21.69 45.9653 21.465 45.8933 21.249C45.8393 21.033 45.7403 20.844 45.5963 20.682C45.4523 20.502 45.2633 20.358 45.0293 20.25C44.7953 20.142 44.5073 20.088 44.1653 20.088H40.2233C39.3053 20.088 38.3423 19.764 37.3343 19.116C36.3803 18.504 35.9033 17.451 35.9033 15.957V15.039C35.9033 14.319 36.0293 13.689 36.2813 13.149C36.5333 12.591 36.8933 12.141 37.3613 11.799H37.3343C37.7843 11.493 38.2613 11.241 38.7653 11.043C39.2693 10.845 39.7553 10.746 40.2233 10.746H44.5433C45.0113 10.746 45.4883 10.845 45.9743 11.043C46.4783 11.241 46.9643 11.493 47.4323 11.799H47.4053C47.8733 12.141 48.2333 12.591 48.4853 13.149C48.7373 13.689 48.8633 14.319 48.8633 15.039V15.282C48.8633 15.66 48.7373 15.939 48.4853 16.119C48.2333 16.281 47.8643 16.371 47.3783 16.389C46.3883 16.407 45.8933 16.038 45.8933 15.282V15.066C45.8933 14.616 45.7493 14.211 45.4613 13.851C45.1913 13.473 44.7233 13.284 44.0573 13.284H40.7093C40.0433 13.284 39.5663 13.473 39.2783 13.851C39.0083 14.211 38.8733 14.616 38.8733 15.066V15.714C38.8733 16.182 39.0083 16.605 39.2783 16.983C39.5663 17.361 40.0433 17.55 40.7093 17.55H44.6783ZM53.9186 30.78C53.2886 30.78 52.9556 30.357 52.9196 29.511C52.9196 28.665 53.2526 28.242 53.9186 28.242H55.1066C55.7366 28.242 56.1506 28.053 56.3486 27.675L56.7266 26.676L56.8616 26.244L51.5966 12.447V12.474C51.4526 12.042 51.4796 11.673 51.6776 11.367C51.8936 11.061 52.2176 10.836 52.6496 10.692C52.9736 10.602 53.2346 10.557 53.4326 10.557C53.9546 10.557 54.2786 10.863 54.4046 11.475L56.5376 16.794L58.3466 21.222L61.2356 11.529C61.3976 10.881 61.7756 10.557 62.3696 10.557C62.5136 10.557 62.7476 10.602 63.0716 10.692C63.5036 10.818 63.8096 11.025 63.9896 11.313C64.1876 11.601 64.2326 11.943 64.1246 12.339C63.3146 15.093 62.4866 17.865 61.6406 20.655C60.8126 23.445 59.9936 26.208 59.1836 28.944C59.0936 29.142 58.9496 29.34 58.7516 29.538C58.5716 29.754 58.3286 29.952 58.0226 30.132C57.7166 30.33 57.3386 30.483 56.8886 30.591C56.4386 30.717 55.9166 30.78 55.3226 30.78H53.9186ZM67.1288 17.1387C67.1288 16.0664 67.3836 15.2446 67.8934 14.6733C68.4032 14.0933 69.1458 13.8032 70.1214 13.8032C71.0882 13.8032 71.8265 14.0933 72.3363 14.6733C72.8548 15.2446 73.1141 16.0664 73.1141 17.1387C73.1141 18.2109 72.8504 19.0371 72.3231 19.6172C71.8045 20.1973 71.0706 20.4873 70.1214 20.4873C69.1546 20.4873 68.412 20.1973 67.8934 19.6172C67.3836 19.0283 67.1288 18.2021 67.1288 17.1387ZM80.5971 25.866C80.5971 26.298 80.4441 26.622 80.1381 26.838C79.8321 27.054 79.4991 27.162 79.1391 27.162C78.1491 27.162 77.6541 26.73 77.6541 25.866V6.696C77.6541 5.832 78.1491 5.4 79.1391 5.4C80.1291 5.4 80.6241 5.832 80.6241 6.696V10.746H86.3211C87.2391 10.746 88.1931 11.088 89.1831 11.772C90.1551 12.456 90.6411 13.536 90.6411 15.012V23.058C90.6411 24.552 90.2001 25.578 89.3181 26.136C88.4361 26.712 87.4281 27 86.2941 27H83.1081C82.4601 27 82.1181 26.577 82.0821 25.731C82.0821 24.885 82.4241 24.462 83.1081 24.462H85.8081C86.4741 24.462 86.9511 24.345 87.2391 24.111C87.5271 23.859 87.6711 23.499 87.6711 23.031V15.255C87.6711 14.787 87.5271 14.337 87.2391 13.905L87.2661 13.932C87.0321 13.5 86.5551 13.284 85.8351 13.284H80.6241L80.5971 25.866ZM97.567 25.947C97.567 26.793 97.072 27.216 96.082 27.216C95.074 27.216 94.57 26.793 94.57 25.947V6.588C94.57 5.742 95.074 5.319 96.082 5.319C97.072 5.319 97.567 5.742 97.567 6.588V25.947ZM110.472 10.746C110.94 10.746 111.417 10.845 111.903 11.043C112.407 11.241 112.893 11.493 113.361 11.799H113.334C113.802 12.141 114.162 12.591 114.414 13.149C114.666 13.689 114.792 14.319 114.792 15.039V22.707C114.792 24.183 114.306 25.272 113.334 25.974C112.38 26.658 111.426 27 110.472 27H106.152C105.684 27 105.207 26.919 104.721 26.757C104.235 26.595 103.758 26.334 103.29 25.974C102.318 25.29 101.832 24.201 101.832 22.707V15.039C101.832 14.319 101.958 13.689 102.21 13.149C102.462 12.591 102.822 12.141 103.29 11.799H103.263C103.713 11.493 104.19 11.241 104.694 11.043C105.198 10.845 105.684 10.746 106.152 10.746H110.472ZM109.986 24.462C110.652 24.462 111.12 24.273 111.39 23.895C111.678 23.517 111.822 23.112 111.822 22.68V15.066C111.822 14.616 111.678 14.211 111.39 13.851C111.12 13.473 110.652 13.284 109.986 13.284H106.638C105.972 13.284 105.495 13.473 105.207 13.851C104.937 14.211 104.802 14.616 104.802 15.066V22.68C104.802 23.112 104.937 23.517 105.207 23.895C105.495 24.273 105.972 24.462 106.638 24.462H109.986ZM123.093 27C122.625 27 122.121 26.946 121.581 26.838C121.041 26.73 120.537 26.523 120.069 26.217C119.565 25.911 119.214 25.47 119.016 24.894C118.836 24.3 118.746 23.625 118.746 22.869V14.877C118.746 14.121 118.872 13.473 119.124 12.933C119.394 12.393 119.754 11.97 120.204 11.664C120.672 11.376 121.149 11.151 121.635 10.989C122.121 10.827 122.598 10.746 123.066 10.746H127.413C127.881 10.746 128.349 10.827 128.817 10.989C129.303 11.151 129.798 11.376 130.302 11.664C130.734 11.97 131.076 12.402 131.328 12.96C131.598 13.5 131.733 14.139 131.733 14.877V29.565C131.733 30.429 131.238 30.861 130.248 30.861C129.258 30.861 128.763 30.438 128.763 29.592V15.066C128.763 14.616 128.619 14.211 128.331 13.851C128.061 13.473 127.593 13.284 126.927 13.284H123.552C122.886 13.284 122.409 13.473 122.121 13.851C121.851 14.211 121.716 14.616 121.716 15.066V22.68C121.716 23.112 121.851 23.517 122.121 23.895C122.409 24.273 122.886 24.462 123.552 24.462H126.36C127.008 24.462 127.332 24.885 127.332 25.731C127.332 26.091 127.251 26.397 127.089 26.649C126.945 26.883 126.702 27 126.36 27H123.093ZM144.488 17.55C144.938 17.55 145.415 17.658 145.919 17.874C146.441 18.072 146.927 18.324 147.377 18.63H147.35C147.818 18.972 148.178 19.413 148.43 19.953C148.682 20.493 148.808 21.141 148.808 21.897V22.707C148.808 24.183 148.322 25.272 147.35 25.974C146.882 26.334 146.405 26.595 145.919 26.757C145.433 26.919 144.956 27 144.488 27H139.898C139.43 27 138.953 26.919 138.467 26.757C137.981 26.595 137.504 26.334 137.036 25.974C136.064 25.29 135.578 24.201 135.578 22.707V22.383C135.578 21.609 136.073 21.231 137.063 21.249C138.071 21.249 138.575 21.627 138.575 22.383V22.68C138.575 23.112 138.71 23.517 138.98 23.895C139.25 24.273 139.727 24.462 140.411 24.462H143.975C144.659 24.462 145.136 24.273 145.406 23.895C145.676 23.517 145.811 23.112 145.811 22.68V21.924C145.811 21.69 145.775 21.465 145.703 21.249C145.649 21.033 145.55 20.844 145.406 20.682C145.262 20.502 145.073 20.358 144.839 20.25C144.605 20.142 144.317 20.088 143.975 20.088H140.033C139.115 20.088 138.152 19.764 137.144 19.116C136.19 18.504 135.713 17.451 135.713 15.957V15.039C135.713 14.319 135.839 13.689 136.091 13.149C136.343 12.591 136.703 12.141 137.171 11.799H137.144C137.594 11.493 138.071 11.241 138.575 11.043C139.079 10.845 139.565 10.746 140.033 10.746H144.353C144.821 10.746 145.298 10.845 145.784 11.043C146.288 11.241 146.774 11.493 147.242 11.799H147.215C147.683 12.141 148.043 12.591 148.295 13.149C148.547 13.689 148.673 14.319 148.673 15.039V15.282C148.673 15.66 148.547 15.939 148.295 16.119C148.043 16.281 147.674 16.371 147.188 16.389C146.198 16.407 145.703 16.038 145.703 15.282V15.066C145.703 14.616 145.559 14.211 145.271 13.851C145.001 13.473 144.533 13.284 143.867 13.284H140.519C139.853 13.284 139.376 13.473 139.088 13.851C138.818 14.211 138.683 14.616 138.683 15.066V15.714C138.683 16.182 138.818 16.605 139.088 16.983C139.376 17.361 139.853 17.55 140.519 17.55H144.488Z" fill="#3479D5"/>
</svg>
