<svg width="129" height="82" viewBox="0 0 129 82" fill="none" xmlns="http://www.w3.org/2000/svg">
  <path d="M80.522 18.7816C80.522 8.7163 69.0188 2.34848 57.7211 5.22427C46.4233 8.10006 41.9042 18.3707 41.9042 32.7497" stroke="#444458" stroke-width="1.5"/>
  <path d="M81.1386 17.1383C81.1386 7.07298 68.403 -1.96519 55.2564 2.55389C42.1099 7.07297 39.4396 18.1653 39.4396 32.5443" stroke="#E0E0E0" stroke-width="1.5"/>
  <rect x="79.4952" y="16.3166" width="3.28662" height="9.85988" fill="#B9B9B9"/>
  <rect x="81.3441" y="16.3166" width="1.4379" height="9.85988" fill="#7B7B7B"/>
  <path d="M77.0303 17.1382C77.0303 7.07287 62.2405 -3.1978 49.9156 2.75926C37.5908 8.71631 37.5908 18.3707 37.5908 32.7497" stroke="#178ACE" stroke-width="1.5"/>
  <rect x="75.387" y="16.3165" width="3.28662" height="9.85988" fill="#B9B9B9"/>
  <rect x="77.2356" y="16.3165" width="1.4379" height="9.85988" fill="#7B7B7B"/>
  <rect x="34.3042" y="32.1335" width="32.6608" height="14.7898" fill="#444458"/>
  <circle cx="39.8503" cy="36.6526" r="2.8758" fill="#DBDBDB"/>
  <circle cx="39.8502" cy="36.6526" r="2.05414" fill="#FBFBFB"/>
  <rect x="45.1911" y="26.1765" width="43.137" height="20.7468" fill="#24253F"/>
  <circle cx="55.7698" cy="36.5499" r="8.31927" fill="#E8E8E8"/>
  <circle cx="55.7698" cy="36.5499" r="6.26513" fill="#444458"/>
  <circle cx="55.7697" cy="36.5499" r="5.03264" fill="#0FB900"/>
  <circle cx="55.7698" cy="36.5499" r="3.18392" fill="#F4F4F4"/>
  <circle cx="78.16" cy="36.5499" r="8.31927" fill="#E8E8E8"/>
  <circle cx="78.1598" cy="36.5499" r="6.26513" fill="#444458"/>
  <circle cx="78.1598" cy="36.5499" r="5.03264" fill="#0FB900"/>
  <circle cx="78.1599" cy="36.5499" r="3.18392" fill="#F4F4F4"/>
  <rect x="31.223" y="46.9233" width="41.9045" height="8.21656" fill="#999999"/>
  <rect x="73.1274" y="46.9233" width="10.2707" height="8.21656" fill="#444458"/>
  <rect x="109.28" y="46.9233" width="11.5032" height="34.5096" fill="#5E5E5E"/>
  <rect x="63.0431" y="71.6591" width="2.96176" height="7.19284" fill="#5D5D5D"/>
  <rect x="109.28" y="46.9233" width="1.64331" height="34.5096" fill="#DCDCDC"/>
  <rect x="119.14" y="46.9233" width="1.64331" height="34.5096" fill="#DCDCDC"/>
  <rect x="8.21661" y="46.9233" width="11.5032" height="34.5096" fill="#5E5E5E"/>
  <rect x="8.21661" y="46.9233" width="1.64331" height="34.5096" fill="#DCDCDC"/>
  <rect x="18.0765" y="46.9233" width="1.64331" height="34.5096" fill="#DCDCDC"/>
  <rect x="19.7198" y="58.4265" width="89.5605" height="11.5032" fill="#F3F3F3"/>
  <rect x="27.7308" y="58.4265" width="73.5382" height="11.5032" fill="#444458"/>
  <rect y="55.1399" width="129" height="1.64331" fill="#D3D3D3"/>
  <rect y="56.7832" width="129" height="1.64331" fill="#7B7B7B"/>
  <rect y="69.9297" width="129" height="1.64331" fill="#7B7B7B"/>
  <rect y="71.573" width="129" height="1.64331" fill="#D3D3D3"/>
</svg>
